<?xml version="1.0" encoding="UTF-8" standalone="no"?>
<!DOCTYPE svg PUBLIC "-//W3C//DTD SVG 1.1//EN"
 "http://www.w3.org/Graphics/SVG/1.1/DTD/svg11.dtd">
<!-- Generated by graphviz version 2.40.1 (20161225.0304)
 -->
<!-- Title: compactRelationshipsDiagram Pages: 1 -->
<svg width="479pt" height="489pt"
 viewBox="0.00 0.00 479.00 489.20" xmlns="http://www.w3.org/2000/svg" xmlns:xlink="http://www.w3.org/1999/xlink">
<g id="graph0" class="graph" transform="scale(1 1) rotate(0) translate(4 485.2)">
<title>compactRelationshipsDiagram</title>
<polygon fill="#ffffff" stroke="transparent" points="-4,4 -4,-485.2 475,-485.2 475,4 -4,4"/>
<text text-anchor="middle" x="72.4936" y="-7.3" font-family="Helvetica,sans-Serif" font-size="11.00" fill="#000000">Generated by SchemaSpy</text>
<!-- wms_rec_order_pos_product -->
<g id="node1" class="node">
<title>wms_rec_order_pos_product</title>
<g id="a_node1"><a xlink:href="../../tables/wms_rec_order_pos_product.html" xlink:title="wms_rec_order_pos_product" target="_top">
<polygon fill="#ffffff" stroke="transparent" points="235,-43.2 235,-192.2 463,-192.2 463,-43.2 235,-43.2"/>
<polygon fill="#f5f5f5" stroke="transparent" points="235,-168.7 235,-191.7 463,-191.7 463,-168.7 235,-168.7"/>
<polygon fill="none" stroke="#000000" points="235,-168.7 235,-191.7 463,-191.7 463,-168.7 235,-168.7"/>
<text text-anchor="start" x="240" y="-177.3" font-family="Helvetica,sans-Serif" font-weight="bold" font-size="11.00" fill="#000000">wms_rec_order_pos_product</text>
<text text-anchor="start" x="428.5219" y="-176.8" font-family="Helvetica,sans-Serif" font-size="11.00" fill="#000000">[table]</text>
<polygon fill="#ffffff" stroke="transparent" points="235,-146.7 235,-168.7 463,-168.7 463,-146.7 235,-146.7"/>
<polygon fill="none" stroke="#000000" points="235,-146.7 235,-168.7 463,-168.7 463,-146.7 235,-146.7"/>
<text text-anchor="start" x="264" y="-153.8" font-family="Helvetica,sans-Serif" font-size="11.00" fill="#000000">c_pos_no</text>
<polygon fill="none" stroke="#000000" points="235,-124.7 235,-146.7 463,-146.7 463,-124.7 235,-124.7"/>
<image xlink:href="../../images/primaryKeys.png" width="11px" height="12px" preserveAspectRatio="xMinYMin meet" x="240" y="-141.7"/>
<text text-anchor="start" x="264" y="-131.8" font-family="Helvetica,sans-Serif" font-size="11.00" fill="#000000">c_pk</text>
<polygon fill="#ffffff" stroke="transparent" points="235,-102.7 235,-124.7 463,-124.7 463,-102.7 235,-102.7"/>
<polygon fill="none" stroke="#000000" points="235,-102.7 235,-124.7 463,-124.7 463,-102.7 235,-102.7"/>
<image xlink:href="../../images/foreignKeys.png" width="11px" height="12px" preserveAspectRatio="xMinYMin meet" x="240" y="-119.7"/>
<text text-anchor="start" x="264" y="-109.8" font-family="Helvetica,sans-Serif" font-size="11.00" fill="#000000">c_order_id</text>
<polygon fill="none" stroke="#000000" points="235,-80.7 235,-102.7 463,-102.7 463,-80.7 235,-80.7"/>
<image xlink:href="../../images/foreignKeys.png" width="11px" height="12px" preserveAspectRatio="xMinYMin meet" x="240" y="-97.7"/>
<text text-anchor="start" x="264" y="-87.8" font-family="Helvetica,sans-Serif" font-size="11.00" fill="#000000">c_sku</text>
<polygon fill="none" stroke="#000000" points="235,-61.7 235,-80.7 463,-80.7 463,-61.7 235,-61.7"/>
<text text-anchor="start" x="238" y="-67.8" font-family="Helvetica,sans-Serif" font-size="11.00" fill="#000000">...</text>
<polygon fill="#ffffff" stroke="transparent" points="235,-42.7 235,-61.7 347,-61.7 347,-42.7 235,-42.7"/>
<polygon fill="none" stroke="#000000" points="235,-42.7 235,-61.7 347,-61.7 347,-42.7 235,-42.7"/>
<text text-anchor="start" x="238" y="-48.8" font-family="Helvetica,sans-Serif" font-size="11.00" fill="#000000">&lt; 2</text>
<polygon fill="#ffffff" stroke="transparent" points="347,-42.7 347,-61.7 405,-61.7 405,-42.7 347,-42.7"/>
<polygon fill="none" stroke="#000000" points="347,-42.7 347,-61.7 405,-61.7 405,-42.7 347,-42.7"/>
<text text-anchor="start" x="395.8862" y="-48.8" font-family="Helvetica,sans-Serif" font-size="11.00" fill="#000000"> &#160;</text>
<polygon fill="#ffffff" stroke="transparent" points="405,-42.7 405,-61.7 463,-61.7 463,-42.7 405,-42.7"/>
<polygon fill="none" stroke="#000000" points="405,-42.7 405,-61.7 463,-61.7 463,-42.7 405,-42.7"/>
<text text-anchor="start" x="453.8862" y="-48.8" font-family="Helvetica,sans-Serif" font-size="11.00" fill="#000000"> &#160;</text>
</a>
</g>
</g>
<!-- wms_rec_product -->
<g id="node3" class="node">
<title>wms_rec_product</title>
<g id="a_node3"><a xlink:href="../../tables/wms_rec_product.html" xlink:title="wms_rec_product" target="_top">
<polygon fill="#ffffff" stroke="transparent" points="9,-38.2 9,-187.2 185,-187.2 185,-38.2 9,-38.2"/>
<polygon fill="#f5f5f5" stroke="transparent" points="9,-163.7 9,-186.7 185,-186.7 185,-163.7 9,-163.7"/>
<polygon fill="none" stroke="#000000" points="9,-163.7 9,-186.7 185,-186.7 185,-163.7 9,-163.7"/>
<text text-anchor="start" x="14" y="-172.3" font-family="Helvetica,sans-Serif" font-weight="bold" font-size="11.00" fill="#000000">wms_rec_product</text>
<text text-anchor="start" x="150.0437" y="-171.8" font-family="Helvetica,sans-Serif" font-size="11.00" fill="#000000">[table]</text>
<polygon fill="none" stroke="#000000" points="9,-141.7 9,-163.7 185,-163.7 185,-141.7 9,-141.7"/>
<image xlink:href="../../images/primaryKeys.png" width="11px" height="12px" preserveAspectRatio="xMinYMin meet" x="14" y="-158.7"/>
<text text-anchor="start" x="29" y="-148.8" font-family="Helvetica,sans-Serif" font-size="11.00" fill="#000000">c_pk</text>
<polygon fill="#ffffff" stroke="transparent" points="9,-119.7 9,-141.7 185,-141.7 185,-119.7 9,-119.7"/>
<polygon fill="none" stroke="#000000" points="9,-119.7 9,-141.7 185,-141.7 185,-119.7 9,-119.7"/>
<text text-anchor="start" x="29" y="-126.8" font-family="Helvetica,sans-Serif" font-size="11.00" fill="#000000">c_foreign_pid</text>
<polygon fill="#ffffff" stroke="transparent" points="9,-97.7 9,-119.7 185,-119.7 185,-97.7 9,-97.7"/>
<polygon fill="none" stroke="#000000" points="9,-97.7 9,-119.7 185,-119.7 185,-97.7 9,-97.7"/>
<text text-anchor="start" x="29" y="-104.8" font-family="Helvetica,sans-Serif" font-size="11.00" fill="#000000">c_pid</text>
<polygon fill="#ffffff" stroke="transparent" points="9,-75.7 9,-97.7 185,-97.7 185,-75.7 9,-75.7"/>
<polygon fill="none" stroke="#000000" points="9,-75.7 9,-97.7 185,-97.7 185,-75.7 9,-75.7"/>
<text text-anchor="start" x="29" y="-82.8" font-family="Helvetica,sans-Serif" font-size="11.00" fill="#000000">c_sku</text>
<polygon fill="none" stroke="#000000" points="9,-56.7 9,-75.7 185,-75.7 185,-56.7 9,-56.7"/>
<text text-anchor="start" x="12" y="-62.8" font-family="Helvetica,sans-Serif" font-size="11.00" fill="#000000">...</text>
<polygon fill="#ffffff" stroke="transparent" points="9,-37.7 9,-56.7 86,-56.7 86,-37.7 9,-37.7"/>
<polygon fill="none" stroke="#000000" points="9,-37.7 9,-56.7 86,-56.7 86,-37.7 9,-37.7"/>
<text text-anchor="start" x="12" y="-43.8" font-family="Helvetica,sans-Serif" font-size="11.00" fill="#000000"> &#160;</text>
<polygon fill="#ffffff" stroke="transparent" points="86,-37.7 86,-56.7 131,-56.7 131,-37.7 86,-37.7"/>
<polygon fill="none" stroke="#000000" points="86,-37.7 86,-56.7 131,-56.7 131,-37.7 86,-37.7"/>
<text text-anchor="start" x="121.8862" y="-43.8" font-family="Helvetica,sans-Serif" font-size="11.00" fill="#000000"> &#160;</text>
<polygon fill="#ffffff" stroke="transparent" points="131,-37.7 131,-56.7 185,-56.7 185,-37.7 131,-37.7"/>
<polygon fill="none" stroke="#000000" points="131,-37.7 131,-56.7 185,-56.7 185,-37.7 131,-37.7"/>
<text text-anchor="start" x="166.4053" y="-43.8" font-family="Helvetica,sans-Serif" font-size="11.00" fill="#000000">1 &gt;</text>
</a>
</g>
</g>
<!-- wms_rec_order_pos_product&#45;&gt;wms_rec_product -->
<g id="edge3" class="edge">
<title>wms_rec_order_pos_product:w&#45;&gt;wms_rec_product:e</title>
<path fill="none" stroke="#000000" d="M220.5338,-90.8744C208.7868,-89.4542 201.5753,-86.7 185,-86.7"/>
<polygon fill="#000000" stroke="#000000" points="227.013,-91.2441 234.7948,-95.2942 231.0065,-91.472 235,-91.7 235,-91.7 235,-91.7 231.0065,-91.472 235.2052,-88.1058 227.013,-91.2441 227.013,-91.2441"/>
<ellipse fill="none" stroke="#000000" cx="223.8182" cy="-91.0617" rx="3.2" ry="3.2"/>
</g>
<!-- wms_rec_order -->
<g id="node5" class="node">
<title>wms_rec_order</title>
<g id="a_node5"><a xlink:href="../../tables/wms_rec_order.html" xlink:title="wms_rec_order" target="_top">
<polygon fill="#ffffff" stroke="transparent" points="8,-208.2 8,-335.2 186,-335.2 186,-208.2 8,-208.2"/>
<polygon fill="#f5f5f5" stroke="transparent" points="8,-311.7 8,-334.7 186,-334.7 186,-311.7 8,-311.7"/>
<polygon fill="none" stroke="#000000" points="8,-311.7 8,-334.7 186,-334.7 186,-311.7 8,-311.7"/>
<text text-anchor="start" x="13" y="-320.3" font-family="Helvetica,sans-Serif" font-weight="bold" font-size="11.00" fill="#000000">wms_rec_order</text>
<text text-anchor="start" x="151.0437" y="-319.8" font-family="Helvetica,sans-Serif" font-size="11.00" fill="#000000">[table]</text>
<polygon fill="none" stroke="#000000" points="8,-289.7 8,-311.7 186,-311.7 186,-289.7 8,-289.7"/>
<image xlink:href="../../images/primaryKeys.png" width="11px" height="12px" preserveAspectRatio="xMinYMin meet" x="13" y="-306.7"/>
<text text-anchor="start" x="28" y="-296.8" font-family="Helvetica,sans-Serif" font-size="11.00" fill="#000000">c_pk</text>
<polygon fill="#ffffff" stroke="transparent" points="8,-267.7 8,-289.7 186,-289.7 186,-267.7 8,-267.7"/>
<polygon fill="none" stroke="#000000" points="8,-267.7 8,-289.7 186,-289.7 186,-267.7 8,-267.7"/>
<text text-anchor="start" x="28" y="-274.8" font-family="Helvetica,sans-Serif" font-size="11.00" fill="#000000">c_order_id</text>
<polygon fill="#ffffff" stroke="transparent" points="8,-245.7 8,-267.7 186,-267.7 186,-245.7 8,-245.7"/>
<polygon fill="none" stroke="#000000" points="8,-245.7 8,-267.7 186,-267.7 186,-245.7 8,-245.7"/>
<text text-anchor="start" x="28" y="-252.8" font-family="Helvetica,sans-Serif" font-size="11.00" fill="#000000">c_pid</text>
<polygon fill="none" stroke="#000000" points="8,-226.7 8,-245.7 186,-245.7 186,-226.7 8,-226.7"/>
<text text-anchor="start" x="11" y="-232.8" font-family="Helvetica,sans-Serif" font-size="11.00" fill="#000000">...</text>
<polygon fill="#ffffff" stroke="transparent" points="8,-207.7 8,-226.7 86,-226.7 86,-207.7 8,-207.7"/>
<polygon fill="none" stroke="#000000" points="8,-207.7 8,-226.7 86,-226.7 86,-207.7 8,-207.7"/>
<text text-anchor="start" x="11" y="-213.8" font-family="Helvetica,sans-Serif" font-size="11.00" fill="#000000"> &#160;</text>
<polygon fill="#ffffff" stroke="transparent" points="86,-207.7 86,-226.7 131,-226.7 131,-207.7 86,-207.7"/>
<polygon fill="none" stroke="#000000" points="86,-207.7 86,-226.7 131,-226.7 131,-207.7 86,-207.7"/>
<text text-anchor="start" x="121.8862" y="-213.8" font-family="Helvetica,sans-Serif" font-size="11.00" fill="#000000"> &#160;</text>
<polygon fill="#ffffff" stroke="transparent" points="131,-207.7 131,-226.7 186,-226.7 186,-207.7 131,-207.7"/>
<polygon fill="none" stroke="#000000" points="131,-207.7 131,-226.7 186,-226.7 186,-207.7 131,-207.7"/>
<text text-anchor="start" x="167.4053" y="-213.8" font-family="Helvetica,sans-Serif" font-size="11.00" fill="#000000">3 &gt;</text>
</a>
</g>
</g>
<!-- wms_rec_order_pos_product&#45;&gt;wms_rec_order -->
<g id="edge2" class="edge">
<title>wms_rec_order_pos_product:w&#45;&gt;wms_rec_order:e</title>
<path fill="none" stroke="#000000" d="M220.8023,-116.2918C172.9442,-137.2833 256.8211,-278.7 186,-278.7"/>
<polygon fill="#000000" stroke="#000000" points="227.1301,-115.1367 235.6465,-117.2415 231.065,-114.4183 235,-113.7 235,-113.7 235,-113.7 231.065,-114.4183 234.3535,-110.1585 227.1301,-115.1367 227.1301,-115.1367"/>
<ellipse fill="none" stroke="#000000" cx="223.9821" cy="-115.7114" rx="3.2" ry="3.2"/>
</g>
<!-- wms_rec_order_detail -->
<g id="node2" class="node">
<title>wms_rec_order_detail</title>
<g id="a_node2"><a xlink:href="../../tables/wms_rec_order_detail.html" xlink:title="wms_rec_order_detail" target="_top">
<polygon fill="#ffffff" stroke="transparent" points="257,-372.2 257,-477.2 441,-477.2 441,-372.2 257,-372.2"/>
<polygon fill="#f5f5f5" stroke="transparent" points="257,-453.7 257,-476.7 441,-476.7 441,-453.7 257,-453.7"/>
<polygon fill="none" stroke="#000000" points="257,-453.7 257,-476.7 441,-476.7 441,-453.7 257,-453.7"/>
<text text-anchor="start" x="262" y="-462.3" font-family="Helvetica,sans-Serif" font-weight="bold" font-size="11.00" fill="#000000">wms_rec_order_detail</text>
<text text-anchor="start" x="406.5219" y="-461.8" font-family="Helvetica,sans-Serif" font-size="11.00" fill="#000000">[table]</text>
<polygon fill="none" stroke="#000000" points="257,-431.7 257,-453.7 441,-453.7 441,-431.7 257,-431.7"/>
<image xlink:href="../../images/primaryKeys.png" width="11px" height="12px" preserveAspectRatio="xMinYMin meet" x="262" y="-448.7"/>
<text text-anchor="start" x="286" y="-438.8" font-family="Helvetica,sans-Serif" font-size="11.00" fill="#000000">c_order_pk</text>
<polygon fill="none" stroke="#000000" points="257,-409.7 257,-431.7 441,-431.7 441,-409.7 257,-409.7"/>
<image xlink:href="../../images/primaryKeys.png" width="11px" height="12px" preserveAspectRatio="xMinYMin meet" x="262" y="-426.7"/>
<text text-anchor="start" x="286" y="-416.8" font-family="Helvetica,sans-Serif" font-size="11.00" fill="#000000">c_key</text>
<polygon fill="none" stroke="#000000" points="257,-390.7 257,-409.7 441,-409.7 441,-390.7 257,-390.7"/>
<text text-anchor="start" x="260" y="-396.8" font-family="Helvetica,sans-Serif" font-size="11.00" fill="#000000">...</text>
<polygon fill="#ffffff" stroke="transparent" points="257,-371.7 257,-390.7 347,-390.7 347,-371.7 257,-371.7"/>
<polygon fill="none" stroke="#000000" points="257,-371.7 257,-390.7 347,-390.7 347,-371.7 257,-371.7"/>
<text text-anchor="start" x="260" y="-377.8" font-family="Helvetica,sans-Serif" font-size="11.00" fill="#000000">&lt; 1</text>
<polygon fill="#ffffff" stroke="transparent" points="347,-371.7 347,-390.7 394,-390.7 394,-371.7 347,-371.7"/>
<polygon fill="none" stroke="#000000" points="347,-371.7 347,-390.7 394,-390.7 394,-371.7 347,-371.7"/>
<text text-anchor="start" x="384.8862" y="-377.8" font-family="Helvetica,sans-Serif" font-size="11.00" fill="#000000"> &#160;</text>
<polygon fill="#ffffff" stroke="transparent" points="394,-371.7 394,-390.7 441,-390.7 441,-371.7 394,-371.7"/>
<polygon fill="none" stroke="#000000" points="394,-371.7 394,-390.7 441,-390.7 441,-371.7 394,-371.7"/>
<text text-anchor="start" x="431.8862" y="-377.8" font-family="Helvetica,sans-Serif" font-size="11.00" fill="#000000"> &#160;</text>
</a>
</g>
</g>
<!-- wms_rec_order_detail&#45;&gt;wms_rec_order -->
<g id="edge1" class="edge">
<title>wms_rec_order_detail:w&#45;&gt;wms_rec_order:e</title>
<path fill="none" stroke="#000000" d="M242.6108,-440.1141C196.7678,-420.8684 250.91,-300.7 186,-300.7"/>
<polygon fill="#000000" stroke="#000000" points="249.1261,-441.2849 256.3632,-446.2432 253.0631,-441.9925 257,-442.7 257,-442.7 257,-442.7 253.0631,-441.9925 257.6368,-439.1568 249.1261,-441.2849 249.1261,-441.2849"/>
<ellipse fill="none" stroke="#000000" cx="245.9766" cy="-440.7189" rx="3.2" ry="3.2"/>
</g>
<!-- wms_rec_order_pos_tu -->
<g id="node4" class="node">
<title>wms_rec_order_pos_tu</title>
<g id="a_node4"><a xlink:href="../../tables/wms_rec_order_pos_tu.html" xlink:title="wms_rec_order_pos_tu" target="_top">
<polygon fill="#ffffff" stroke="transparent" points="244,-224.2 244,-351.2 454,-351.2 454,-224.2 244,-224.2"/>
<polygon fill="#f5f5f5" stroke="transparent" points="244,-327.7 244,-350.7 454,-350.7 454,-327.7 244,-327.7"/>
<polygon fill="none" stroke="#000000" points="244,-327.7 244,-350.7 454,-350.7 454,-327.7 244,-327.7"/>
<text text-anchor="start" x="249" y="-336.3" font-family="Helvetica,sans-Serif" font-weight="bold" font-size="11.00" fill="#000000">wms_rec_order_pos_tu</text>
<text text-anchor="start" x="419.0437" y="-335.8" font-family="Helvetica,sans-Serif" font-size="11.00" fill="#000000">[table]</text>
<polygon fill="#ffffff" stroke="transparent" points="244,-305.7 244,-327.7 454,-327.7 454,-305.7 244,-305.7"/>
<polygon fill="none" stroke="#000000" points="244,-305.7 244,-327.7 454,-327.7 454,-305.7 244,-305.7"/>
<text text-anchor="start" x="264" y="-312.8" font-family="Helvetica,sans-Serif" font-size="11.00" fill="#000000">c_pos_no</text>
<polygon fill="none" stroke="#000000" points="244,-283.7 244,-305.7 454,-305.7 454,-283.7 244,-283.7"/>
<image xlink:href="../../images/primaryKeys.png" width="11px" height="12px" preserveAspectRatio="xMinYMin meet" x="249" y="-300.7"/>
<text text-anchor="start" x="264" y="-290.8" font-family="Helvetica,sans-Serif" font-size="11.00" fill="#000000">c_pk</text>
<polygon fill="#ffffff" stroke="transparent" points="244,-261.7 244,-283.7 454,-283.7 454,-261.7 244,-261.7"/>
<polygon fill="none" stroke="#000000" points="244,-261.7 244,-283.7 454,-283.7 454,-261.7 244,-261.7"/>
<image xlink:href="../../images/foreignKeys.png" width="11px" height="12px" preserveAspectRatio="xMinYMin meet" x="249" y="-278.7"/>
<text text-anchor="start" x="264" y="-268.8" font-family="Helvetica,sans-Serif" font-size="11.00" fill="#000000">c_order_id</text>
<polygon fill="none" stroke="#000000" points="244,-242.7 244,-261.7 454,-261.7 454,-242.7 244,-242.7"/>
<text text-anchor="start" x="247" y="-248.8" font-family="Helvetica,sans-Serif" font-size="11.00" fill="#000000">...</text>
<polygon fill="#ffffff" stroke="transparent" points="244,-223.7 244,-242.7 347,-242.7 347,-223.7 244,-223.7"/>
<polygon fill="none" stroke="#000000" points="244,-223.7 244,-242.7 347,-242.7 347,-223.7 244,-223.7"/>
<text text-anchor="start" x="247" y="-229.8" font-family="Helvetica,sans-Serif" font-size="11.00" fill="#000000">&lt; 1</text>
<polygon fill="#ffffff" stroke="transparent" points="347,-223.7 347,-242.7 400,-242.7 400,-223.7 347,-223.7"/>
<polygon fill="none" stroke="#000000" points="347,-223.7 347,-242.7 400,-242.7 400,-223.7 347,-223.7"/>
<text text-anchor="start" x="390.8862" y="-229.8" font-family="Helvetica,sans-Serif" font-size="11.00" fill="#000000"> &#160;</text>
<polygon fill="#ffffff" stroke="transparent" points="400,-223.7 400,-242.7 454,-242.7 454,-223.7 400,-223.7"/>
<polygon fill="none" stroke="#000000" points="400,-223.7 400,-242.7 454,-242.7 454,-223.7 400,-223.7"/>
<text text-anchor="start" x="444.8862" y="-229.8" font-family="Helvetica,sans-Serif" font-size="11.00" fill="#000000"> &#160;</text>
</a>
</g>
</g>
<!-- wms_rec_order_pos_tu&#45;&gt;wms_rec_order -->
<g id="edge4" class="edge">
<title>wms_rec_order_pos_tu:w&#45;&gt;wms_rec_order:e</title>
<path fill="none" stroke="#000000" d="M229.4143,-273.4357C214.4407,-275.0379 206.2464,-278.7 186,-278.7"/>
<polygon fill="#000000" stroke="#000000" points="236.0102,-273.1031 244.1814,-276.2954 240.0051,-272.9015 244,-272.7 244,-272.7 244,-272.7 240.0051,-272.9015 243.8186,-269.1046 236.0102,-273.1031 236.0102,-273.1031"/>
<ellipse fill="none" stroke="#000000" cx="232.8142" cy="-273.2643" rx="3.2" ry="3.2"/>
</g>
</g>
</svg>
