<?xml version="1.0" encoding="UTF-8" standalone="no"?>
<!DOCTYPE svg PUBLIC "-//W3C//DTD SVG 1.1//EN"
 "http://www.w3.org/Graphics/SVG/1.1/DTD/svg11.dtd">
<!-- Generated by graphviz version 2.40.1 (20161225.0304)
 -->
<!-- Title: largeRelationshipsDiagram Pages: 1 -->
<svg width="479pt" height="947pt"
 viewBox="0.00 0.00 479.00 947.20" xmlns="http://www.w3.org/2000/svg" xmlns:xlink="http://www.w3.org/1999/xlink">
<g id="graph0" class="graph" transform="scale(1 1) rotate(0) translate(4 943.2)">
<title>largeRelationshipsDiagram</title>
<polygon fill="#ffffff" stroke="transparent" points="-4,4 -4,-943.2 475,-943.2 475,4 -4,4"/>
<text text-anchor="middle" x="72.4936" y="-7.3" font-family="Helvetica,sans-Serif" font-size="11.00" fill="#000000">Generated by SchemaSpy</text>
<!-- wms_rec_order_pos_product -->
<g id="node1" class="node">
<title>wms_rec_order_pos_product</title>
<g id="a_node1"><a xlink:href="../../tables/wms_rec_order_pos_product.html" xlink:title="wms_rec_order_pos_product" target="_top">
<polygon fill="#ffffff" stroke="transparent" points="235,-38.2 235,-432.2 463,-432.2 463,-38.2 235,-38.2"/>
<polygon fill="#f5f5f5" stroke="transparent" points="235,-409.2 235,-432.2 463,-432.2 463,-409.2 235,-409.2"/>
<polygon fill="none" stroke="#000000" points="235,-409.2 235,-432.2 463,-432.2 463,-409.2 235,-409.2"/>
<text text-anchor="start" x="240" y="-417.8" font-family="Helvetica,sans-Serif" font-weight="bold" font-size="11.00" fill="#000000">wms_rec_order_pos_product</text>
<text text-anchor="start" x="428.5219" y="-417.3" font-family="Helvetica,sans-Serif" font-size="11.00" fill="#000000">[table]</text>
<polygon fill="#ffffff" stroke="transparent" points="235,-387.2 235,-409.2 463,-409.2 463,-387.2 235,-387.2"/>
<polygon fill="none" stroke="#000000" points="235,-387.2 235,-409.2 463,-409.2 463,-387.2 235,-387.2"/>
<text text-anchor="start" x="264" y="-394.3" font-family="Helvetica,sans-Serif" font-size="11.00" fill="#000000">c_pos_no</text>
<polygon fill="none" stroke="#000000" points="235,-365.2 235,-387.2 463,-387.2 463,-365.2 235,-365.2"/>
<text text-anchor="start" x="264" y="-372.3" font-family="Helvetica,sans-Serif" font-size="11.00" fill="#000000">c_created</text>
<polygon fill="none" stroke="#000000" points="235,-343.2 235,-365.2 463,-365.2 463,-343.2 235,-343.2"/>
<text text-anchor="start" x="264" y="-350.3" font-family="Helvetica,sans-Serif" font-size="11.00" fill="#000000">c_latest_due</text>
<polygon fill="none" stroke="#000000" points="235,-321.2 235,-343.2 463,-343.2 463,-321.2 235,-321.2"/>
<text text-anchor="start" x="264" y="-328.3" font-family="Helvetica,sans-Serif" font-size="11.00" fill="#000000">c_ol</text>
<polygon fill="none" stroke="#000000" points="235,-299.2 235,-321.2 463,-321.2 463,-299.2 235,-299.2"/>
<image xlink:href="../../images/primaryKeys.png" width="11px" height="12px" preserveAspectRatio="xMinYMin meet" x="240" y="-316.2"/>
<text text-anchor="start" x="264" y="-306.3" font-family="Helvetica,sans-Serif" font-size="11.00" fill="#000000">c_pk</text>
<polygon fill="none" stroke="#000000" points="235,-277.2 235,-299.2 463,-299.2 463,-277.2 235,-277.2"/>
<text text-anchor="start" x="264" y="-284.3" font-family="Helvetica,sans-Serif" font-size="11.00" fill="#000000">c_updated</text>
<polygon fill="none" stroke="#000000" points="235,-255.2 235,-277.2 463,-277.2 463,-255.2 235,-255.2"/>
<text text-anchor="start" x="264" y="-262.3" font-family="Helvetica,sans-Serif" font-size="11.00" fill="#000000">c_qty_expected</text>
<polygon fill="none" stroke="#000000" points="235,-233.2 235,-255.2 463,-255.2 463,-233.2 235,-233.2"/>
<text text-anchor="start" x="264" y="-240.3" font-family="Helvetica,sans-Serif" font-size="11.00" fill="#000000">c_qty_received</text>
<polygon fill="none" stroke="#000000" points="235,-211.2 235,-233.2 463,-233.2 463,-211.2 235,-211.2"/>
<text text-anchor="start" x="264" y="-218.3" font-family="Helvetica,sans-Serif" font-size="11.00" fill="#000000">c_created_by</text>
<polygon fill="none" stroke="#000000" points="235,-189.2 235,-211.2 463,-211.2 463,-189.2 235,-189.2"/>
<text text-anchor="start" x="264" y="-196.3" font-family="Helvetica,sans-Serif" font-size="11.00" fill="#000000">c_expected_receipt_at</text>
<polygon fill="#ffffff" stroke="transparent" points="235,-167.2 235,-189.2 463,-189.2 463,-167.2 235,-167.2"/>
<polygon fill="none" stroke="#000000" points="235,-167.2 235,-189.2 463,-189.2 463,-167.2 235,-167.2"/>
<image xlink:href="../../images/foreignKeys.png" width="11px" height="12px" preserveAspectRatio="xMinYMin meet" x="240" y="-184.2"/>
<text text-anchor="start" x="264" y="-174.3" font-family="Helvetica,sans-Serif" font-size="11.00" fill="#000000">c_order_id</text>
<polygon fill="none" stroke="#000000" points="235,-145.2 235,-167.2 463,-167.2 463,-145.2 235,-145.2"/>
<text text-anchor="start" x="264" y="-152.3" font-family="Helvetica,sans-Serif" font-size="11.00" fill="#000000">c_qty_expected_type</text>
<polygon fill="none" stroke="#000000" points="235,-123.2 235,-145.2 463,-145.2 463,-123.2 235,-123.2"/>
<text text-anchor="start" x="264" y="-130.3" font-family="Helvetica,sans-Serif" font-size="11.00" fill="#000000">c_qty_received_type</text>
<polygon fill="none" stroke="#000000" points="235,-101.2 235,-123.2 463,-123.2 463,-101.2 235,-101.2"/>
<image xlink:href="../../images/foreignKeys.png" width="11px" height="12px" preserveAspectRatio="xMinYMin meet" x="240" y="-118.2"/>
<text text-anchor="start" x="264" y="-108.3" font-family="Helvetica,sans-Serif" font-size="11.00" fill="#000000">c_sku</text>
<polygon fill="none" stroke="#000000" points="235,-79.2 235,-101.2 463,-101.2 463,-79.2 235,-79.2"/>
<text text-anchor="start" x="264" y="-86.3" font-family="Helvetica,sans-Serif" font-size="11.00" fill="#000000">c_state</text>
<polygon fill="none" stroke="#000000" points="235,-57.2 235,-79.2 463,-79.2 463,-57.2 235,-57.2"/>
<text text-anchor="start" x="264" y="-64.3" font-family="Helvetica,sans-Serif" font-size="11.00" fill="#000000">c_updated_by</text>
<polygon fill="#ffffff" stroke="transparent" points="235,-38.2 235,-57.2 347,-57.2 347,-38.2 235,-38.2"/>
<polygon fill="none" stroke="#000000" points="235,-38.2 235,-57.2 347,-57.2 347,-38.2 235,-38.2"/>
<text text-anchor="start" x="238" y="-44.3" font-family="Helvetica,sans-Serif" font-size="11.00" fill="#000000">&lt; 2</text>
<polygon fill="#ffffff" stroke="transparent" points="347,-38.2 347,-57.2 405,-57.2 405,-38.2 347,-38.2"/>
<polygon fill="none" stroke="#000000" points="347,-38.2 347,-57.2 405,-57.2 405,-38.2 347,-38.2"/>
<text text-anchor="start" x="395.8862" y="-44.3" font-family="Helvetica,sans-Serif" font-size="11.00" fill="#000000"> &#160;</text>
<polygon fill="#ffffff" stroke="transparent" points="405,-38.2 405,-57.2 463,-57.2 463,-38.2 405,-38.2"/>
<polygon fill="none" stroke="#000000" points="405,-38.2 405,-57.2 463,-57.2 463,-38.2 405,-38.2"/>
<text text-anchor="start" x="453.8862" y="-44.3" font-family="Helvetica,sans-Serif" font-size="11.00" fill="#000000"> &#160;</text>
</a>
</g>
</g>
<!-- wms_rec_product -->
<g id="node3" class="node">
<title>wms_rec_product</title>
<g id="a_node3"><a xlink:href="../../tables/wms_rec_product.html" xlink:title="wms_rec_product" target="_top">
<polygon fill="#ffffff" stroke="transparent" points="9,-60.2 9,-410.2 185,-410.2 185,-60.2 9,-60.2"/>
<polygon fill="#f5f5f5" stroke="transparent" points="9,-387.2 9,-410.2 185,-410.2 185,-387.2 9,-387.2"/>
<polygon fill="none" stroke="#000000" points="9,-387.2 9,-410.2 185,-410.2 185,-387.2 9,-387.2"/>
<text text-anchor="start" x="14" y="-395.8" font-family="Helvetica,sans-Serif" font-weight="bold" font-size="11.00" fill="#000000">wms_rec_product</text>
<text text-anchor="start" x="150.0437" y="-395.3" font-family="Helvetica,sans-Serif" font-size="11.00" fill="#000000">[table]</text>
<polygon fill="none" stroke="#000000" points="9,-365.2 9,-387.2 185,-387.2 185,-365.2 9,-365.2"/>
<text text-anchor="start" x="29" y="-372.3" font-family="Helvetica,sans-Serif" font-size="11.00" fill="#000000">c_overbooking_allowed</text>
<polygon fill="none" stroke="#000000" points="9,-343.2 9,-365.2 185,-365.2 185,-343.2 9,-343.2"/>
<text text-anchor="start" x="29" y="-350.3" font-family="Helvetica,sans-Serif" font-size="11.00" fill="#000000">c_created</text>
<polygon fill="none" stroke="#000000" points="9,-321.2 9,-343.2 185,-343.2 185,-321.2 9,-321.2"/>
<text text-anchor="start" x="29" y="-328.3" font-family="Helvetica,sans-Serif" font-size="11.00" fill="#000000">c_ol</text>
<polygon fill="none" stroke="#000000" points="9,-299.2 9,-321.2 185,-321.2 185,-299.2 9,-299.2"/>
<image xlink:href="../../images/primaryKeys.png" width="11px" height="12px" preserveAspectRatio="xMinYMin meet" x="14" y="-316.2"/>
<text text-anchor="start" x="29" y="-306.3" font-family="Helvetica,sans-Serif" font-size="11.00" fill="#000000">c_pk</text>
<polygon fill="none" stroke="#000000" points="9,-277.2 9,-299.2 185,-299.2 185,-277.2 9,-277.2"/>
<text text-anchor="start" x="29" y="-284.3" font-family="Helvetica,sans-Serif" font-size="11.00" fill="#000000">c_updated</text>
<polygon fill="none" stroke="#000000" points="9,-255.2 9,-277.2 185,-277.2 185,-255.2 9,-255.2"/>
<text text-anchor="start" x="29" y="-262.3" font-family="Helvetica,sans-Serif" font-size="11.00" fill="#000000">c_base_unit_qty</text>
<polygon fill="none" stroke="#000000" points="9,-233.2 9,-255.2 185,-255.2 185,-233.2 9,-233.2"/>
<text text-anchor="start" x="29" y="-240.3" font-family="Helvetica,sans-Serif" font-size="11.00" fill="#000000">c_base_unit_type</text>
<polygon fill="none" stroke="#000000" points="9,-211.2 9,-233.2 185,-233.2 185,-211.2 9,-211.2"/>
<text text-anchor="start" x="29" y="-218.3" font-family="Helvetica,sans-Serif" font-size="11.00" fill="#000000">c_created_by</text>
<polygon fill="none" stroke="#000000" points="9,-189.2 9,-211.2 185,-211.2 185,-189.2 9,-189.2"/>
<text text-anchor="start" x="29" y="-196.3" font-family="Helvetica,sans-Serif" font-size="11.00" fill="#000000">c_description</text>
<polygon fill="#ffffff" stroke="transparent" points="9,-167.2 9,-189.2 185,-189.2 185,-167.2 9,-167.2"/>
<polygon fill="none" stroke="#000000" points="9,-167.2 9,-189.2 185,-189.2 185,-167.2 9,-167.2"/>
<text text-anchor="start" x="29" y="-174.3" font-family="Helvetica,sans-Serif" font-size="11.00" fill="#000000">c_foreign_pid</text>
<polygon fill="none" stroke="#000000" points="9,-145.2 9,-167.2 185,-167.2 185,-145.2 9,-145.2"/>
<text text-anchor="start" x="29" y="-152.3" font-family="Helvetica,sans-Serif" font-size="11.00" fill="#000000">c_label</text>
<polygon fill="#ffffff" stroke="transparent" points="9,-123.2 9,-145.2 185,-145.2 185,-123.2 9,-123.2"/>
<polygon fill="none" stroke="#000000" points="9,-123.2 9,-145.2 185,-145.2 185,-123.2 9,-123.2"/>
<text text-anchor="start" x="29" y="-130.3" font-family="Helvetica,sans-Serif" font-size="11.00" fill="#000000">c_pid</text>
<polygon fill="#ffffff" stroke="transparent" points="9,-101.2 9,-123.2 185,-123.2 185,-101.2 9,-101.2"/>
<polygon fill="none" stroke="#000000" points="9,-101.2 9,-123.2 185,-123.2 185,-101.2 9,-101.2"/>
<text text-anchor="start" x="29" y="-108.3" font-family="Helvetica,sans-Serif" font-size="11.00" fill="#000000">c_sku</text>
<polygon fill="none" stroke="#000000" points="9,-79.2 9,-101.2 185,-101.2 185,-79.2 9,-79.2"/>
<text text-anchor="start" x="29" y="-86.3" font-family="Helvetica,sans-Serif" font-size="11.00" fill="#000000">c_updated_by</text>
<polygon fill="#ffffff" stroke="transparent" points="9,-60.2 9,-79.2 86,-79.2 86,-60.2 9,-60.2"/>
<polygon fill="none" stroke="#000000" points="9,-60.2 9,-79.2 86,-79.2 86,-60.2 9,-60.2"/>
<text text-anchor="start" x="12" y="-66.3" font-family="Helvetica,sans-Serif" font-size="11.00" fill="#000000"> &#160;</text>
<polygon fill="#ffffff" stroke="transparent" points="86,-60.2 86,-79.2 131,-79.2 131,-60.2 86,-60.2"/>
<polygon fill="none" stroke="#000000" points="86,-60.2 86,-79.2 131,-79.2 131,-60.2 86,-60.2"/>
<text text-anchor="start" x="121.8862" y="-66.3" font-family="Helvetica,sans-Serif" font-size="11.00" fill="#000000"> &#160;</text>
<polygon fill="#ffffff" stroke="transparent" points="131,-60.2 131,-79.2 185,-79.2 185,-60.2 131,-60.2"/>
<polygon fill="none" stroke="#000000" points="131,-60.2 131,-79.2 185,-79.2 185,-60.2 131,-60.2"/>
<text text-anchor="start" x="166.4053" y="-66.3" font-family="Helvetica,sans-Serif" font-size="11.00" fill="#000000">1 &gt;</text>
</a>
</g>
</g>
<!-- wms_rec_order_pos_product&#45;&gt;wms_rec_product -->
<g id="edge3" class="edge">
<title>wms_rec_order_pos_product:w&#45;&gt;wms_rec_product:e</title>
<path fill="none" stroke="#000000" d="M220.5647,-112.2C208.8054,-112.2 201.4931,-112.2 185,-112.2"/>
<polygon fill="#000000" stroke="#000000" points="227,-112.2001 235,-115.8 231,-112.2 235,-112.2 235,-112.2 235,-112.2 231,-112.2 235,-108.6 227,-112.2001 227,-112.2001"/>
<ellipse fill="none" stroke="#000000" cx="223.8" cy="-112.2001" rx="3.2" ry="3.2"/>
</g>
<!-- wms_rec_order -->
<g id="node5" class="node">
<title>wms_rec_order</title>
<g id="a_node5"><a xlink:href="../../tables/wms_rec_order.html" xlink:title="wms_rec_order" target="_top">
<polygon fill="#ffffff" stroke="transparent" points="8,-453.2 8,-935.2 186,-935.2 186,-453.2 8,-453.2"/>
<polygon fill="#f5f5f5" stroke="transparent" points="8,-912.2 8,-935.2 186,-935.2 186,-912.2 8,-912.2"/>
<polygon fill="none" stroke="#000000" points="8,-912.2 8,-935.2 186,-935.2 186,-912.2 8,-912.2"/>
<text text-anchor="start" x="13" y="-920.8" font-family="Helvetica,sans-Serif" font-weight="bold" font-size="11.00" fill="#000000">wms_rec_order</text>
<text text-anchor="start" x="151.0437" y="-920.3" font-family="Helvetica,sans-Serif" font-size="11.00" fill="#000000">[table]</text>
<polygon fill="none" stroke="#000000" points="8,-890.2 8,-912.2 186,-912.2 186,-890.2 8,-890.2"/>
<text text-anchor="start" x="28" y="-897.3" font-family="Helvetica,sans-Serif" font-size="11.00" fill="#000000">c_locked</text>
<polygon fill="none" stroke="#000000" points="8,-868.2 8,-890.2 186,-890.2 186,-868.2 8,-868.2"/>
<text text-anchor="start" x="28" y="-875.3" font-family="Helvetica,sans-Serif" font-size="11.00" fill="#000000">c_priority</text>
<polygon fill="none" stroke="#000000" points="8,-846.2 8,-868.2 186,-868.2 186,-846.2 8,-846.2"/>
<text text-anchor="start" x="28" y="-853.3" font-family="Helvetica,sans-Serif" font-size="11.00" fill="#000000">c_problem_message_no</text>
<polygon fill="none" stroke="#000000" points="8,-824.2 8,-846.2 186,-846.2 186,-824.2 8,-824.2"/>
<text text-anchor="start" x="28" y="-831.3" font-family="Helvetica,sans-Serif" font-size="11.00" fill="#000000">c_created</text>
<polygon fill="none" stroke="#000000" points="8,-802.2 8,-824.2 186,-824.2 186,-802.2 8,-802.2"/>
<text text-anchor="start" x="28" y="-809.3" font-family="Helvetica,sans-Serif" font-size="11.00" fill="#000000">c_ended_at</text>
<polygon fill="none" stroke="#000000" points="8,-780.2 8,-802.2 186,-802.2 186,-780.2 8,-780.2"/>
<text text-anchor="start" x="28" y="-787.3" font-family="Helvetica,sans-Serif" font-size="11.00" fill="#000000">c_expected_receipt</text>
<polygon fill="none" stroke="#000000" points="8,-758.2 8,-780.2 186,-780.2 186,-758.2 8,-758.2"/>
<text text-anchor="start" x="28" y="-765.3" font-family="Helvetica,sans-Serif" font-size="11.00" fill="#000000">c_latest_due_at</text>
<polygon fill="none" stroke="#000000" points="8,-736.2 8,-758.2 186,-758.2 186,-736.2 8,-736.2"/>
<text text-anchor="start" x="28" y="-743.3" font-family="Helvetica,sans-Serif" font-size="11.00" fill="#000000">c_next_alloc_at</text>
<polygon fill="none" stroke="#000000" points="8,-714.2 8,-736.2 186,-736.2 186,-714.2 8,-714.2"/>
<text text-anchor="start" x="28" y="-721.3" font-family="Helvetica,sans-Serif" font-size="11.00" fill="#000000">c_ol</text>
<polygon fill="none" stroke="#000000" points="8,-692.2 8,-714.2 186,-714.2 186,-692.2 8,-692.2"/>
<image xlink:href="../../images/primaryKeys.png" width="11px" height="12px" preserveAspectRatio="xMinYMin meet" x="13" y="-709.2"/>
<text text-anchor="start" x="28" y="-699.3" font-family="Helvetica,sans-Serif" font-size="11.00" fill="#000000">c_pk</text>
<polygon fill="none" stroke="#000000" points="8,-670.2 8,-692.2 186,-692.2 186,-670.2 8,-670.2"/>
<text text-anchor="start" x="28" y="-677.3" font-family="Helvetica,sans-Serif" font-size="11.00" fill="#000000">c_problem_occurred</text>
<polygon fill="none" stroke="#000000" points="8,-648.2 8,-670.2 186,-670.2 186,-648.2 8,-648.2"/>
<text text-anchor="start" x="28" y="-655.3" font-family="Helvetica,sans-Serif" font-size="11.00" fill="#000000">c_start_earliest_at</text>
<polygon fill="none" stroke="#000000" points="8,-626.2 8,-648.2 186,-648.2 186,-626.2 8,-626.2"/>
<text text-anchor="start" x="28" y="-633.3" font-family="Helvetica,sans-Serif" font-size="11.00" fill="#000000">c_started_at</text>
<polygon fill="none" stroke="#000000" points="8,-604.2 8,-626.2 186,-626.2 186,-604.2 8,-604.2"/>
<text text-anchor="start" x="28" y="-611.3" font-family="Helvetica,sans-Serif" font-size="11.00" fill="#000000">c_updated</text>
<polygon fill="none" stroke="#000000" points="8,-582.2 8,-604.2 186,-604.2 186,-582.2 8,-582.2"/>
<text text-anchor="start" x="28" y="-589.3" font-family="Helvetica,sans-Serif" font-size="11.00" fill="#000000">c_created_by</text>
<polygon fill="#ffffff" stroke="transparent" points="8,-560.2 8,-582.2 186,-582.2 186,-560.2 8,-560.2"/>
<polygon fill="none" stroke="#000000" points="8,-560.2 8,-582.2 186,-582.2 186,-560.2 8,-560.2"/>
<text text-anchor="start" x="28" y="-567.3" font-family="Helvetica,sans-Serif" font-size="11.00" fill="#000000">c_order_id</text>
<polygon fill="none" stroke="#000000" points="8,-538.2 8,-560.2 186,-560.2 186,-538.2 8,-538.2"/>
<text text-anchor="start" x="28" y="-545.3" font-family="Helvetica,sans-Serif" font-size="11.00" fill="#000000">c_order_state</text>
<polygon fill="#ffffff" stroke="transparent" points="8,-516.2 8,-538.2 186,-538.2 186,-516.2 8,-516.2"/>
<polygon fill="none" stroke="#000000" points="8,-516.2 8,-538.2 186,-538.2 186,-516.2 8,-516.2"/>
<text text-anchor="start" x="28" y="-523.3" font-family="Helvetica,sans-Serif" font-size="11.00" fill="#000000">c_pid</text>
<polygon fill="none" stroke="#000000" points="8,-494.2 8,-516.2 186,-516.2 186,-494.2 8,-494.2"/>
<text text-anchor="start" x="28" y="-501.3" font-family="Helvetica,sans-Serif" font-size="11.00" fill="#000000">c_problem_message</text>
<polygon fill="none" stroke="#000000" points="8,-472.2 8,-494.2 186,-494.2 186,-472.2 8,-472.2"/>
<text text-anchor="start" x="28" y="-479.3" font-family="Helvetica,sans-Serif" font-size="11.00" fill="#000000">c_updated_by</text>
<polygon fill="#ffffff" stroke="transparent" points="8,-453.2 8,-472.2 86,-472.2 86,-453.2 8,-453.2"/>
<polygon fill="none" stroke="#000000" points="8,-453.2 8,-472.2 86,-472.2 86,-453.2 8,-453.2"/>
<text text-anchor="start" x="11" y="-459.3" font-family="Helvetica,sans-Serif" font-size="11.00" fill="#000000"> &#160;</text>
<polygon fill="#ffffff" stroke="transparent" points="86,-453.2 86,-472.2 131,-472.2 131,-453.2 86,-453.2"/>
<polygon fill="none" stroke="#000000" points="86,-453.2 86,-472.2 131,-472.2 131,-453.2 86,-453.2"/>
<text text-anchor="start" x="121.8862" y="-459.3" font-family="Helvetica,sans-Serif" font-size="11.00" fill="#000000"> &#160;</text>
<polygon fill="#ffffff" stroke="transparent" points="131,-453.2 131,-472.2 186,-472.2 186,-453.2 131,-453.2"/>
<polygon fill="none" stroke="#000000" points="131,-453.2 131,-472.2 186,-472.2 186,-453.2 131,-453.2"/>
<text text-anchor="start" x="167.4053" y="-459.3" font-family="Helvetica,sans-Serif" font-size="11.00" fill="#000000">3 &gt;</text>
</a>
</g>
</g>
<!-- wms_rec_order_pos_product&#45;&gt;wms_rec_order -->
<g id="edge2" class="edge">
<title>wms_rec_order_pos_product:w&#45;&gt;wms_rec_order:e</title>
<path fill="none" stroke="#000000" d="M220.9131,-182.6136C162.0279,-225.7898 268.5089,-571.2 186,-571.2"/>
<polygon fill="#000000" stroke="#000000" points="227.3659,-180.5919 236.0763,-181.6353 231.183,-179.3959 235,-178.2 235,-178.2 235,-178.2 231.183,-179.3959 233.9237,-174.7647 227.3659,-180.5919 227.3659,-180.5919"/>
<ellipse fill="none" stroke="#000000" cx="224.3123" cy="-181.5486" rx="3.2" ry="3.2"/>
</g>
<!-- wms_rec_order_detail -->
<g id="node2" class="node">
<title>wms_rec_order_detail</title>
<g id="a_node2"><a xlink:href="../../tables/wms_rec_order_detail.html" xlink:title="wms_rec_order_detail" target="_top">
<polygon fill="#ffffff" stroke="transparent" points="257,-802.2 257,-910.2 441,-910.2 441,-802.2 257,-802.2"/>
<polygon fill="#f5f5f5" stroke="transparent" points="257,-887.2 257,-910.2 441,-910.2 441,-887.2 257,-887.2"/>
<polygon fill="none" stroke="#000000" points="257,-887.2 257,-910.2 441,-910.2 441,-887.2 257,-887.2"/>
<text text-anchor="start" x="262" y="-895.8" font-family="Helvetica,sans-Serif" font-weight="bold" font-size="11.00" fill="#000000">wms_rec_order_detail</text>
<text text-anchor="start" x="406.5219" y="-895.3" font-family="Helvetica,sans-Serif" font-size="11.00" fill="#000000">[table]</text>
<polygon fill="none" stroke="#000000" points="257,-865.2 257,-887.2 441,-887.2 441,-865.2 257,-865.2"/>
<image xlink:href="../../images/primaryKeys.png" width="11px" height="12px" preserveAspectRatio="xMinYMin meet" x="262" y="-882.2"/>
<text text-anchor="start" x="286" y="-872.3" font-family="Helvetica,sans-Serif" font-size="11.00" fill="#000000">c_order_pk</text>
<polygon fill="none" stroke="#000000" points="257,-843.2 257,-865.2 441,-865.2 441,-843.2 257,-843.2"/>
<image xlink:href="../../images/primaryKeys.png" width="11px" height="12px" preserveAspectRatio="xMinYMin meet" x="262" y="-860.2"/>
<text text-anchor="start" x="286" y="-850.3" font-family="Helvetica,sans-Serif" font-size="11.00" fill="#000000">c_key</text>
<polygon fill="none" stroke="#000000" points="257,-821.2 257,-843.2 441,-843.2 441,-821.2 257,-821.2"/>
<text text-anchor="start" x="286" y="-828.3" font-family="Helvetica,sans-Serif" font-size="11.00" fill="#000000">c_value</text>
<polygon fill="#ffffff" stroke="transparent" points="257,-802.2 257,-821.2 347,-821.2 347,-802.2 257,-802.2"/>
<polygon fill="none" stroke="#000000" points="257,-802.2 257,-821.2 347,-821.2 347,-802.2 257,-802.2"/>
<text text-anchor="start" x="260" y="-808.3" font-family="Helvetica,sans-Serif" font-size="11.00" fill="#000000">&lt; 1</text>
<polygon fill="#ffffff" stroke="transparent" points="347,-802.2 347,-821.2 394,-821.2 394,-802.2 347,-802.2"/>
<polygon fill="none" stroke="#000000" points="347,-802.2 347,-821.2 394,-821.2 394,-802.2 347,-802.2"/>
<text text-anchor="start" x="384.8862" y="-808.3" font-family="Helvetica,sans-Serif" font-size="11.00" fill="#000000"> &#160;</text>
<polygon fill="#ffffff" stroke="transparent" points="394,-802.2 394,-821.2 441,-821.2 441,-802.2 394,-802.2"/>
<polygon fill="none" stroke="#000000" points="394,-802.2 394,-821.2 441,-821.2 441,-802.2 394,-802.2"/>
<text text-anchor="start" x="431.8862" y="-808.3" font-family="Helvetica,sans-Serif" font-size="11.00" fill="#000000"> &#160;</text>
</a>
</g>
</g>
<!-- wms_rec_order_detail&#45;&gt;wms_rec_order -->
<g id="edge1" class="edge">
<title>wms_rec_order_detail:w&#45;&gt;wms_rec_order:e</title>
<path fill="none" stroke="#000000" d="M242.6973,-874.0126C185.7483,-853.9863 263.5931,-703.2 186,-703.2"/>
<polygon fill="#000000" stroke="#000000" points="249.0919,-874.9905 256.4557,-879.7586 253.046,-875.5953 257,-876.2 257,-876.2 257,-876.2 253.046,-875.5953 257.5443,-872.6414 249.0919,-874.9905 249.0919,-874.9905"/>
<ellipse fill="none" stroke="#000000" cx="245.9287" cy="-874.5068" rx="3.2" ry="3.2"/>
</g>
<!-- wms_rec_order_pos_tu -->
<g id="node4" class="node">
<title>wms_rec_order_pos_tu</title>
<g id="a_node4"><a xlink:href="../../tables/wms_rec_order_pos_tu.html" xlink:title="wms_rec_order_pos_tu" target="_top">
<polygon fill="#ffffff" stroke="transparent" points="244,-453.2 244,-781.2 454,-781.2 454,-453.2 244,-453.2"/>
<polygon fill="#f5f5f5" stroke="transparent" points="244,-758.2 244,-781.2 454,-781.2 454,-758.2 244,-758.2"/>
<polygon fill="none" stroke="#000000" points="244,-758.2 244,-781.2 454,-781.2 454,-758.2 244,-758.2"/>
<text text-anchor="start" x="249" y="-766.8" font-family="Helvetica,sans-Serif" font-weight="bold" font-size="11.00" fill="#000000">wms_rec_order_pos_tu</text>
<text text-anchor="start" x="419.0437" y="-766.3" font-family="Helvetica,sans-Serif" font-size="11.00" fill="#000000">[table]</text>
<polygon fill="#ffffff" stroke="transparent" points="244,-736.2 244,-758.2 454,-758.2 454,-736.2 244,-736.2"/>
<polygon fill="none" stroke="#000000" points="244,-736.2 244,-758.2 454,-758.2 454,-736.2 244,-736.2"/>
<text text-anchor="start" x="264" y="-743.3" font-family="Helvetica,sans-Serif" font-size="11.00" fill="#000000">c_pos_no</text>
<polygon fill="none" stroke="#000000" points="244,-714.2 244,-736.2 454,-736.2 454,-714.2 244,-714.2"/>
<text text-anchor="start" x="264" y="-721.3" font-family="Helvetica,sans-Serif" font-size="11.00" fill="#000000">c_created</text>
<polygon fill="none" stroke="#000000" points="244,-692.2 244,-714.2 454,-714.2 454,-692.2 244,-692.2"/>
<text text-anchor="start" x="264" y="-699.3" font-family="Helvetica,sans-Serif" font-size="11.00" fill="#000000">c_latest_due</text>
<polygon fill="none" stroke="#000000" points="244,-670.2 244,-692.2 454,-692.2 454,-670.2 244,-670.2"/>
<text text-anchor="start" x="264" y="-677.3" font-family="Helvetica,sans-Serif" font-size="11.00" fill="#000000">c_ol</text>
<polygon fill="none" stroke="#000000" points="244,-648.2 244,-670.2 454,-670.2 454,-648.2 244,-648.2"/>
<image xlink:href="../../images/primaryKeys.png" width="11px" height="12px" preserveAspectRatio="xMinYMin meet" x="249" y="-665.2"/>
<text text-anchor="start" x="264" y="-655.3" font-family="Helvetica,sans-Serif" font-size="11.00" fill="#000000">c_pk</text>
<polygon fill="none" stroke="#000000" points="244,-626.2 244,-648.2 454,-648.2 454,-626.2 244,-626.2"/>
<text text-anchor="start" x="264" y="-633.3" font-family="Helvetica,sans-Serif" font-size="11.00" fill="#000000">c_updated</text>
<polygon fill="none" stroke="#000000" points="244,-604.2 244,-626.2 454,-626.2 454,-604.2 244,-604.2"/>
<text text-anchor="start" x="264" y="-611.3" font-family="Helvetica,sans-Serif" font-size="11.00" fill="#000000">c_created_by</text>
<polygon fill="none" stroke="#000000" points="244,-582.2 244,-604.2 454,-604.2 454,-582.2 244,-582.2"/>
<text text-anchor="start" x="264" y="-589.3" font-family="Helvetica,sans-Serif" font-size="11.00" fill="#000000">c_expected_receipt_at</text>
<polygon fill="#ffffff" stroke="transparent" points="244,-560.2 244,-582.2 454,-582.2 454,-560.2 244,-560.2"/>
<polygon fill="none" stroke="#000000" points="244,-560.2 244,-582.2 454,-582.2 454,-560.2 244,-560.2"/>
<image xlink:href="../../images/foreignKeys.png" width="11px" height="12px" preserveAspectRatio="xMinYMin meet" x="249" y="-577.2"/>
<text text-anchor="start" x="264" y="-567.3" font-family="Helvetica,sans-Serif" font-size="11.00" fill="#000000">c_order_id</text>
<polygon fill="none" stroke="#000000" points="244,-538.2 244,-560.2 454,-560.2 454,-538.2 244,-538.2"/>
<text text-anchor="start" x="264" y="-545.3" font-family="Helvetica,sans-Serif" font-size="11.00" fill="#000000">c_state</text>
<polygon fill="none" stroke="#000000" points="244,-516.2 244,-538.2 454,-538.2 454,-516.2 244,-516.2"/>
<text text-anchor="start" x="264" y="-523.3" font-family="Helvetica,sans-Serif" font-size="11.00" fill="#000000">c_transport_unit_bk</text>
<polygon fill="none" stroke="#000000" points="244,-494.2 244,-516.2 454,-516.2 454,-494.2 244,-494.2"/>
<text text-anchor="start" x="264" y="-501.3" font-family="Helvetica,sans-Serif" font-size="11.00" fill="#000000">c_transport_unit_type_name</text>
<polygon fill="none" stroke="#000000" points="244,-472.2 244,-494.2 454,-494.2 454,-472.2 244,-472.2"/>
<text text-anchor="start" x="264" y="-479.3" font-family="Helvetica,sans-Serif" font-size="11.00" fill="#000000">c_updated_by</text>
<polygon fill="#ffffff" stroke="transparent" points="244,-453.2 244,-472.2 347,-472.2 347,-453.2 244,-453.2"/>
<polygon fill="none" stroke="#000000" points="244,-453.2 244,-472.2 347,-472.2 347,-453.2 244,-453.2"/>
<text text-anchor="start" x="247" y="-459.3" font-family="Helvetica,sans-Serif" font-size="11.00" fill="#000000">&lt; 1</text>
<polygon fill="#ffffff" stroke="transparent" points="347,-453.2 347,-472.2 400,-472.2 400,-453.2 347,-453.2"/>
<polygon fill="none" stroke="#000000" points="347,-453.2 347,-472.2 400,-472.2 400,-453.2 347,-453.2"/>
<text text-anchor="start" x="390.8862" y="-459.3" font-family="Helvetica,sans-Serif" font-size="11.00" fill="#000000"> &#160;</text>
<polygon fill="#ffffff" stroke="transparent" points="400,-453.2 400,-472.2 454,-472.2 454,-453.2 400,-453.2"/>
<polygon fill="none" stroke="#000000" points="400,-453.2 400,-472.2 454,-472.2 454,-453.2 400,-453.2"/>
<text text-anchor="start" x="444.8862" y="-459.3" font-family="Helvetica,sans-Serif" font-size="11.00" fill="#000000"> &#160;</text>
</a>
</g>
</g>
<!-- wms_rec_order_pos_tu&#45;&gt;wms_rec_order -->
<g id="edge4" class="edge">
<title>wms_rec_order_pos_tu:w&#45;&gt;wms_rec_order:e</title>
<path fill="none" stroke="#000000" d="M229.454,-571.2C214.4776,-571.2 206.1389,-571.2 186,-571.2"/>
<polygon fill="#000000" stroke="#000000" points="236,-571.2001 244,-574.8 240,-571.2 244,-571.2 244,-571.2 244,-571.2 240,-571.2 244,-567.6 236,-571.2001 236,-571.2001"/>
<ellipse fill="none" stroke="#000000" cx="232.8" cy="-571.2001" rx="3.2" ry="3.2"/>
</g>
</g>
</svg>
