<?xml version="1.0" encoding="UTF-8" standalone="no"?>
<!DOCTYPE svg PUBLIC "-//W3C//DTD SVG 1.1//EN"
 "http://www.w3.org/Graphics/SVG/1.1/DTD/svg11.dtd">
<!-- Generated by graphviz version 2.40.1 (20161225.0304)
 -->
<!-- Title: orphans Pages: 1 -->
<svg width="322pt" height="680pt"
 viewBox="0.00 0.00 322.00 680.00" xmlns="http://www.w3.org/2000/svg" xmlns:xlink="http://www.w3.org/1999/xlink">
<g id="graph0" class="graph" transform="scale(1 1) rotate(0) translate(4 676)">
<title>orphans</title>
<polygon fill="#ffffff" stroke="transparent" points="-4,4 -4,-676 318,-676 318,4 -4,4"/>
<!-- wms_rec_order_id -->
<g id="node1" class="node">
<title>wms_rec_order_id</title>
<g id="a_node1"><a xlink:href="../../tables/wms_rec_order_id.html" xlink:title="wms_rec_order_id" target="_top">
<polygon fill="#ffffff" stroke="transparent" points="43,-4 43,-248 271,-248 271,-4 43,-4"/>
<polygon fill="#f5f5f5" stroke="transparent" points="45,-223 45,-246 269,-246 269,-223 45,-223"/>
<polygon fill="none" stroke="#000000" points="45,-223 45,-246 269,-246 269,-223 45,-223"/>
<text text-anchor="start" x="50" y="-231.6" font-family="Helvetica,sans-Serif" font-weight="bold" font-size="11.00" fill="#000000">wms_rec_order_id</text>
<text text-anchor="start" x="234.0437" y="-231.1" font-family="Helvetica,sans-Serif" font-size="11.00" fill="#000000">[table]</text>
<polygon fill="none" stroke="#000000" points="45,-201 45,-223 185,-223 185,-201 45,-201"/>
<text text-anchor="start" x="65" y="-208.1" font-family="Helvetica,sans-Serif" font-size="11.00" fill="#000000">c_created</text>
<polygon fill="none" stroke="#000000" points="185,-201 185,-223 269,-223 269,-201 185,-201"/>
<text text-anchor="start" x="187.8807" y="-208.7" font-family="Helvetica,sans-Serif" font-size="11.00" fill="#000000">timestamp[29,6]</text>
<polygon fill="none" stroke="#000000" points="45,-179 45,-201 185,-201 185,-179 45,-179"/>
<text text-anchor="start" x="65" y="-186.1" font-family="Helvetica,sans-Serif" font-size="11.00" fill="#000000">c_ol</text>
<polygon fill="none" stroke="#000000" points="185,-179 185,-201 269,-201 269,-179 185,-179"/>
<text text-anchor="start" x="188" y="-186.7" font-family="Helvetica,sans-Serif" font-size="11.00" fill="#000000">int8[19]</text>
<polygon fill="none" stroke="#000000" points="45,-157 45,-179 185,-179 185,-157 45,-157"/>
<image xlink:href="../../images/primaryKeys.png" width="11px" height="12px" preserveAspectRatio="xMinYMin meet" x="50" y="-174"/>
<text text-anchor="start" x="65" y="-164.1" font-family="Helvetica,sans-Serif" font-size="11.00" fill="#000000">c_pk</text>
<polygon fill="none" stroke="#000000" points="185,-157 185,-179 269,-179 269,-157 185,-157"/>
<text text-anchor="start" x="188" y="-164.7" font-family="Helvetica,sans-Serif" font-size="11.00" fill="#000000">int8[19]</text>
<polygon fill="none" stroke="#000000" points="45,-135 45,-157 185,-157 185,-135 45,-135"/>
<text text-anchor="start" x="65" y="-142.1" font-family="Helvetica,sans-Serif" font-size="11.00" fill="#000000">c_updated</text>
<polygon fill="none" stroke="#000000" points="185,-135 185,-157 269,-157 269,-135 185,-135"/>
<text text-anchor="start" x="187.8807" y="-142.7" font-family="Helvetica,sans-Serif" font-size="11.00" fill="#000000">timestamp[29,6]</text>
<polygon fill="none" stroke="#000000" points="45,-113 45,-135 185,-135 185,-113 45,-113"/>
<text text-anchor="start" x="65" y="-120.1" font-family="Helvetica,sans-Serif" font-size="11.00" fill="#000000">c_current</text>
<polygon fill="none" stroke="#000000" points="185,-113 185,-135 269,-135 269,-113 185,-113"/>
<text text-anchor="start" x="188" y="-120.7" font-family="Helvetica,sans-Serif" font-size="11.00" fill="#000000">varchar[40]</text>
<polygon fill="none" stroke="#000000" points="45,-91 45,-113 185,-113 185,-91 45,-91"/>
<text text-anchor="start" x="65" y="-98.1" font-family="Helvetica,sans-Serif" font-size="11.00" fill="#000000">c_created_by</text>
<polygon fill="none" stroke="#000000" points="185,-91 185,-113 269,-113 269,-91 185,-91"/>
<text text-anchor="start" x="188" y="-98.7" font-family="Helvetica,sans-Serif" font-size="11.00" fill="#000000">varchar[255]</text>
<polygon fill="#ffffff" stroke="transparent" points="45,-69 45,-91 185,-91 185,-69 45,-69"/>
<polygon fill="none" stroke="#000000" points="45,-69 45,-91 185,-91 185,-69 45,-69"/>
<text text-anchor="start" x="65" y="-76.1" font-family="Helvetica,sans-Serif" font-size="11.00" fill="#000000">c_name</text>
<polygon fill="none" stroke="#000000" points="185,-69 185,-91 269,-91 269,-69 185,-69"/>
<text text-anchor="start" x="188" y="-76.7" font-family="Helvetica,sans-Serif" font-size="11.00" fill="#000000">varchar[255]</text>
<polygon fill="none" stroke="#000000" points="45,-47 45,-69 185,-69 185,-47 45,-47"/>
<text text-anchor="start" x="65" y="-54.1" font-family="Helvetica,sans-Serif" font-size="11.00" fill="#000000">c_prefix</text>
<polygon fill="none" stroke="#000000" points="185,-47 185,-69 269,-69 269,-47 185,-47"/>
<text text-anchor="start" x="188" y="-54.7" font-family="Helvetica,sans-Serif" font-size="11.00" fill="#000000">varchar[255]</text>
<polygon fill="none" stroke="#000000" points="45,-25 45,-47 185,-47 185,-25 45,-25"/>
<text text-anchor="start" x="65" y="-32.1" font-family="Helvetica,sans-Serif" font-size="11.00" fill="#000000">c_updated_by</text>
<polygon fill="none" stroke="#000000" points="185,-25 185,-47 269,-47 269,-25 185,-25"/>
<text text-anchor="start" x="188" y="-32.7" font-family="Helvetica,sans-Serif" font-size="11.00" fill="#000000">varchar[255]</text>
<polygon fill="#ffffff" stroke="transparent" points="45,-6 45,-25 119,-25 119,-6 45,-6"/>
<polygon fill="none" stroke="#000000" points="45,-6 45,-25 119,-25 119,-6 45,-6"/>
<text text-anchor="start" x="48" y="-12.1" font-family="Helvetica,sans-Serif" font-size="11.00" fill="#000000">&lt; 0</text>
<polygon fill="#ffffff" stroke="transparent" points="119,-6 119,-25 185,-25 185,-6 119,-6"/>
<polygon fill="none" stroke="#000000" points="119,-6 119,-25 185,-25 185,-6 119,-6"/>
<text text-anchor="start" x="175.8862" y="-12.1" font-family="Helvetica,sans-Serif" font-size="11.00" fill="#000000"> &#160;</text>
<polygon fill="#ffffff" stroke="transparent" points="185,-6 185,-25 269,-25 269,-6 185,-6"/>
<polygon fill="none" stroke="#000000" points="185,-6 185,-25 269,-25 269,-6 185,-6"/>
<text text-anchor="start" x="250.4053" y="-12.1" font-family="Helvetica,sans-Serif" font-size="11.00" fill="#000000">0 &gt;</text>
<polygon fill="none" stroke="#000000" stroke-width="2" points="44,-5 44,-247 270,-247 270,-5 44,-5"/>
</a>
</g>
</g>
<!-- wms_rec_order_position_detail -->
<g id="node2" class="node">
<title>wms_rec_order_position_detail</title>
<g id="a_node2"><a xlink:href="../../tables/wms_rec_order_position_detail.html" xlink:title="wms_rec_order_position_detail" target="_top">
<polygon fill="#ffffff" stroke="transparent" points="8,-269 8,-381 306,-381 306,-269 8,-269"/>
<polygon fill="#f5f5f5" stroke="transparent" points="10,-356 10,-379 304,-379 304,-356 10,-356"/>
<polygon fill="none" stroke="#000000" points="10,-356 10,-379 304,-379 304,-356 10,-356"/>
<text text-anchor="start" x="15" y="-364.6" font-family="Helvetica,sans-Serif" font-weight="bold" font-size="11.00" fill="#000000">wms_rec_order_position_detail</text>
<text text-anchor="start" x="269.0437" y="-364.1" font-family="Helvetica,sans-Serif" font-size="11.00" fill="#000000">[table]</text>
<polygon fill="none" stroke="#000000" points="10,-334 10,-356 237,-356 237,-334 10,-334"/>
<image xlink:href="../../images/primaryKeys.png" width="11px" height="12px" preserveAspectRatio="xMinYMin meet" x="15" y="-351"/>
<text text-anchor="start" x="30" y="-341.1" font-family="Helvetica,sans-Serif" font-size="11.00" fill="#000000">c_order_pos_pk</text>
<polygon fill="none" stroke="#000000" points="237,-334 237,-356 304,-356 304,-334 237,-334"/>
<text text-anchor="start" x="240" y="-341.7" font-family="Helvetica,sans-Serif" font-size="11.00" fill="#000000">int8[19]</text>
<polygon fill="none" stroke="#000000" points="10,-312 10,-334 237,-334 237,-312 10,-312"/>
<image xlink:href="../../images/primaryKeys.png" width="11px" height="12px" preserveAspectRatio="xMinYMin meet" x="15" y="-329"/>
<text text-anchor="start" x="30" y="-319.1" font-family="Helvetica,sans-Serif" font-size="11.00" fill="#000000">c_key</text>
<polygon fill="none" stroke="#000000" points="237,-312 237,-334 304,-334 304,-312 237,-312"/>
<text text-anchor="start" x="239.9365" y="-319.7" font-family="Helvetica,sans-Serif" font-size="11.00" fill="#000000">varchar[255]</text>
<polygon fill="none" stroke="#000000" points="10,-290 10,-312 237,-312 237,-290 10,-290"/>
<text text-anchor="start" x="30" y="-297.1" font-family="Helvetica,sans-Serif" font-size="11.00" fill="#000000">c_value</text>
<polygon fill="none" stroke="#000000" points="237,-290 237,-312 304,-312 304,-290 237,-290"/>
<text text-anchor="start" x="239.9365" y="-297.7" font-family="Helvetica,sans-Serif" font-size="11.00" fill="#000000">varchar[255]</text>
<polygon fill="#ffffff" stroke="transparent" points="10,-271 10,-290 128,-290 128,-271 10,-271"/>
<polygon fill="none" stroke="#000000" points="10,-271 10,-290 128,-290 128,-271 10,-271"/>
<text text-anchor="start" x="13" y="-277.1" font-family="Helvetica,sans-Serif" font-size="11.00" fill="#000000">&lt; 0</text>
<polygon fill="#ffffff" stroke="transparent" points="128,-271 128,-290 237,-290 237,-271 128,-271"/>
<polygon fill="none" stroke="#000000" points="128,-271 128,-290 237,-290 237,-271 128,-271"/>
<text text-anchor="start" x="227.8862" y="-277.1" font-family="Helvetica,sans-Serif" font-size="11.00" fill="#000000"> &#160;</text>
<polygon fill="#ffffff" stroke="transparent" points="237,-271 237,-290 304,-290 304,-271 237,-271"/>
<polygon fill="none" stroke="#000000" points="237,-271 237,-290 304,-290 304,-271 237,-271"/>
<text text-anchor="start" x="285.4053" y="-277.1" font-family="Helvetica,sans-Serif" font-size="11.00" fill="#000000">0 &gt;</text>
<polygon fill="none" stroke="#000000" stroke-width="2" points="9,-270 9,-380 305,-380 305,-270 9,-270"/>
</a>
</g>
</g>
<!-- wms_rec_transport_unit -->
<g id="node3" class="node">
<title>wms_rec_transport_unit</title>
<g id="a_node3"><a xlink:href="../../tables/wms_rec_transport_unit.html" xlink:title="wms_rec_transport_unit" target="_top">
<polygon fill="#ffffff" stroke="transparent" points="22.5,-402 22.5,-668 291.5,-668 291.5,-402 22.5,-402"/>
<polygon fill="#f5f5f5" stroke="transparent" points="25,-643 25,-666 290,-666 290,-643 25,-643"/>
<polygon fill="none" stroke="#000000" points="25,-643 25,-666 290,-666 290,-643 25,-643"/>
<text text-anchor="start" x="30" y="-651.6" font-family="Helvetica,sans-Serif" font-weight="bold" font-size="11.00" fill="#000000">wms_rec_transport_unit</text>
<text text-anchor="start" x="255.0437" y="-651.1" font-family="Helvetica,sans-Serif" font-size="11.00" fill="#000000">[table]</text>
<polygon fill="none" stroke="#000000" points="25,-621 25,-643 206,-643 206,-621 25,-621"/>
<text text-anchor="start" x="45" y="-628.1" font-family="Helvetica,sans-Serif" font-size="11.00" fill="#000000">c_created</text>
<polygon fill="none" stroke="#000000" points="206,-621 206,-643 290,-643 290,-621 206,-621"/>
<text text-anchor="start" x="208.8807" y="-628.7" font-family="Helvetica,sans-Serif" font-size="11.00" fill="#000000">timestamp[29,6]</text>
<polygon fill="none" stroke="#000000" points="25,-599 25,-621 206,-621 206,-599 25,-599"/>
<text text-anchor="start" x="45" y="-606.1" font-family="Helvetica,sans-Serif" font-size="11.00" fill="#000000">c_ol</text>
<polygon fill="none" stroke="#000000" points="206,-599 206,-621 290,-621 290,-599 206,-599"/>
<text text-anchor="start" x="209" y="-606.7" font-family="Helvetica,sans-Serif" font-size="11.00" fill="#000000">int8[19]</text>
<polygon fill="none" stroke="#000000" points="25,-577 25,-599 206,-599 206,-577 25,-577"/>
<image xlink:href="../../images/primaryKeys.png" width="11px" height="12px" preserveAspectRatio="xMinYMin meet" x="30" y="-594"/>
<text text-anchor="start" x="45" y="-584.1" font-family="Helvetica,sans-Serif" font-size="11.00" fill="#000000">c_pk</text>
<polygon fill="none" stroke="#000000" points="206,-577 206,-599 290,-599 290,-577 206,-577"/>
<text text-anchor="start" x="209" y="-584.7" font-family="Helvetica,sans-Serif" font-size="11.00" fill="#000000">int8[19]</text>
<polygon fill="none" stroke="#000000" points="25,-555 25,-577 206,-577 206,-555 25,-555"/>
<text text-anchor="start" x="45" y="-562.1" font-family="Helvetica,sans-Serif" font-size="11.00" fill="#000000">c_updated</text>
<polygon fill="none" stroke="#000000" points="206,-555 206,-577 290,-577 290,-555 206,-555"/>
<text text-anchor="start" x="208.8807" y="-562.7" font-family="Helvetica,sans-Serif" font-size="11.00" fill="#000000">timestamp[29,6]</text>
<polygon fill="none" stroke="#000000" points="25,-533 25,-555 206,-555 206,-533 25,-533"/>
<text text-anchor="start" x="45" y="-540.1" font-family="Helvetica,sans-Serif" font-size="11.00" fill="#000000">c_actual_location</text>
<polygon fill="none" stroke="#000000" points="206,-533 206,-555 290,-555 290,-533 206,-533"/>
<text text-anchor="start" x="209" y="-540.7" font-family="Helvetica,sans-Serif" font-size="11.00" fill="#000000">varchar[255]</text>
<polygon fill="#ffffff" stroke="transparent" points="25,-511 25,-533 206,-533 206,-511 25,-511"/>
<polygon fill="none" stroke="#000000" points="25,-511 25,-533 206,-533 206,-511 25,-511"/>
<text text-anchor="start" x="45" y="-518.1" font-family="Helvetica,sans-Serif" font-size="11.00" fill="#000000">c_barcode</text>
<polygon fill="none" stroke="#000000" points="206,-511 206,-533 290,-533 290,-511 206,-511"/>
<text text-anchor="start" x="209" y="-518.7" font-family="Helvetica,sans-Serif" font-size="11.00" fill="#000000">varchar[255]</text>
<polygon fill="none" stroke="#000000" points="25,-489 25,-511 206,-511 206,-489 25,-489"/>
<text text-anchor="start" x="45" y="-496.1" font-family="Helvetica,sans-Serif" font-size="11.00" fill="#000000">c_created_by</text>
<polygon fill="none" stroke="#000000" points="206,-489 206,-511 290,-511 290,-489 206,-489"/>
<text text-anchor="start" x="209" y="-496.7" font-family="Helvetica,sans-Serif" font-size="11.00" fill="#000000">varchar[255]</text>
<polygon fill="#ffffff" stroke="transparent" points="25,-467 25,-489 206,-489 206,-467 25,-467"/>
<polygon fill="none" stroke="#000000" points="25,-467 25,-489 206,-489 206,-467 25,-467"/>
<text text-anchor="start" x="45" y="-474.1" font-family="Helvetica,sans-Serif" font-size="11.00" fill="#000000">c_foreign_pid</text>
<polygon fill="none" stroke="#000000" points="206,-467 206,-489 290,-489 290,-467 206,-467"/>
<text text-anchor="start" x="209" y="-474.7" font-family="Helvetica,sans-Serif" font-size="11.00" fill="#000000">varchar[255]</text>
<polygon fill="#ffffff" stroke="transparent" points="25,-445 25,-467 206,-467 206,-445 25,-445"/>
<polygon fill="none" stroke="#000000" points="25,-445 25,-467 206,-467 206,-445 25,-445"/>
<text text-anchor="start" x="45" y="-452.1" font-family="Helvetica,sans-Serif" font-size="11.00" fill="#000000">c_pid</text>
<polygon fill="none" stroke="#000000" points="206,-445 206,-467 290,-467 290,-445 206,-445"/>
<text text-anchor="start" x="209" y="-452.7" font-family="Helvetica,sans-Serif" font-size="11.00" fill="#000000">varchar[255]</text>
<polygon fill="none" stroke="#000000" points="25,-423 25,-445 206,-445 206,-423 25,-423"/>
<text text-anchor="start" x="45" y="-430.1" font-family="Helvetica,sans-Serif" font-size="11.00" fill="#000000">c_updated_by</text>
<polygon fill="none" stroke="#000000" points="206,-423 206,-445 290,-445 290,-423 206,-423"/>
<text text-anchor="start" x="209" y="-430.7" font-family="Helvetica,sans-Serif" font-size="11.00" fill="#000000">varchar[255]</text>
<polygon fill="#ffffff" stroke="transparent" points="25,-404 25,-423 120,-423 120,-404 25,-404"/>
<polygon fill="none" stroke="#000000" points="25,-404 25,-423 120,-423 120,-404 25,-404"/>
<text text-anchor="start" x="28" y="-410.1" font-family="Helvetica,sans-Serif" font-size="11.00" fill="#000000">&lt; 0</text>
<polygon fill="#ffffff" stroke="transparent" points="120,-404 120,-423 206,-423 206,-404 120,-404"/>
<polygon fill="none" stroke="#000000" points="120,-404 120,-423 206,-423 206,-404 120,-404"/>
<text text-anchor="start" x="196.8862" y="-410.1" font-family="Helvetica,sans-Serif" font-size="11.00" fill="#000000"> &#160;</text>
<polygon fill="#ffffff" stroke="transparent" points="206,-404 206,-423 290,-423 290,-404 206,-404"/>
<polygon fill="none" stroke="#000000" points="206,-404 206,-423 290,-423 290,-404 206,-404"/>
<text text-anchor="start" x="271.4053" y="-410.1" font-family="Helvetica,sans-Serif" font-size="11.00" fill="#000000">0 &gt;</text>
<polygon fill="none" stroke="#000000" stroke-width="2" points="23.5,-403 23.5,-667 290.5,-667 290.5,-403 23.5,-403"/>
</a>
</g>
</g>
</g>
</svg>
