<?xml version="1.0" encoding="UTF-8" standalone="no"?>
<!DOCTYPE svg PUBLIC "-//W3C//DTD SVG 1.1//EN"
 "http://www.w3.org/Graphics/SVG/1.1/DTD/svg11.dtd">
<!-- Generated by graphviz version 2.40.1 (20161225.0304)
 -->
<!-- Title: oneDegreeRelationshipsDiagram Pages: 1 -->
<svg width="557pt" height="484pt"
 viewBox="0.00 0.00 557.00 483.70" xmlns="http://www.w3.org/2000/svg" xmlns:xlink="http://www.w3.org/1999/xlink">
<g id="graph0" class="graph" transform="scale(1 1) rotate(0) translate(4 479.7)">
<title>oneDegreeRelationshipsDiagram</title>
<polygon fill="#ffffff" stroke="transparent" points="-4,4 -4,-479.7 553,-479.7 553,4 -4,4"/>
<text text-anchor="middle" x="72.4936" y="-7.3" font-family="Helvetica,sans-Serif" font-size="11.00" fill="#000000">Generated by SchemaSpy</text>
<!-- wms_rec_order_pos_product -->
<g id="node1" class="node">
<title>wms_rec_order_pos_product</title>
<g id="a_node1"><a xlink:href="../../tables/wms_rec_order_pos_product.html" xlink:title="wms_rec_order_pos_product" target="_top">
<polygon fill="#ffffff" stroke="transparent" points="235,-73.7 235,-471.7 541,-471.7 541,-73.7 235,-73.7"/>
<polygon fill="#f5f5f5" stroke="transparent" points="237,-446.7 237,-469.7 539,-469.7 539,-446.7 237,-446.7"/>
<polygon fill="none" stroke="#000000" points="237,-446.7 237,-469.7 539,-469.7 539,-446.7 237,-446.7"/>
<text text-anchor="start" x="242" y="-455.3" font-family="Helvetica,sans-Serif" font-weight="bold" font-size="11.00" fill="#000000">wms_rec_order_pos_product</text>
<text text-anchor="start" x="504.0437" y="-454.8" font-family="Helvetica,sans-Serif" font-size="11.00" fill="#000000">[table]</text>
<polygon fill="#ffffff" stroke="transparent" points="237,-424.7 237,-446.7 447,-446.7 447,-424.7 237,-424.7"/>
<polygon fill="none" stroke="#000000" points="237,-424.7 237,-446.7 447,-446.7 447,-424.7 237,-424.7"/>
<text text-anchor="start" x="257" y="-431.8" font-family="Helvetica,sans-Serif" font-size="11.00" fill="#000000">c_pos_no</text>
<polygon fill="none" stroke="#000000" points="447,-424.7 447,-446.7 539,-446.7 539,-424.7 447,-424.7"/>
<text text-anchor="start" x="450" y="-432.4" font-family="Helvetica,sans-Serif" font-size="11.00" fill="#000000">int4[10]</text>
<polygon fill="none" stroke="#000000" points="237,-402.7 237,-424.7 447,-424.7 447,-402.7 237,-402.7"/>
<text text-anchor="start" x="257" y="-409.8" font-family="Helvetica,sans-Serif" font-size="11.00" fill="#000000">c_created</text>
<polygon fill="none" stroke="#000000" points="447,-402.7 447,-424.7 539,-424.7 539,-402.7 447,-402.7"/>
<text text-anchor="start" x="450" y="-410.4" font-family="Helvetica,sans-Serif" font-size="11.00" fill="#000000">timestamp[29,6]</text>
<polygon fill="none" stroke="#000000" points="237,-380.7 237,-402.7 447,-402.7 447,-380.7 237,-380.7"/>
<text text-anchor="start" x="257" y="-387.8" font-family="Helvetica,sans-Serif" font-size="11.00" fill="#000000">c_latest_due</text>
<polygon fill="none" stroke="#000000" points="447,-380.7 447,-402.7 539,-402.7 539,-380.7 447,-380.7"/>
<text text-anchor="start" x="449.6023" y="-388.4" font-family="Helvetica,sans-Serif" font-size="11.00" fill="#000000">timestamptz[35,6]</text>
<polygon fill="none" stroke="#000000" points="237,-358.7 237,-380.7 447,-380.7 447,-358.7 237,-358.7"/>
<text text-anchor="start" x="257" y="-365.8" font-family="Helvetica,sans-Serif" font-size="11.00" fill="#000000">c_ol</text>
<polygon fill="none" stroke="#000000" points="447,-358.7 447,-380.7 539,-380.7 539,-358.7 447,-358.7"/>
<text text-anchor="start" x="450" y="-366.4" font-family="Helvetica,sans-Serif" font-size="11.00" fill="#000000">int8[19]</text>
<polygon fill="none" stroke="#000000" points="237,-336.7 237,-358.7 447,-358.7 447,-336.7 237,-336.7"/>
<image xlink:href="../../images/primaryKeys.png" width="11px" height="12px" preserveAspectRatio="xMinYMin meet" x="242" y="-353.7"/>
<text text-anchor="start" x="257" y="-343.8" font-family="Helvetica,sans-Serif" font-size="11.00" fill="#000000">c_pk</text>
<polygon fill="none" stroke="#000000" points="447,-336.7 447,-358.7 539,-358.7 539,-336.7 447,-336.7"/>
<text text-anchor="start" x="450" y="-344.4" font-family="Helvetica,sans-Serif" font-size="11.00" fill="#000000">int8[19]</text>
<polygon fill="none" stroke="#000000" points="237,-314.7 237,-336.7 447,-336.7 447,-314.7 237,-314.7"/>
<text text-anchor="start" x="257" y="-321.8" font-family="Helvetica,sans-Serif" font-size="11.00" fill="#000000">c_updated</text>
<polygon fill="none" stroke="#000000" points="447,-314.7 447,-336.7 539,-336.7 539,-314.7 447,-314.7"/>
<text text-anchor="start" x="450" y="-322.4" font-family="Helvetica,sans-Serif" font-size="11.00" fill="#000000">timestamp[29,6]</text>
<polygon fill="none" stroke="#000000" points="237,-292.7 237,-314.7 447,-314.7 447,-292.7 237,-292.7"/>
<text text-anchor="start" x="257" y="-299.8" font-family="Helvetica,sans-Serif" font-size="11.00" fill="#000000">c_qty_expected</text>
<polygon fill="none" stroke="#000000" points="447,-292.7 447,-314.7 539,-314.7 539,-292.7 447,-292.7"/>
<text text-anchor="start" x="450" y="-300.4" font-family="Helvetica,sans-Serif" font-size="11.00" fill="#000000">varchar[16]</text>
<polygon fill="none" stroke="#000000" points="237,-270.7 237,-292.7 447,-292.7 447,-270.7 237,-270.7"/>
<text text-anchor="start" x="257" y="-277.8" font-family="Helvetica,sans-Serif" font-size="11.00" fill="#000000">c_qty_received</text>
<polygon fill="none" stroke="#000000" points="447,-270.7 447,-292.7 539,-292.7 539,-270.7 447,-270.7"/>
<text text-anchor="start" x="450" y="-278.4" font-family="Helvetica,sans-Serif" font-size="11.00" fill="#000000">varchar[16]</text>
<polygon fill="none" stroke="#000000" points="237,-248.7 237,-270.7 447,-270.7 447,-248.7 237,-248.7"/>
<text text-anchor="start" x="257" y="-255.8" font-family="Helvetica,sans-Serif" font-size="11.00" fill="#000000">c_created_by</text>
<polygon fill="none" stroke="#000000" points="447,-248.7 447,-270.7 539,-270.7 539,-248.7 447,-248.7"/>
<text text-anchor="start" x="450" y="-256.4" font-family="Helvetica,sans-Serif" font-size="11.00" fill="#000000">varchar[255]</text>
<polygon fill="none" stroke="#000000" points="237,-226.7 237,-248.7 447,-248.7 447,-226.7 237,-226.7"/>
<text text-anchor="start" x="257" y="-233.8" font-family="Helvetica,sans-Serif" font-size="11.00" fill="#000000">c_expected_receipt_at</text>
<polygon fill="none" stroke="#000000" points="447,-226.7 447,-248.7 539,-248.7 539,-226.7 447,-226.7"/>
<text text-anchor="start" x="450" y="-234.4" font-family="Helvetica,sans-Serif" font-size="11.00" fill="#000000">varchar[255]</text>
<polygon fill="#ffffff" stroke="transparent" points="237,-204.7 237,-226.7 447,-226.7 447,-204.7 237,-204.7"/>
<polygon fill="none" stroke="#000000" points="237,-204.7 237,-226.7 447,-226.7 447,-204.7 237,-204.7"/>
<image xlink:href="../../images/foreignKeys.png" width="11px" height="12px" preserveAspectRatio="xMinYMin meet" x="242" y="-221.7"/>
<text text-anchor="start" x="257" y="-211.8" font-family="Helvetica,sans-Serif" font-size="11.00" fill="#000000">c_order_id</text>
<polygon fill="none" stroke="#000000" points="447,-204.7 447,-226.7 539,-226.7 539,-204.7 447,-204.7"/>
<text text-anchor="start" x="450" y="-212.4" font-family="Helvetica,sans-Serif" font-size="11.00" fill="#000000">varchar[255]</text>
<polygon fill="none" stroke="#000000" points="237,-182.7 237,-204.7 447,-204.7 447,-182.7 237,-182.7"/>
<text text-anchor="start" x="257" y="-189.8" font-family="Helvetica,sans-Serif" font-size="11.00" fill="#000000">c_qty_expected_type</text>
<polygon fill="none" stroke="#000000" points="447,-182.7 447,-204.7 539,-204.7 539,-182.7 447,-182.7"/>
<text text-anchor="start" x="450" y="-190.4" font-family="Helvetica,sans-Serif" font-size="11.00" fill="#000000">varchar[255]</text>
<polygon fill="none" stroke="#000000" points="237,-160.7 237,-182.7 447,-182.7 447,-160.7 237,-160.7"/>
<text text-anchor="start" x="257" y="-167.8" font-family="Helvetica,sans-Serif" font-size="11.00" fill="#000000">c_qty_received_type</text>
<polygon fill="none" stroke="#000000" points="447,-160.7 447,-182.7 539,-182.7 539,-160.7 447,-160.7"/>
<text text-anchor="start" x="450" y="-168.4" font-family="Helvetica,sans-Serif" font-size="11.00" fill="#000000">varchar[255]</text>
<polygon fill="none" stroke="#000000" points="237,-138.7 237,-160.7 447,-160.7 447,-138.7 237,-138.7"/>
<image xlink:href="../../images/foreignKeys.png" width="11px" height="12px" preserveAspectRatio="xMinYMin meet" x="242" y="-155.7"/>
<text text-anchor="start" x="257" y="-145.8" font-family="Helvetica,sans-Serif" font-size="11.00" fill="#000000">c_sku</text>
<polygon fill="none" stroke="#000000" points="447,-138.7 447,-160.7 539,-160.7 539,-138.7 447,-138.7"/>
<text text-anchor="start" x="450" y="-146.4" font-family="Helvetica,sans-Serif" font-size="11.00" fill="#000000">varchar[255]</text>
<polygon fill="none" stroke="#000000" points="237,-116.7 237,-138.7 447,-138.7 447,-116.7 237,-116.7"/>
<text text-anchor="start" x="257" y="-123.8" font-family="Helvetica,sans-Serif" font-size="11.00" fill="#000000">c_state</text>
<polygon fill="none" stroke="#000000" points="447,-116.7 447,-138.7 539,-138.7 539,-116.7 447,-116.7"/>
<text text-anchor="start" x="450" y="-124.4" font-family="Helvetica,sans-Serif" font-size="11.00" fill="#000000">varchar[255]</text>
<polygon fill="none" stroke="#000000" points="237,-94.7 237,-116.7 447,-116.7 447,-94.7 237,-94.7"/>
<text text-anchor="start" x="257" y="-101.8" font-family="Helvetica,sans-Serif" font-size="11.00" fill="#000000">c_updated_by</text>
<polygon fill="none" stroke="#000000" points="447,-94.7 447,-116.7 539,-116.7 539,-94.7 447,-94.7"/>
<text text-anchor="start" x="450" y="-102.4" font-family="Helvetica,sans-Serif" font-size="11.00" fill="#000000">varchar[255]</text>
<polygon fill="#ffffff" stroke="transparent" points="237,-75.7 237,-94.7 346,-94.7 346,-75.7 237,-75.7"/>
<polygon fill="none" stroke="#000000" points="237,-75.7 237,-94.7 346,-94.7 346,-75.7 237,-75.7"/>
<text text-anchor="start" x="240" y="-81.8" font-family="Helvetica,sans-Serif" font-size="11.00" fill="#000000">&lt; 2</text>
<polygon fill="#ffffff" stroke="transparent" points="346,-75.7 346,-94.7 447,-94.7 447,-75.7 346,-75.7"/>
<polygon fill="none" stroke="#000000" points="346,-75.7 346,-94.7 447,-94.7 447,-75.7 346,-75.7"/>
<text text-anchor="start" x="437.8862" y="-81.8" font-family="Helvetica,sans-Serif" font-size="11.00" fill="#000000"> &#160;</text>
<polygon fill="#ffffff" stroke="transparent" points="447,-75.7 447,-94.7 539,-94.7 539,-75.7 447,-75.7"/>
<polygon fill="none" stroke="#000000" points="447,-75.7 447,-94.7 539,-94.7 539,-75.7 447,-75.7"/>
<text text-anchor="start" x="520.4053" y="-81.8" font-family="Helvetica,sans-Serif" font-size="11.00" fill="#000000">0 &gt;</text>
<polygon fill="none" stroke="#000000" stroke-width="2" points="236,-74.7 236,-470.7 540,-470.7 540,-74.7 236,-74.7"/>
</a>
</g>
</g>
<!-- wms_rec_order -->
<g id="node2" class="node">
<title>wms_rec_order</title>
<g id="a_node2"><a xlink:href="../../tables/wms_rec_order.html" xlink:title="wms_rec_order" target="_top">
<polygon fill="#ffffff" stroke="transparent" points="8,-208.2 8,-335.2 186,-335.2 186,-208.2 8,-208.2"/>
<polygon fill="#f5f5f5" stroke="transparent" points="8,-311.7 8,-334.7 186,-334.7 186,-311.7 8,-311.7"/>
<polygon fill="none" stroke="#000000" points="8,-311.7 8,-334.7 186,-334.7 186,-311.7 8,-311.7"/>
<text text-anchor="start" x="13" y="-320.3" font-family="Helvetica,sans-Serif" font-weight="bold" font-size="11.00" fill="#000000">wms_rec_order</text>
<text text-anchor="start" x="151.0437" y="-319.8" font-family="Helvetica,sans-Serif" font-size="11.00" fill="#000000">[table]</text>
<polygon fill="none" stroke="#000000" points="8,-289.7 8,-311.7 186,-311.7 186,-289.7 8,-289.7"/>
<image xlink:href="../../images/primaryKeys.png" width="11px" height="12px" preserveAspectRatio="xMinYMin meet" x="13" y="-306.7"/>
<text text-anchor="start" x="28" y="-296.8" font-family="Helvetica,sans-Serif" font-size="11.00" fill="#000000">c_pk</text>
<polygon fill="#ffffff" stroke="transparent" points="8,-267.7 8,-289.7 186,-289.7 186,-267.7 8,-267.7"/>
<polygon fill="none" stroke="#000000" points="8,-267.7 8,-289.7 186,-289.7 186,-267.7 8,-267.7"/>
<text text-anchor="start" x="28" y="-274.8" font-family="Helvetica,sans-Serif" font-size="11.00" fill="#000000">c_order_id</text>
<polygon fill="#ffffff" stroke="transparent" points="8,-245.7 8,-267.7 186,-267.7 186,-245.7 8,-245.7"/>
<polygon fill="none" stroke="#000000" points="8,-245.7 8,-267.7 186,-267.7 186,-245.7 8,-245.7"/>
<text text-anchor="start" x="28" y="-252.8" font-family="Helvetica,sans-Serif" font-size="11.00" fill="#000000">c_pid</text>
<polygon fill="none" stroke="#000000" points="8,-226.7 8,-245.7 186,-245.7 186,-226.7 8,-226.7"/>
<text text-anchor="start" x="11" y="-232.8" font-family="Helvetica,sans-Serif" font-size="11.00" fill="#000000">...</text>
<polygon fill="#ffffff" stroke="transparent" points="8,-207.7 8,-226.7 86,-226.7 86,-207.7 8,-207.7"/>
<polygon fill="none" stroke="#000000" points="8,-207.7 8,-226.7 86,-226.7 86,-207.7 8,-207.7"/>
<text text-anchor="start" x="11" y="-213.8" font-family="Helvetica,sans-Serif" font-size="11.00" fill="#000000"> &#160;</text>
<polygon fill="#ffffff" stroke="transparent" points="86,-207.7 86,-226.7 131,-226.7 131,-207.7 86,-207.7"/>
<polygon fill="none" stroke="#000000" points="86,-207.7 86,-226.7 131,-226.7 131,-207.7 86,-207.7"/>
<text text-anchor="start" x="121.8862" y="-213.8" font-family="Helvetica,sans-Serif" font-size="11.00" fill="#000000"> &#160;</text>
<polygon fill="#ffffff" stroke="transparent" points="131,-207.7 131,-226.7 186,-226.7 186,-207.7 131,-207.7"/>
<polygon fill="none" stroke="#000000" points="131,-207.7 131,-226.7 186,-226.7 186,-207.7 131,-207.7"/>
<text text-anchor="start" x="167.4053" y="-213.8" font-family="Helvetica,sans-Serif" font-size="11.00" fill="#000000">3 &gt;</text>
</a>
</g>
</g>
<!-- wms_rec_order_pos_product&#45;&gt;wms_rec_order -->
<g id="edge1" class="edge">
<title>wms_rec_order_pos_product:w&#45;&gt;wms_rec_order:e</title>
<path fill="none" stroke="#000000" d="M222.9033,-220.6435C206.525,-235.4952 215.8329,-278.7 186,-278.7"/>
<polygon fill="#000000" stroke="#000000" points="229.4507,-218.3474 238.1913,-219.0972 233.2254,-217.0237 237,-215.7 237,-215.7 237,-215.7 233.2254,-217.0237 235.8087,-212.3028 229.4507,-218.3474 229.4507,-218.3474"/>
<ellipse fill="none" stroke="#000000" cx="226.431" cy="-219.4064" rx="3.2" ry="3.2"/>
</g>
<!-- wms_rec_product -->
<g id="node3" class="node">
<title>wms_rec_product</title>
<g id="a_node3"><a xlink:href="../../tables/wms_rec_product.html" xlink:title="wms_rec_product" target="_top">
<polygon fill="#ffffff" stroke="transparent" points="9,-38.2 9,-187.2 185,-187.2 185,-38.2 9,-38.2"/>
<polygon fill="#f5f5f5" stroke="transparent" points="9,-163.7 9,-186.7 185,-186.7 185,-163.7 9,-163.7"/>
<polygon fill="none" stroke="#000000" points="9,-163.7 9,-186.7 185,-186.7 185,-163.7 9,-163.7"/>
<text text-anchor="start" x="14" y="-172.3" font-family="Helvetica,sans-Serif" font-weight="bold" font-size="11.00" fill="#000000">wms_rec_product</text>
<text text-anchor="start" x="150.0437" y="-171.8" font-family="Helvetica,sans-Serif" font-size="11.00" fill="#000000">[table]</text>
<polygon fill="none" stroke="#000000" points="9,-141.7 9,-163.7 185,-163.7 185,-141.7 9,-141.7"/>
<image xlink:href="../../images/primaryKeys.png" width="11px" height="12px" preserveAspectRatio="xMinYMin meet" x="14" y="-158.7"/>
<text text-anchor="start" x="29" y="-148.8" font-family="Helvetica,sans-Serif" font-size="11.00" fill="#000000">c_pk</text>
<polygon fill="#ffffff" stroke="transparent" points="9,-119.7 9,-141.7 185,-141.7 185,-119.7 9,-119.7"/>
<polygon fill="none" stroke="#000000" points="9,-119.7 9,-141.7 185,-141.7 185,-119.7 9,-119.7"/>
<text text-anchor="start" x="29" y="-126.8" font-family="Helvetica,sans-Serif" font-size="11.00" fill="#000000">c_foreign_pid</text>
<polygon fill="#ffffff" stroke="transparent" points="9,-97.7 9,-119.7 185,-119.7 185,-97.7 9,-97.7"/>
<polygon fill="none" stroke="#000000" points="9,-97.7 9,-119.7 185,-119.7 185,-97.7 9,-97.7"/>
<text text-anchor="start" x="29" y="-104.8" font-family="Helvetica,sans-Serif" font-size="11.00" fill="#000000">c_pid</text>
<polygon fill="#ffffff" stroke="transparent" points="9,-75.7 9,-97.7 185,-97.7 185,-75.7 9,-75.7"/>
<polygon fill="none" stroke="#000000" points="9,-75.7 9,-97.7 185,-97.7 185,-75.7 9,-75.7"/>
<text text-anchor="start" x="29" y="-82.8" font-family="Helvetica,sans-Serif" font-size="11.00" fill="#000000">c_sku</text>
<polygon fill="none" stroke="#000000" points="9,-56.7 9,-75.7 185,-75.7 185,-56.7 9,-56.7"/>
<text text-anchor="start" x="12" y="-62.8" font-family="Helvetica,sans-Serif" font-size="11.00" fill="#000000">...</text>
<polygon fill="#ffffff" stroke="transparent" points="9,-37.7 9,-56.7 86,-56.7 86,-37.7 9,-37.7"/>
<polygon fill="none" stroke="#000000" points="9,-37.7 9,-56.7 86,-56.7 86,-37.7 9,-37.7"/>
<text text-anchor="start" x="12" y="-43.8" font-family="Helvetica,sans-Serif" font-size="11.00" fill="#000000"> &#160;</text>
<polygon fill="#ffffff" stroke="transparent" points="86,-37.7 86,-56.7 131,-56.7 131,-37.7 86,-37.7"/>
<polygon fill="none" stroke="#000000" points="86,-37.7 86,-56.7 131,-56.7 131,-37.7 86,-37.7"/>
<text text-anchor="start" x="121.8862" y="-43.8" font-family="Helvetica,sans-Serif" font-size="11.00" fill="#000000"> &#160;</text>
<polygon fill="#ffffff" stroke="transparent" points="131,-37.7 131,-56.7 185,-56.7 185,-37.7 131,-37.7"/>
<polygon fill="none" stroke="#000000" points="131,-37.7 131,-56.7 185,-56.7 185,-37.7 131,-37.7"/>
<text text-anchor="start" x="166.4053" y="-43.8" font-family="Helvetica,sans-Serif" font-size="11.00" fill="#000000">1 &gt;</text>
</a>
</g>
</g>
<!-- wms_rec_order_pos_product&#45;&gt;wms_rec_product -->
<g id="edge2" class="edge">
<title>wms_rec_order_pos_product:w&#45;&gt;wms_rec_product:e</title>
<path fill="none" stroke="#000000" d="M223.2241,-145.1692C205.9253,-130.7239 215.3495,-86.7 185,-86.7"/>
<polygon fill="#000000" stroke="#000000" points="229.4005,-147.2005 235.8752,-153.1198 233.2002,-148.4503 237,-149.7 237,-149.7 237,-149.7 233.2002,-148.4503 238.1248,-146.2802 229.4005,-147.2005 229.4005,-147.2005"/>
<ellipse fill="none" stroke="#000000" cx="226.3607" cy="-146.2007" rx="3.2" ry="3.2"/>
</g>
</g>
</svg>
