<?xml version="1.0" encoding="UTF-8" standalone="no"?>
<!DOCTYPE svg PUBLIC "-//W3C//DTD SVG 1.1//EN"
 "http://www.w3.org/Graphics/SVG/1.1/DTD/svg11.dtd">
<!-- Generated by graphviz version 2.40.1 (20161225.0304)
 -->
<!-- Title: twoDegreesRelationshipsDiagram Pages: 1 -->
<svg width="567pt" height="638pt"
 viewBox="0.00 0.00 567.00 637.70" xmlns="http://www.w3.org/2000/svg" xmlns:xlink="http://www.w3.org/1999/xlink">
<g id="graph0" class="graph" transform="scale(1 1) rotate(0) translate(4 633.7)">
<title>twoDegreesRelationshipsDiagram</title>
<polygon fill="#ffffff" stroke="transparent" points="-4,4 -4,-633.7 563,-633.7 563,4 -4,4"/>
<text text-anchor="middle" x="72.4936" y="-7.3" font-family="Helvetica,sans-Serif" font-size="11.00" fill="#000000">Generated by SchemaSpy</text>
<!-- wms_rec_order_detail -->
<g id="node1" class="node">
<title>wms_rec_order_detail</title>
<g id="a_node1"><a xlink:href="../../tables/wms_rec_order_detail.html" xlink:title="wms_rec_order_detail" target="_top">
<polygon fill="#ffffff" stroke="transparent" points="345,-357.2 345,-462.2 529,-462.2 529,-357.2 345,-357.2"/>
<polygon fill="#f5f5f5" stroke="transparent" points="345,-438.7 345,-461.7 529,-461.7 529,-438.7 345,-438.7"/>
<polygon fill="none" stroke="#000000" points="345,-438.7 345,-461.7 529,-461.7 529,-438.7 345,-438.7"/>
<text text-anchor="start" x="350" y="-447.3" font-family="Helvetica,sans-Serif" font-weight="bold" font-size="11.00" fill="#000000">wms_rec_order_detail</text>
<text text-anchor="start" x="494.5219" y="-446.8" font-family="Helvetica,sans-Serif" font-size="11.00" fill="#000000">[table]</text>
<polygon fill="none" stroke="#000000" points="345,-416.7 345,-438.7 529,-438.7 529,-416.7 345,-416.7"/>
<image xlink:href="../../images/primaryKeys.png" width="11px" height="12px" preserveAspectRatio="xMinYMin meet" x="350" y="-433.7"/>
<text text-anchor="start" x="374" y="-423.8" font-family="Helvetica,sans-Serif" font-size="11.00" fill="#000000">c_order_pk</text>
<polygon fill="none" stroke="#000000" points="345,-394.7 345,-416.7 529,-416.7 529,-394.7 345,-394.7"/>
<image xlink:href="../../images/primaryKeys.png" width="11px" height="12px" preserveAspectRatio="xMinYMin meet" x="350" y="-411.7"/>
<text text-anchor="start" x="374" y="-401.8" font-family="Helvetica,sans-Serif" font-size="11.00" fill="#000000">c_key</text>
<polygon fill="none" stroke="#000000" points="345,-375.7 345,-394.7 529,-394.7 529,-375.7 345,-375.7"/>
<text text-anchor="start" x="348" y="-381.8" font-family="Helvetica,sans-Serif" font-size="11.00" fill="#000000">...</text>
<polygon fill="#ffffff" stroke="transparent" points="345,-356.7 345,-375.7 435,-375.7 435,-356.7 345,-356.7"/>
<polygon fill="none" stroke="#000000" points="345,-356.7 345,-375.7 435,-375.7 435,-356.7 345,-356.7"/>
<text text-anchor="start" x="348" y="-362.8" font-family="Helvetica,sans-Serif" font-size="11.00" fill="#000000">&lt; 1</text>
<polygon fill="#ffffff" stroke="transparent" points="435,-356.7 435,-375.7 482,-375.7 482,-356.7 435,-356.7"/>
<polygon fill="none" stroke="#000000" points="435,-356.7 435,-375.7 482,-375.7 482,-356.7 435,-356.7"/>
<text text-anchor="start" x="472.8862" y="-362.8" font-family="Helvetica,sans-Serif" font-size="11.00" fill="#000000"> &#160;</text>
<polygon fill="#ffffff" stroke="transparent" points="482,-356.7 482,-375.7 529,-375.7 529,-356.7 482,-356.7"/>
<polygon fill="none" stroke="#000000" points="482,-356.7 482,-375.7 529,-375.7 529,-356.7 482,-356.7"/>
<text text-anchor="start" x="519.8862" y="-362.8" font-family="Helvetica,sans-Serif" font-size="11.00" fill="#000000"> &#160;</text>
</a>
</g>
</g>
<!-- wms_rec_order -->
<g id="node2" class="node">
<title>wms_rec_order</title>
<g id="a_node2"><a xlink:href="../../tables/wms_rec_order.html" xlink:title="wms_rec_order" target="_top">
<polygon fill="#ffffff" stroke="transparent" points="8,-139.7 8,-625.7 274,-625.7 274,-139.7 8,-139.7"/>
<polygon fill="#f5f5f5" stroke="transparent" points="10,-600.7 10,-623.7 272,-623.7 272,-600.7 10,-600.7"/>
<polygon fill="none" stroke="#000000" points="10,-600.7 10,-623.7 272,-623.7 272,-600.7 10,-600.7"/>
<text text-anchor="start" x="15" y="-609.3" font-family="Helvetica,sans-Serif" font-weight="bold" font-size="11.00" fill="#000000">wms_rec_order</text>
<text text-anchor="start" x="237.0437" y="-608.8" font-family="Helvetica,sans-Serif" font-size="11.00" fill="#000000">[table]</text>
<polygon fill="none" stroke="#000000" points="10,-578.7 10,-600.7 188,-600.7 188,-578.7 10,-578.7"/>
<text text-anchor="start" x="30" y="-585.8" font-family="Helvetica,sans-Serif" font-size="11.00" fill="#000000">c_locked</text>
<polygon fill="none" stroke="#000000" points="188,-578.7 188,-600.7 272,-600.7 272,-578.7 188,-578.7"/>
<text text-anchor="start" x="191" y="-586.4" font-family="Helvetica,sans-Serif" font-size="11.00" fill="#000000">bool[1]</text>
<polygon fill="none" stroke="#000000" points="10,-556.7 10,-578.7 188,-578.7 188,-556.7 10,-556.7"/>
<text text-anchor="start" x="30" y="-563.8" font-family="Helvetica,sans-Serif" font-size="11.00" fill="#000000">c_priority</text>
<polygon fill="none" stroke="#000000" points="188,-556.7 188,-578.7 272,-578.7 272,-556.7 188,-556.7"/>
<text text-anchor="start" x="191" y="-564.4" font-family="Helvetica,sans-Serif" font-size="11.00" fill="#000000">int4[10]</text>
<polygon fill="none" stroke="#000000" points="10,-534.7 10,-556.7 188,-556.7 188,-534.7 10,-534.7"/>
<text text-anchor="start" x="30" y="-541.8" font-family="Helvetica,sans-Serif" font-size="11.00" fill="#000000">c_problem_message_no</text>
<polygon fill="none" stroke="#000000" points="188,-534.7 188,-556.7 272,-556.7 272,-534.7 188,-534.7"/>
<text text-anchor="start" x="191" y="-542.4" font-family="Helvetica,sans-Serif" font-size="11.00" fill="#000000">int4[10]</text>
<polygon fill="none" stroke="#000000" points="10,-512.7 10,-534.7 188,-534.7 188,-512.7 10,-512.7"/>
<text text-anchor="start" x="30" y="-519.8" font-family="Helvetica,sans-Serif" font-size="11.00" fill="#000000">c_created</text>
<polygon fill="none" stroke="#000000" points="188,-512.7 188,-534.7 272,-534.7 272,-512.7 188,-512.7"/>
<text text-anchor="start" x="190.8807" y="-520.4" font-family="Helvetica,sans-Serif" font-size="11.00" fill="#000000">timestamp[29,6]</text>
<polygon fill="none" stroke="#000000" points="10,-490.7 10,-512.7 188,-512.7 188,-490.7 10,-490.7"/>
<text text-anchor="start" x="30" y="-497.8" font-family="Helvetica,sans-Serif" font-size="11.00" fill="#000000">c_ended_at</text>
<polygon fill="none" stroke="#000000" points="188,-490.7 188,-512.7 272,-512.7 272,-490.7 188,-490.7"/>
<text text-anchor="start" x="191" y="-498.4" font-family="Helvetica,sans-Serif" font-size="11.00" fill="#000000">timestamp[22]</text>
<polygon fill="none" stroke="#000000" points="10,-468.7 10,-490.7 188,-490.7 188,-468.7 10,-468.7"/>
<text text-anchor="start" x="30" y="-475.8" font-family="Helvetica,sans-Serif" font-size="11.00" fill="#000000">c_expected_receipt</text>
<polygon fill="none" stroke="#000000" points="188,-468.7 188,-490.7 272,-490.7 272,-468.7 188,-468.7"/>
<text text-anchor="start" x="191" y="-476.4" font-family="Helvetica,sans-Serif" font-size="11.00" fill="#000000">timestamp[22]</text>
<polygon fill="none" stroke="#000000" points="10,-446.7 10,-468.7 188,-468.7 188,-446.7 10,-446.7"/>
<text text-anchor="start" x="30" y="-453.8" font-family="Helvetica,sans-Serif" font-size="11.00" fill="#000000">c_latest_due_at</text>
<polygon fill="none" stroke="#000000" points="188,-446.7 188,-468.7 272,-468.7 272,-446.7 188,-446.7"/>
<text text-anchor="start" x="191" y="-454.4" font-family="Helvetica,sans-Serif" font-size="11.00" fill="#000000">timestamp[22]</text>
<polygon fill="none" stroke="#000000" points="10,-424.7 10,-446.7 188,-446.7 188,-424.7 10,-424.7"/>
<text text-anchor="start" x="30" y="-431.8" font-family="Helvetica,sans-Serif" font-size="11.00" fill="#000000">c_next_alloc_at</text>
<polygon fill="none" stroke="#000000" points="188,-424.7 188,-446.7 272,-446.7 272,-424.7 188,-424.7"/>
<text text-anchor="start" x="191" y="-432.4" font-family="Helvetica,sans-Serif" font-size="11.00" fill="#000000">timestamp[22]</text>
<polygon fill="none" stroke="#000000" points="10,-402.7 10,-424.7 188,-424.7 188,-402.7 10,-402.7"/>
<text text-anchor="start" x="30" y="-409.8" font-family="Helvetica,sans-Serif" font-size="11.00" fill="#000000">c_ol</text>
<polygon fill="none" stroke="#000000" points="188,-402.7 188,-424.7 272,-424.7 272,-402.7 188,-402.7"/>
<text text-anchor="start" x="191" y="-410.4" font-family="Helvetica,sans-Serif" font-size="11.00" fill="#000000">int8[19]</text>
<polygon fill="none" stroke="#000000" points="10,-380.7 10,-402.7 188,-402.7 188,-380.7 10,-380.7"/>
<image xlink:href="../../images/primaryKeys.png" width="11px" height="12px" preserveAspectRatio="xMinYMin meet" x="15" y="-397.7"/>
<text text-anchor="start" x="30" y="-387.8" font-family="Helvetica,sans-Serif" font-size="11.00" fill="#000000">c_pk</text>
<polygon fill="none" stroke="#000000" points="188,-380.7 188,-402.7 272,-402.7 272,-380.7 188,-380.7"/>
<text text-anchor="start" x="191" y="-388.4" font-family="Helvetica,sans-Serif" font-size="11.00" fill="#000000">int8[19]</text>
<polygon fill="none" stroke="#000000" points="10,-358.7 10,-380.7 188,-380.7 188,-358.7 10,-358.7"/>
<text text-anchor="start" x="30" y="-365.8" font-family="Helvetica,sans-Serif" font-size="11.00" fill="#000000">c_problem_occurred</text>
<polygon fill="none" stroke="#000000" points="188,-358.7 188,-380.7 272,-380.7 272,-358.7 188,-358.7"/>
<text text-anchor="start" x="190.8807" y="-366.4" font-family="Helvetica,sans-Serif" font-size="11.00" fill="#000000">timestamp[29,6]</text>
<polygon fill="none" stroke="#000000" points="10,-336.7 10,-358.7 188,-358.7 188,-336.7 10,-336.7"/>
<text text-anchor="start" x="30" y="-343.8" font-family="Helvetica,sans-Serif" font-size="11.00" fill="#000000">c_start_earliest_at</text>
<polygon fill="none" stroke="#000000" points="188,-336.7 188,-358.7 272,-358.7 272,-336.7 188,-336.7"/>
<text text-anchor="start" x="191" y="-344.4" font-family="Helvetica,sans-Serif" font-size="11.00" fill="#000000">timestamp[22]</text>
<polygon fill="none" stroke="#000000" points="10,-314.7 10,-336.7 188,-336.7 188,-314.7 10,-314.7"/>
<text text-anchor="start" x="30" y="-321.8" font-family="Helvetica,sans-Serif" font-size="11.00" fill="#000000">c_started_at</text>
<polygon fill="none" stroke="#000000" points="188,-314.7 188,-336.7 272,-336.7 272,-314.7 188,-314.7"/>
<text text-anchor="start" x="191" y="-322.4" font-family="Helvetica,sans-Serif" font-size="11.00" fill="#000000">timestamp[22]</text>
<polygon fill="none" stroke="#000000" points="10,-292.7 10,-314.7 188,-314.7 188,-292.7 10,-292.7"/>
<text text-anchor="start" x="30" y="-299.8" font-family="Helvetica,sans-Serif" font-size="11.00" fill="#000000">c_updated</text>
<polygon fill="none" stroke="#000000" points="188,-292.7 188,-314.7 272,-314.7 272,-292.7 188,-292.7"/>
<text text-anchor="start" x="190.8807" y="-300.4" font-family="Helvetica,sans-Serif" font-size="11.00" fill="#000000">timestamp[29,6]</text>
<polygon fill="none" stroke="#000000" points="10,-270.7 10,-292.7 188,-292.7 188,-270.7 10,-270.7"/>
<text text-anchor="start" x="30" y="-277.8" font-family="Helvetica,sans-Serif" font-size="11.00" fill="#000000">c_created_by</text>
<polygon fill="none" stroke="#000000" points="188,-270.7 188,-292.7 272,-292.7 272,-270.7 188,-270.7"/>
<text text-anchor="start" x="191" y="-278.4" font-family="Helvetica,sans-Serif" font-size="11.00" fill="#000000">varchar[255]</text>
<polygon fill="#ffffff" stroke="transparent" points="10,-248.7 10,-270.7 188,-270.7 188,-248.7 10,-248.7"/>
<polygon fill="none" stroke="#000000" points="10,-248.7 10,-270.7 188,-270.7 188,-248.7 10,-248.7"/>
<text text-anchor="start" x="30" y="-255.8" font-family="Helvetica,sans-Serif" font-size="11.00" fill="#000000">c_order_id</text>
<polygon fill="none" stroke="#000000" points="188,-248.7 188,-270.7 272,-270.7 272,-248.7 188,-248.7"/>
<text text-anchor="start" x="191" y="-256.4" font-family="Helvetica,sans-Serif" font-size="11.00" fill="#000000">varchar[255]</text>
<polygon fill="none" stroke="#000000" points="10,-226.7 10,-248.7 188,-248.7 188,-226.7 10,-226.7"/>
<text text-anchor="start" x="30" y="-233.8" font-family="Helvetica,sans-Serif" font-size="11.00" fill="#000000">c_order_state</text>
<polygon fill="none" stroke="#000000" points="188,-226.7 188,-248.7 272,-248.7 272,-226.7 188,-226.7"/>
<text text-anchor="start" x="191" y="-234.4" font-family="Helvetica,sans-Serif" font-size="11.00" fill="#000000">varchar[255]</text>
<polygon fill="#ffffff" stroke="transparent" points="10,-204.7 10,-226.7 188,-226.7 188,-204.7 10,-204.7"/>
<polygon fill="none" stroke="#000000" points="10,-204.7 10,-226.7 188,-226.7 188,-204.7 10,-204.7"/>
<text text-anchor="start" x="30" y="-211.8" font-family="Helvetica,sans-Serif" font-size="11.00" fill="#000000">c_pid</text>
<polygon fill="none" stroke="#000000" points="188,-204.7 188,-226.7 272,-226.7 272,-204.7 188,-204.7"/>
<text text-anchor="start" x="191" y="-212.4" font-family="Helvetica,sans-Serif" font-size="11.00" fill="#000000">varchar[255]</text>
<polygon fill="none" stroke="#000000" points="10,-182.7 10,-204.7 188,-204.7 188,-182.7 10,-182.7"/>
<text text-anchor="start" x="30" y="-189.8" font-family="Helvetica,sans-Serif" font-size="11.00" fill="#000000">c_problem_message</text>
<polygon fill="none" stroke="#000000" points="188,-182.7 188,-204.7 272,-204.7 272,-182.7 188,-182.7"/>
<text text-anchor="start" x="191" y="-190.4" font-family="Helvetica,sans-Serif" font-size="11.00" fill="#000000">varchar[255]</text>
<polygon fill="none" stroke="#000000" points="10,-160.7 10,-182.7 188,-182.7 188,-160.7 10,-160.7"/>
<text text-anchor="start" x="30" y="-167.8" font-family="Helvetica,sans-Serif" font-size="11.00" fill="#000000">c_updated_by</text>
<polygon fill="none" stroke="#000000" points="188,-160.7 188,-182.7 272,-182.7 272,-160.7 188,-160.7"/>
<text text-anchor="start" x="191" y="-168.4" font-family="Helvetica,sans-Serif" font-size="11.00" fill="#000000">varchar[255]</text>
<polygon fill="#ffffff" stroke="transparent" points="10,-141.7 10,-160.7 103,-160.7 103,-141.7 10,-141.7"/>
<polygon fill="none" stroke="#000000" points="10,-141.7 10,-160.7 103,-160.7 103,-141.7 10,-141.7"/>
<text text-anchor="start" x="13" y="-147.8" font-family="Helvetica,sans-Serif" font-size="11.00" fill="#000000">&lt; 0</text>
<polygon fill="#ffffff" stroke="transparent" points="103,-141.7 103,-160.7 188,-160.7 188,-141.7 103,-141.7"/>
<polygon fill="none" stroke="#000000" points="103,-141.7 103,-160.7 188,-160.7 188,-141.7 103,-141.7"/>
<text text-anchor="start" x="178.8862" y="-147.8" font-family="Helvetica,sans-Serif" font-size="11.00" fill="#000000"> &#160;</text>
<polygon fill="#ffffff" stroke="transparent" points="188,-141.7 188,-160.7 272,-160.7 272,-141.7 188,-141.7"/>
<polygon fill="none" stroke="#000000" points="188,-141.7 188,-160.7 272,-160.7 272,-141.7 188,-141.7"/>
<text text-anchor="start" x="253.4053" y="-147.8" font-family="Helvetica,sans-Serif" font-size="11.00" fill="#000000">3 &gt;</text>
<polygon fill="none" stroke="#000000" stroke-width="2" points="9,-140.7 9,-624.7 273,-624.7 273,-140.7 9,-140.7"/>
</a>
</g>
</g>
<!-- wms_rec_order_detail&#45;&gt;wms_rec_order -->
<g id="edge1" class="edge">
<title>wms_rec_order_detail:w&#45;&gt;wms_rec_order:e</title>
<path fill="none" stroke="#000000" d="M330.6891,-425.448C307.8024,-417.5668 302.6641,-391.7 272,-391.7"/>
<polygon fill="#000000" stroke="#000000" points="337.0972,-426.4564 344.4404,-431.2562 341.0486,-427.0782 345,-427.7 345,-427.7 345,-427.7 341.0486,-427.0782 345.5596,-424.1438 337.0972,-426.4564 337.0972,-426.4564"/>
<ellipse fill="none" stroke="#000000" cx="333.9361" cy="-425.9589" rx="3.2" ry="3.2"/>
</g>
<!-- wms_rec_order_pos_product -->
<g id="node3" class="node">
<title>wms_rec_order_pos_product</title>
<g id="a_node3"><a xlink:href="../../tables/wms_rec_order_pos_product.html" xlink:title="wms_rec_order_pos_product" target="_top">
<polygon fill="#ffffff" stroke="transparent" points="323,-38.2 323,-187.2 551,-187.2 551,-38.2 323,-38.2"/>
<polygon fill="#f5f5f5" stroke="transparent" points="323,-163.7 323,-186.7 551,-186.7 551,-163.7 323,-163.7"/>
<polygon fill="none" stroke="#000000" points="323,-163.7 323,-186.7 551,-186.7 551,-163.7 323,-163.7"/>
<text text-anchor="start" x="328" y="-172.3" font-family="Helvetica,sans-Serif" font-weight="bold" font-size="11.00" fill="#000000">wms_rec_order_pos_product</text>
<text text-anchor="start" x="516.5219" y="-171.8" font-family="Helvetica,sans-Serif" font-size="11.00" fill="#000000">[table]</text>
<polygon fill="#ffffff" stroke="transparent" points="323,-141.7 323,-163.7 551,-163.7 551,-141.7 323,-141.7"/>
<polygon fill="none" stroke="#000000" points="323,-141.7 323,-163.7 551,-163.7 551,-141.7 323,-141.7"/>
<text text-anchor="start" x="352" y="-148.8" font-family="Helvetica,sans-Serif" font-size="11.00" fill="#000000">c_pos_no</text>
<polygon fill="none" stroke="#000000" points="323,-119.7 323,-141.7 551,-141.7 551,-119.7 323,-119.7"/>
<image xlink:href="../../images/primaryKeys.png" width="11px" height="12px" preserveAspectRatio="xMinYMin meet" x="328" y="-136.7"/>
<text text-anchor="start" x="352" y="-126.8" font-family="Helvetica,sans-Serif" font-size="11.00" fill="#000000">c_pk</text>
<polygon fill="#ffffff" stroke="transparent" points="323,-97.7 323,-119.7 551,-119.7 551,-97.7 323,-97.7"/>
<polygon fill="none" stroke="#000000" points="323,-97.7 323,-119.7 551,-119.7 551,-97.7 323,-97.7"/>
<image xlink:href="../../images/foreignKeys.png" width="11px" height="12px" preserveAspectRatio="xMinYMin meet" x="328" y="-114.7"/>
<text text-anchor="start" x="352" y="-104.8" font-family="Helvetica,sans-Serif" font-size="11.00" fill="#000000">c_order_id</text>
<polygon fill="none" stroke="#000000" points="323,-75.7 323,-97.7 551,-97.7 551,-75.7 323,-75.7"/>
<image xlink:href="../../images/foreignKeys.png" width="11px" height="12px" preserveAspectRatio="xMinYMin meet" x="328" y="-92.7"/>
<text text-anchor="start" x="352" y="-82.8" font-family="Helvetica,sans-Serif" font-size="11.00" fill="#000000">c_sku</text>
<polygon fill="none" stroke="#000000" points="323,-56.7 323,-75.7 551,-75.7 551,-56.7 323,-56.7"/>
<text text-anchor="start" x="326" y="-62.8" font-family="Helvetica,sans-Serif" font-size="11.00" fill="#000000">...</text>
<polygon fill="#ffffff" stroke="transparent" points="323,-37.7 323,-56.7 435,-56.7 435,-37.7 323,-37.7"/>
<polygon fill="none" stroke="#000000" points="323,-37.7 323,-56.7 435,-56.7 435,-37.7 323,-37.7"/>
<text text-anchor="start" x="326" y="-43.8" font-family="Helvetica,sans-Serif" font-size="11.00" fill="#000000">&lt; 2</text>
<polygon fill="#ffffff" stroke="transparent" points="435,-37.7 435,-56.7 493,-56.7 493,-37.7 435,-37.7"/>
<polygon fill="none" stroke="#000000" points="435,-37.7 435,-56.7 493,-56.7 493,-37.7 435,-37.7"/>
<text text-anchor="start" x="483.8862" y="-43.8" font-family="Helvetica,sans-Serif" font-size="11.00" fill="#000000"> &#160;</text>
<polygon fill="#ffffff" stroke="transparent" points="493,-37.7 493,-56.7 551,-56.7 551,-37.7 493,-37.7"/>
<polygon fill="none" stroke="#000000" points="493,-37.7 493,-56.7 551,-56.7 551,-37.7 493,-37.7"/>
<text text-anchor="start" x="541.8862" y="-43.8" font-family="Helvetica,sans-Serif" font-size="11.00" fill="#000000"> &#160;</text>
</a>
</g>
</g>
<!-- wms_rec_order_pos_product&#45;&gt;wms_rec_order -->
<g id="edge2" class="edge">
<title>wms_rec_order_pos_product:w&#45;&gt;wms_rec_order:e</title>
<path fill="none" stroke="#000000" d="M308.6499,-111.5816C265.9534,-132.4573 337.0248,-259.7 272,-259.7"/>
<polygon fill="#000000" stroke="#000000" points="315.1566,-110.2751 323.7088,-112.2295 319.0783,-109.4875 323,-108.7 323,-108.7 323,-108.7 319.0783,-109.4875 322.2912,-105.1705 315.1566,-110.2751 315.1566,-110.2751"/>
<ellipse fill="none" stroke="#000000" cx="312.0192" cy="-110.9051" rx="3.2" ry="3.2"/>
</g>
<!-- wms_rec_product -->
<g id="node4" class="node">
<title>wms_rec_product</title>
<g id="a_node4"><a xlink:href="../../tables/wms_rec_product.html" xlink:title="wms_rec_product" target="_top">
<polygon fill="#ffffff" stroke="transparent" points="63.5,-57.2 63.5,-118.2 218.5,-118.2 218.5,-57.2 63.5,-57.2"/>
<polygon fill="#f5f5f5" stroke="transparent" points="64,-94.7 64,-117.7 219,-117.7 219,-94.7 64,-94.7"/>
<polygon fill="none" stroke="#000000" points="64,-94.7 64,-117.7 219,-117.7 219,-94.7 64,-94.7"/>
<text text-anchor="start" x="69" y="-103.3" font-family="Helvetica,sans-Serif" font-weight="bold" font-size="11.00" fill="#000000">wms_rec_product</text>
<text text-anchor="start" x="184.5219" y="-102.8" font-family="Helvetica,sans-Serif" font-size="11.00" fill="#000000">[table]</text>
<polygon fill="none" stroke="#000000" points="64,-75.7 64,-94.7 219,-94.7 219,-75.7 64,-75.7"/>
<text text-anchor="start" x="67" y="-81.8" font-family="Helvetica,sans-Serif" font-size="11.00" fill="#000000">...</text>
<polygon fill="#ffffff" stroke="transparent" points="64,-56.7 64,-75.7 131,-75.7 131,-56.7 64,-56.7"/>
<polygon fill="none" stroke="#000000" points="64,-56.7 64,-75.7 131,-75.7 131,-56.7 64,-56.7"/>
<text text-anchor="start" x="67" y="-62.8" font-family="Helvetica,sans-Serif" font-size="11.00" fill="#000000"> &#160;</text>
<polygon fill="#ffffff" stroke="transparent" points="131,-56.7 131,-75.7 170,-75.7 170,-56.7 131,-56.7"/>
<polygon fill="none" stroke="#000000" points="131,-56.7 131,-75.7 170,-75.7 170,-56.7 131,-56.7"/>
<text text-anchor="start" x="160.8862" y="-62.8" font-family="Helvetica,sans-Serif" font-size="11.00" fill="#000000"> &#160;</text>
<polygon fill="#ffffff" stroke="transparent" points="170,-56.7 170,-75.7 219,-75.7 219,-56.7 170,-56.7"/>
<polygon fill="none" stroke="#000000" points="170,-56.7 170,-75.7 219,-75.7 219,-56.7 170,-56.7"/>
<text text-anchor="start" x="200.4053" y="-62.8" font-family="Helvetica,sans-Serif" font-size="11.00" fill="#000000">1 &gt;</text>
</a>
</g>
</g>
<!-- wms_rec_order_pos_product&#45;&gt;wms_rec_product -->
<g id="edge3" class="edge">
<title>wms_rec_order_pos_product:w&#45;&gt;wms_rec_product:e</title>
<path fill="none" stroke="#000000" d="M308.5235,-86.6288C273.7099,-86.2725 259.9937,-84.7 219,-84.7"/>
<polygon fill="#000000" stroke="#000000" points="315.0001,-86.6606 322.9823,-90.3 319,-86.6803 323,-86.7 323,-86.7 323,-86.7 319,-86.6803 323.0177,-83.1 315.0001,-86.6606 315.0001,-86.6606"/>
<ellipse fill="none" stroke="#000000" cx="311.8001" cy="-86.6449" rx="3.2" ry="3.2"/>
</g>
<!-- wms_rec_order_pos_tu -->
<g id="node5" class="node">
<title>wms_rec_order_pos_tu</title>
<g id="a_node5"><a xlink:href="../../tables/wms_rec_order_pos_tu.html" xlink:title="wms_rec_order_pos_tu" target="_top">
<polygon fill="#ffffff" stroke="transparent" points="332,-209.2 332,-336.2 542,-336.2 542,-209.2 332,-209.2"/>
<polygon fill="#f5f5f5" stroke="transparent" points="332,-312.7 332,-335.7 542,-335.7 542,-312.7 332,-312.7"/>
<polygon fill="none" stroke="#000000" points="332,-312.7 332,-335.7 542,-335.7 542,-312.7 332,-312.7"/>
<text text-anchor="start" x="337" y="-321.3" font-family="Helvetica,sans-Serif" font-weight="bold" font-size="11.00" fill="#000000">wms_rec_order_pos_tu</text>
<text text-anchor="start" x="507.0437" y="-320.8" font-family="Helvetica,sans-Serif" font-size="11.00" fill="#000000">[table]</text>
<polygon fill="#ffffff" stroke="transparent" points="332,-290.7 332,-312.7 542,-312.7 542,-290.7 332,-290.7"/>
<polygon fill="none" stroke="#000000" points="332,-290.7 332,-312.7 542,-312.7 542,-290.7 332,-290.7"/>
<text text-anchor="start" x="352" y="-297.8" font-family="Helvetica,sans-Serif" font-size="11.00" fill="#000000">c_pos_no</text>
<polygon fill="none" stroke="#000000" points="332,-268.7 332,-290.7 542,-290.7 542,-268.7 332,-268.7"/>
<image xlink:href="../../images/primaryKeys.png" width="11px" height="12px" preserveAspectRatio="xMinYMin meet" x="337" y="-285.7"/>
<text text-anchor="start" x="352" y="-275.8" font-family="Helvetica,sans-Serif" font-size="11.00" fill="#000000">c_pk</text>
<polygon fill="#ffffff" stroke="transparent" points="332,-246.7 332,-268.7 542,-268.7 542,-246.7 332,-246.7"/>
<polygon fill="none" stroke="#000000" points="332,-246.7 332,-268.7 542,-268.7 542,-246.7 332,-246.7"/>
<image xlink:href="../../images/foreignKeys.png" width="11px" height="12px" preserveAspectRatio="xMinYMin meet" x="337" y="-263.7"/>
<text text-anchor="start" x="352" y="-253.8" font-family="Helvetica,sans-Serif" font-size="11.00" fill="#000000">c_order_id</text>
<polygon fill="none" stroke="#000000" points="332,-227.7 332,-246.7 542,-246.7 542,-227.7 332,-227.7"/>
<text text-anchor="start" x="335" y="-233.8" font-family="Helvetica,sans-Serif" font-size="11.00" fill="#000000">...</text>
<polygon fill="#ffffff" stroke="transparent" points="332,-208.7 332,-227.7 435,-227.7 435,-208.7 332,-208.7"/>
<polygon fill="none" stroke="#000000" points="332,-208.7 332,-227.7 435,-227.7 435,-208.7 332,-208.7"/>
<text text-anchor="start" x="335" y="-214.8" font-family="Helvetica,sans-Serif" font-size="11.00" fill="#000000">&lt; 1</text>
<polygon fill="#ffffff" stroke="transparent" points="435,-208.7 435,-227.7 488,-227.7 488,-208.7 435,-208.7"/>
<polygon fill="none" stroke="#000000" points="435,-208.7 435,-227.7 488,-227.7 488,-208.7 435,-208.7"/>
<text text-anchor="start" x="478.8862" y="-214.8" font-family="Helvetica,sans-Serif" font-size="11.00" fill="#000000"> &#160;</text>
<polygon fill="#ffffff" stroke="transparent" points="488,-208.7 488,-227.7 542,-227.7 542,-208.7 488,-208.7"/>
<polygon fill="none" stroke="#000000" points="488,-208.7 488,-227.7 542,-227.7 542,-208.7 488,-208.7"/>
<text text-anchor="start" x="532.8862" y="-214.8" font-family="Helvetica,sans-Serif" font-size="11.00" fill="#000000"> &#160;</text>
</a>
</g>
</g>
<!-- wms_rec_order_pos_tu&#45;&gt;wms_rec_order -->
<g id="edge4" class="edge">
<title>wms_rec_order_pos_tu:w&#45;&gt;wms_rec_order:e</title>
<path fill="none" stroke="#000000" d="M317.415,-257.9294C301.6266,-258.4548 293.0534,-259.7 272,-259.7"/>
<polygon fill="#000000" stroke="#000000" points="324.001,-257.8259 332.0566,-261.2996 328.0005,-257.7629 332,-257.7 332,-257.7 332,-257.7 328.0005,-257.7629 331.9434,-254.1004 324.001,-257.8259 324.001,-257.8259"/>
<ellipse fill="none" stroke="#000000" cx="320.8014" cy="-257.8762" rx="3.2" ry="3.2"/>
</g>
</g>
</svg>
