<?xml version="1.0" encoding="UTF-8" standalone="no"?>
<!DOCTYPE svg PUBLIC "-//W3C//DTD SVG 1.1//EN"
 "http://www.w3.org/Graphics/SVG/1.1/DTD/svg11.dtd">
<!-- Generated by graphviz version 2.40.1 (20161225.0304)
 -->
<!-- Title: oneDegreeRelationshipsDiagram Pages: 1 -->
<svg width="557pt" height="382pt"
 viewBox="0.00 0.00 557.00 382.20" xmlns="http://www.w3.org/2000/svg" xmlns:xlink="http://www.w3.org/1999/xlink">
<g id="graph0" class="graph" transform="scale(1 1) rotate(0) translate(4 378.2)">
<title>oneDegreeRelationshipsDiagram</title>
<polygon fill="#ffffff" stroke="transparent" points="-4,4 -4,-378.2 553,-378.2 553,4 -4,4"/>
<text text-anchor="middle" x="72.4936" y="-7.3" font-family="Helvetica,sans-Serif" font-size="11.00" fill="#000000">Generated by SchemaSpy</text>
<!-- wms_rec_order_pos_tu -->
<g id="node1" class="node">
<title>wms_rec_order_pos_tu</title>
<g id="a_node1"><a xlink:href="../../tables/wms_rec_order_pos_tu.html" xlink:title="wms_rec_order_pos_tu" target="_top">
<polygon fill="#ffffff" stroke="transparent" points="235,-38.2 235,-370.2 541,-370.2 541,-38.2 235,-38.2"/>
<polygon fill="#f5f5f5" stroke="transparent" points="237,-345.2 237,-368.2 539,-368.2 539,-345.2 237,-345.2"/>
<polygon fill="none" stroke="#000000" points="237,-345.2 237,-368.2 539,-368.2 539,-345.2 237,-345.2"/>
<text text-anchor="start" x="242" y="-353.8" font-family="Helvetica,sans-Serif" font-weight="bold" font-size="11.00" fill="#000000">wms_rec_order_pos_tu</text>
<text text-anchor="start" x="504.0437" y="-353.3" font-family="Helvetica,sans-Serif" font-size="11.00" fill="#000000">[table]</text>
<polygon fill="#ffffff" stroke="transparent" points="237,-323.2 237,-345.2 447,-345.2 447,-323.2 237,-323.2"/>
<polygon fill="none" stroke="#000000" points="237,-323.2 237,-345.2 447,-345.2 447,-323.2 237,-323.2"/>
<text text-anchor="start" x="257" y="-330.3" font-family="Helvetica,sans-Serif" font-size="11.00" fill="#000000">c_pos_no</text>
<polygon fill="none" stroke="#000000" points="447,-323.2 447,-345.2 539,-345.2 539,-323.2 447,-323.2"/>
<text text-anchor="start" x="450" y="-330.9" font-family="Helvetica,sans-Serif" font-size="11.00" fill="#000000">int4[10]</text>
<polygon fill="none" stroke="#000000" points="237,-301.2 237,-323.2 447,-323.2 447,-301.2 237,-301.2"/>
<text text-anchor="start" x="257" y="-308.3" font-family="Helvetica,sans-Serif" font-size="11.00" fill="#000000">c_created</text>
<polygon fill="none" stroke="#000000" points="447,-301.2 447,-323.2 539,-323.2 539,-301.2 447,-301.2"/>
<text text-anchor="start" x="450" y="-308.9" font-family="Helvetica,sans-Serif" font-size="11.00" fill="#000000">timestamp[29,6]</text>
<polygon fill="none" stroke="#000000" points="237,-279.2 237,-301.2 447,-301.2 447,-279.2 237,-279.2"/>
<text text-anchor="start" x="257" y="-286.3" font-family="Helvetica,sans-Serif" font-size="11.00" fill="#000000">c_latest_due</text>
<polygon fill="none" stroke="#000000" points="447,-279.2 447,-301.2 539,-301.2 539,-279.2 447,-279.2"/>
<text text-anchor="start" x="449.6023" y="-286.9" font-family="Helvetica,sans-Serif" font-size="11.00" fill="#000000">timestamptz[35,6]</text>
<polygon fill="none" stroke="#000000" points="237,-257.2 237,-279.2 447,-279.2 447,-257.2 237,-257.2"/>
<text text-anchor="start" x="257" y="-264.3" font-family="Helvetica,sans-Serif" font-size="11.00" fill="#000000">c_ol</text>
<polygon fill="none" stroke="#000000" points="447,-257.2 447,-279.2 539,-279.2 539,-257.2 447,-257.2"/>
<text text-anchor="start" x="450" y="-264.9" font-family="Helvetica,sans-Serif" font-size="11.00" fill="#000000">int8[19]</text>
<polygon fill="none" stroke="#000000" points="237,-235.2 237,-257.2 447,-257.2 447,-235.2 237,-235.2"/>
<image xlink:href="../../images/primaryKeys.png" width="11px" height="12px" preserveAspectRatio="xMinYMin meet" x="242" y="-252.2"/>
<text text-anchor="start" x="257" y="-242.3" font-family="Helvetica,sans-Serif" font-size="11.00" fill="#000000">c_pk</text>
<polygon fill="none" stroke="#000000" points="447,-235.2 447,-257.2 539,-257.2 539,-235.2 447,-235.2"/>
<text text-anchor="start" x="450" y="-242.9" font-family="Helvetica,sans-Serif" font-size="11.00" fill="#000000">int8[19]</text>
<polygon fill="none" stroke="#000000" points="237,-213.2 237,-235.2 447,-235.2 447,-213.2 237,-213.2"/>
<text text-anchor="start" x="257" y="-220.3" font-family="Helvetica,sans-Serif" font-size="11.00" fill="#000000">c_updated</text>
<polygon fill="none" stroke="#000000" points="447,-213.2 447,-235.2 539,-235.2 539,-213.2 447,-213.2"/>
<text text-anchor="start" x="450" y="-220.9" font-family="Helvetica,sans-Serif" font-size="11.00" fill="#000000">timestamp[29,6]</text>
<polygon fill="none" stroke="#000000" points="237,-191.2 237,-213.2 447,-213.2 447,-191.2 237,-191.2"/>
<text text-anchor="start" x="257" y="-198.3" font-family="Helvetica,sans-Serif" font-size="11.00" fill="#000000">c_created_by</text>
<polygon fill="none" stroke="#000000" points="447,-191.2 447,-213.2 539,-213.2 539,-191.2 447,-191.2"/>
<text text-anchor="start" x="450" y="-198.9" font-family="Helvetica,sans-Serif" font-size="11.00" fill="#000000">varchar[255]</text>
<polygon fill="none" stroke="#000000" points="237,-169.2 237,-191.2 447,-191.2 447,-169.2 237,-169.2"/>
<text text-anchor="start" x="257" y="-176.3" font-family="Helvetica,sans-Serif" font-size="11.00" fill="#000000">c_expected_receipt_at</text>
<polygon fill="none" stroke="#000000" points="447,-169.2 447,-191.2 539,-191.2 539,-169.2 447,-169.2"/>
<text text-anchor="start" x="450" y="-176.9" font-family="Helvetica,sans-Serif" font-size="11.00" fill="#000000">varchar[255]</text>
<polygon fill="#ffffff" stroke="transparent" points="237,-147.2 237,-169.2 447,-169.2 447,-147.2 237,-147.2"/>
<polygon fill="none" stroke="#000000" points="237,-147.2 237,-169.2 447,-169.2 447,-147.2 237,-147.2"/>
<image xlink:href="../../images/foreignKeys.png" width="11px" height="12px" preserveAspectRatio="xMinYMin meet" x="242" y="-164.2"/>
<text text-anchor="start" x="257" y="-154.3" font-family="Helvetica,sans-Serif" font-size="11.00" fill="#000000">c_order_id</text>
<polygon fill="none" stroke="#000000" points="447,-147.2 447,-169.2 539,-169.2 539,-147.2 447,-147.2"/>
<text text-anchor="start" x="450" y="-154.9" font-family="Helvetica,sans-Serif" font-size="11.00" fill="#000000">varchar[255]</text>
<polygon fill="none" stroke="#000000" points="237,-125.2 237,-147.2 447,-147.2 447,-125.2 237,-125.2"/>
<text text-anchor="start" x="257" y="-132.3" font-family="Helvetica,sans-Serif" font-size="11.00" fill="#000000">c_state</text>
<polygon fill="none" stroke="#000000" points="447,-125.2 447,-147.2 539,-147.2 539,-125.2 447,-125.2"/>
<text text-anchor="start" x="450" y="-132.9" font-family="Helvetica,sans-Serif" font-size="11.00" fill="#000000">varchar[255]</text>
<polygon fill="none" stroke="#000000" points="237,-103.2 237,-125.2 447,-125.2 447,-103.2 237,-103.2"/>
<text text-anchor="start" x="257" y="-110.3" font-family="Helvetica,sans-Serif" font-size="11.00" fill="#000000">c_transport_unit_bk</text>
<polygon fill="none" stroke="#000000" points="447,-103.2 447,-125.2 539,-125.2 539,-103.2 447,-103.2"/>
<text text-anchor="start" x="450" y="-110.9" font-family="Helvetica,sans-Serif" font-size="11.00" fill="#000000">varchar[255]</text>
<polygon fill="none" stroke="#000000" points="237,-81.2 237,-103.2 447,-103.2 447,-81.2 237,-81.2"/>
<text text-anchor="start" x="257" y="-88.3" font-family="Helvetica,sans-Serif" font-size="11.00" fill="#000000">c_transport_unit_type_name</text>
<polygon fill="none" stroke="#000000" points="447,-81.2 447,-103.2 539,-103.2 539,-81.2 447,-81.2"/>
<text text-anchor="start" x="450" y="-88.9" font-family="Helvetica,sans-Serif" font-size="11.00" fill="#000000">varchar[255]</text>
<polygon fill="none" stroke="#000000" points="237,-59.2 237,-81.2 447,-81.2 447,-59.2 237,-59.2"/>
<text text-anchor="start" x="257" y="-66.3" font-family="Helvetica,sans-Serif" font-size="11.00" fill="#000000">c_updated_by</text>
<polygon fill="none" stroke="#000000" points="447,-59.2 447,-81.2 539,-81.2 539,-59.2 447,-59.2"/>
<text text-anchor="start" x="450" y="-66.9" font-family="Helvetica,sans-Serif" font-size="11.00" fill="#000000">varchar[255]</text>
<polygon fill="#ffffff" stroke="transparent" points="237,-40.2 237,-59.2 346,-59.2 346,-40.2 237,-40.2"/>
<polygon fill="none" stroke="#000000" points="237,-40.2 237,-59.2 346,-59.2 346,-40.2 237,-40.2"/>
<text text-anchor="start" x="240" y="-46.3" font-family="Helvetica,sans-Serif" font-size="11.00" fill="#000000">&lt; 1</text>
<polygon fill="#ffffff" stroke="transparent" points="346,-40.2 346,-59.2 447,-59.2 447,-40.2 346,-40.2"/>
<polygon fill="none" stroke="#000000" points="346,-40.2 346,-59.2 447,-59.2 447,-40.2 346,-40.2"/>
<text text-anchor="start" x="437.8862" y="-46.3" font-family="Helvetica,sans-Serif" font-size="11.00" fill="#000000"> &#160;</text>
<polygon fill="#ffffff" stroke="transparent" points="447,-40.2 447,-59.2 539,-59.2 539,-40.2 447,-40.2"/>
<polygon fill="none" stroke="#000000" points="447,-40.2 447,-59.2 539,-59.2 539,-40.2 447,-40.2"/>
<text text-anchor="start" x="520.4053" y="-46.3" font-family="Helvetica,sans-Serif" font-size="11.00" fill="#000000">0 &gt;</text>
<polygon fill="none" stroke="#000000" stroke-width="2" points="236,-39.2 236,-369.2 540,-369.2 540,-39.2 236,-39.2"/>
</a>
</g>
</g>
<!-- wms_rec_order -->
<g id="node2" class="node">
<title>wms_rec_order</title>
<g id="a_node2"><a xlink:href="../../tables/wms_rec_order.html" xlink:title="wms_rec_order" target="_top">
<polygon fill="#ffffff" stroke="transparent" points="8,-87.7 8,-214.7 186,-214.7 186,-87.7 8,-87.7"/>
<polygon fill="#f5f5f5" stroke="transparent" points="8,-191.2 8,-214.2 186,-214.2 186,-191.2 8,-191.2"/>
<polygon fill="none" stroke="#000000" points="8,-191.2 8,-214.2 186,-214.2 186,-191.2 8,-191.2"/>
<text text-anchor="start" x="13" y="-199.8" font-family="Helvetica,sans-Serif" font-weight="bold" font-size="11.00" fill="#000000">wms_rec_order</text>
<text text-anchor="start" x="151.0437" y="-199.3" font-family="Helvetica,sans-Serif" font-size="11.00" fill="#000000">[table]</text>
<polygon fill="none" stroke="#000000" points="8,-169.2 8,-191.2 186,-191.2 186,-169.2 8,-169.2"/>
<image xlink:href="../../images/primaryKeys.png" width="11px" height="12px" preserveAspectRatio="xMinYMin meet" x="13" y="-186.2"/>
<text text-anchor="start" x="28" y="-176.3" font-family="Helvetica,sans-Serif" font-size="11.00" fill="#000000">c_pk</text>
<polygon fill="#ffffff" stroke="transparent" points="8,-147.2 8,-169.2 186,-169.2 186,-147.2 8,-147.2"/>
<polygon fill="none" stroke="#000000" points="8,-147.2 8,-169.2 186,-169.2 186,-147.2 8,-147.2"/>
<text text-anchor="start" x="28" y="-154.3" font-family="Helvetica,sans-Serif" font-size="11.00" fill="#000000">c_order_id</text>
<polygon fill="#ffffff" stroke="transparent" points="8,-125.2 8,-147.2 186,-147.2 186,-125.2 8,-125.2"/>
<polygon fill="none" stroke="#000000" points="8,-125.2 8,-147.2 186,-147.2 186,-125.2 8,-125.2"/>
<text text-anchor="start" x="28" y="-132.3" font-family="Helvetica,sans-Serif" font-size="11.00" fill="#000000">c_pid</text>
<polygon fill="none" stroke="#000000" points="8,-106.2 8,-125.2 186,-125.2 186,-106.2 8,-106.2"/>
<text text-anchor="start" x="11" y="-112.3" font-family="Helvetica,sans-Serif" font-size="11.00" fill="#000000">...</text>
<polygon fill="#ffffff" stroke="transparent" points="8,-87.2 8,-106.2 86,-106.2 86,-87.2 8,-87.2"/>
<polygon fill="none" stroke="#000000" points="8,-87.2 8,-106.2 86,-106.2 86,-87.2 8,-87.2"/>
<text text-anchor="start" x="11" y="-93.3" font-family="Helvetica,sans-Serif" font-size="11.00" fill="#000000"> &#160;</text>
<polygon fill="#ffffff" stroke="transparent" points="86,-87.2 86,-106.2 131,-106.2 131,-87.2 86,-87.2"/>
<polygon fill="none" stroke="#000000" points="86,-87.2 86,-106.2 131,-106.2 131,-87.2 86,-87.2"/>
<text text-anchor="start" x="121.8862" y="-93.3" font-family="Helvetica,sans-Serif" font-size="11.00" fill="#000000"> &#160;</text>
<polygon fill="#ffffff" stroke="transparent" points="131,-87.2 131,-106.2 186,-106.2 186,-87.2 131,-87.2"/>
<polygon fill="none" stroke="#000000" points="131,-87.2 131,-106.2 186,-106.2 186,-87.2 131,-87.2"/>
<text text-anchor="start" x="167.4053" y="-93.3" font-family="Helvetica,sans-Serif" font-size="11.00" fill="#000000">3 &gt;</text>
</a>
</g>
</g>
<!-- wms_rec_order_pos_tu&#45;&gt;wms_rec_order -->
<g id="edge1" class="edge">
<title>wms_rec_order_pos_tu:w&#45;&gt;wms_rec_order:e</title>
<path fill="none" stroke="#000000" d="M222.276,-158.2C210.2815,-158.2 202.8229,-158.2 186,-158.2"/>
<polygon fill="#000000" stroke="#000000" points="229,-158.2001 237,-161.8 233,-158.2 237,-158.2 237,-158.2 237,-158.2 233,-158.2 237,-154.6 229,-158.2001 229,-158.2001"/>
<ellipse fill="none" stroke="#000000" cx="225.8" cy="-158.2001" rx="3.2" ry="3.2"/>
</g>
</g>
</svg>
