<?xml version="1.0" encoding="UTF-8" standalone="no"?>
<!DOCTYPE svg PUBLIC "-//W3C//DTD SVG 1.1//EN"
 "http://www.w3.org/Graphics/SVG/1.1/DTD/svg11.dtd">
<!-- Generated by graphviz version 2.40.1 (20161225.0304)
 -->
<!-- Title: twoDegreesRelationshipsDiagram Pages: 1 -->
<svg width="557pt" height="547pt"
 viewBox="0.00 0.00 557.00 546.70" xmlns="http://www.w3.org/2000/svg" xmlns:xlink="http://www.w3.org/1999/xlink">
<g id="graph0" class="graph" transform="scale(1 1) rotate(0) translate(4 542.7)">
<title>twoDegreesRelationshipsDiagram</title>
<polygon fill="#ffffff" stroke="transparent" points="-4,4 -4,-542.7 553,-542.7 553,4 -4,4"/>
<text text-anchor="middle" x="72.4936" y="-7.3" font-family="Helvetica,sans-Serif" font-size="11.00" fill="#000000">Generated by SchemaSpy</text>
<!-- wms_rec_order_detail -->
<g id="node1" class="node">
<title>wms_rec_order_detail</title>
<g id="a_node1"><a xlink:href="../../tables/wms_rec_order_detail.html" xlink:title="wms_rec_order_detail" target="_top">
<polygon fill="#ffffff" stroke="transparent" points="296,-473.7 296,-534.7 480,-534.7 480,-473.7 296,-473.7"/>
<polygon fill="#f5f5f5" stroke="transparent" points="296,-511.2 296,-534.2 480,-534.2 480,-511.2 296,-511.2"/>
<polygon fill="none" stroke="#000000" points="296,-511.2 296,-534.2 480,-534.2 480,-511.2 296,-511.2"/>
<text text-anchor="start" x="301" y="-519.8" font-family="Helvetica,sans-Serif" font-weight="bold" font-size="11.00" fill="#000000">wms_rec_order_detail</text>
<text text-anchor="start" x="445.5219" y="-519.3" font-family="Helvetica,sans-Serif" font-size="11.00" fill="#000000">[table]</text>
<polygon fill="none" stroke="#000000" points="296,-492.2 296,-511.2 480,-511.2 480,-492.2 296,-492.2"/>
<text text-anchor="start" x="299" y="-498.3" font-family="Helvetica,sans-Serif" font-size="11.00" fill="#000000">...</text>
<polygon fill="#ffffff" stroke="transparent" points="296,-473.2 296,-492.2 386,-492.2 386,-473.2 296,-473.2"/>
<polygon fill="none" stroke="#000000" points="296,-473.2 296,-492.2 386,-492.2 386,-473.2 296,-473.2"/>
<text text-anchor="start" x="299" y="-479.3" font-family="Helvetica,sans-Serif" font-size="11.00" fill="#000000">&lt; 1</text>
<polygon fill="#ffffff" stroke="transparent" points="386,-473.2 386,-492.2 433,-492.2 433,-473.2 386,-473.2"/>
<polygon fill="none" stroke="#000000" points="386,-473.2 386,-492.2 433,-492.2 433,-473.2 386,-473.2"/>
<text text-anchor="start" x="423.8862" y="-479.3" font-family="Helvetica,sans-Serif" font-size="11.00" fill="#000000"> &#160;</text>
<polygon fill="#ffffff" stroke="transparent" points="433,-473.2 433,-492.2 480,-492.2 480,-473.2 433,-473.2"/>
<polygon fill="none" stroke="#000000" points="433,-473.2 433,-492.2 480,-492.2 480,-473.2 433,-473.2"/>
<text text-anchor="start" x="470.8862" y="-479.3" font-family="Helvetica,sans-Serif" font-size="11.00" fill="#000000"> &#160;</text>
</a>
</g>
</g>
<!-- wms_rec_order -->
<g id="node2" class="node">
<title>wms_rec_order</title>
<g id="a_node2"><a xlink:href="../../tables/wms_rec_order.html" xlink:title="wms_rec_order" target="_top">
<polygon fill="#ffffff" stroke="transparent" points="8,-348.7 8,-475.7 186,-475.7 186,-348.7 8,-348.7"/>
<polygon fill="#f5f5f5" stroke="transparent" points="8,-452.2 8,-475.2 186,-475.2 186,-452.2 8,-452.2"/>
<polygon fill="none" stroke="#000000" points="8,-452.2 8,-475.2 186,-475.2 186,-452.2 8,-452.2"/>
<text text-anchor="start" x="13" y="-460.8" font-family="Helvetica,sans-Serif" font-weight="bold" font-size="11.00" fill="#000000">wms_rec_order</text>
<text text-anchor="start" x="151.0437" y="-460.3" font-family="Helvetica,sans-Serif" font-size="11.00" fill="#000000">[table]</text>
<polygon fill="none" stroke="#000000" points="8,-430.2 8,-452.2 186,-452.2 186,-430.2 8,-430.2"/>
<image xlink:href="../../images/primaryKeys.png" width="11px" height="12px" preserveAspectRatio="xMinYMin meet" x="13" y="-447.2"/>
<text text-anchor="start" x="28" y="-437.3" font-family="Helvetica,sans-Serif" font-size="11.00" fill="#000000">c_pk</text>
<polygon fill="#ffffff" stroke="transparent" points="8,-408.2 8,-430.2 186,-430.2 186,-408.2 8,-408.2"/>
<polygon fill="none" stroke="#000000" points="8,-408.2 8,-430.2 186,-430.2 186,-408.2 8,-408.2"/>
<text text-anchor="start" x="28" y="-415.3" font-family="Helvetica,sans-Serif" font-size="11.00" fill="#000000">c_order_id</text>
<polygon fill="#ffffff" stroke="transparent" points="8,-386.2 8,-408.2 186,-408.2 186,-386.2 8,-386.2"/>
<polygon fill="none" stroke="#000000" points="8,-386.2 8,-408.2 186,-408.2 186,-386.2 8,-386.2"/>
<text text-anchor="start" x="28" y="-393.3" font-family="Helvetica,sans-Serif" font-size="11.00" fill="#000000">c_pid</text>
<polygon fill="none" stroke="#000000" points="8,-367.2 8,-386.2 186,-386.2 186,-367.2 8,-367.2"/>
<text text-anchor="start" x="11" y="-373.3" font-family="Helvetica,sans-Serif" font-size="11.00" fill="#000000">...</text>
<polygon fill="#ffffff" stroke="transparent" points="8,-348.2 8,-367.2 86,-367.2 86,-348.2 8,-348.2"/>
<polygon fill="none" stroke="#000000" points="8,-348.2 8,-367.2 86,-367.2 86,-348.2 8,-348.2"/>
<text text-anchor="start" x="11" y="-354.3" font-family="Helvetica,sans-Serif" font-size="11.00" fill="#000000"> &#160;</text>
<polygon fill="#ffffff" stroke="transparent" points="86,-348.2 86,-367.2 131,-367.2 131,-348.2 86,-348.2"/>
<polygon fill="none" stroke="#000000" points="86,-348.2 86,-367.2 131,-367.2 131,-348.2 86,-348.2"/>
<text text-anchor="start" x="121.8862" y="-354.3" font-family="Helvetica,sans-Serif" font-size="11.00" fill="#000000"> &#160;</text>
<polygon fill="#ffffff" stroke="transparent" points="131,-348.2 131,-367.2 186,-367.2 186,-348.2 131,-348.2"/>
<polygon fill="none" stroke="#000000" points="131,-348.2 131,-367.2 186,-367.2 186,-348.2 131,-348.2"/>
<text text-anchor="start" x="167.4053" y="-354.3" font-family="Helvetica,sans-Serif" font-size="11.00" fill="#000000">3 &gt;</text>
</a>
</g>
</g>
<!-- wms_rec_order_detail&#45;&gt;wms_rec_order -->
<g id="edge1" class="edge">
<title>wms_rec_order_detail:w&#45;&gt;wms_rec_order:e</title>
<path fill="none" stroke="#000000" d="M282.8034,-494.5497C254.1222,-478.928 188.76,-441.2 186,-441.2"/>
<polygon fill="#000000" stroke="#000000" points="288.8559,-497.5998 294.3799,-504.4149 292.4279,-499.3999 296,-501.2 296,-501.2 296,-501.2 292.4279,-499.3999 297.6201,-497.9851 288.8559,-497.5998 288.8559,-497.5998"/>
<ellipse fill="none" stroke="#000000" cx="285.9982" cy="-496.1597" rx="3.2" ry="3.2"/>
</g>
<!-- wms_rec_order_pos_product -->
<g id="node3" class="node">
<title>wms_rec_order_pos_product</title>
<g id="a_node3"><a xlink:href="../../tables/wms_rec_order_pos_product.html" xlink:title="wms_rec_order_pos_product" target="_top">
<polygon fill="#ffffff" stroke="transparent" points="274,-391.7 274,-452.7 502,-452.7 502,-391.7 274,-391.7"/>
<polygon fill="#f5f5f5" stroke="transparent" points="274,-429.2 274,-452.2 502,-452.2 502,-429.2 274,-429.2"/>
<polygon fill="none" stroke="#000000" points="274,-429.2 274,-452.2 502,-452.2 502,-429.2 274,-429.2"/>
<text text-anchor="start" x="279" y="-437.8" font-family="Helvetica,sans-Serif" font-weight="bold" font-size="11.00" fill="#000000">wms_rec_order_pos_product</text>
<text text-anchor="start" x="467.5219" y="-437.3" font-family="Helvetica,sans-Serif" font-size="11.00" fill="#000000">[table]</text>
<polygon fill="none" stroke="#000000" points="274,-410.2 274,-429.2 502,-429.2 502,-410.2 274,-410.2"/>
<text text-anchor="start" x="277" y="-416.3" font-family="Helvetica,sans-Serif" font-size="11.00" fill="#000000">...</text>
<polygon fill="#ffffff" stroke="transparent" points="274,-391.2 274,-410.2 386,-410.2 386,-391.2 274,-391.2"/>
<polygon fill="none" stroke="#000000" points="274,-391.2 274,-410.2 386,-410.2 386,-391.2 274,-391.2"/>
<text text-anchor="start" x="277" y="-397.3" font-family="Helvetica,sans-Serif" font-size="11.00" fill="#000000">&lt; 2</text>
<polygon fill="#ffffff" stroke="transparent" points="386,-391.2 386,-410.2 444,-410.2 444,-391.2 386,-391.2"/>
<polygon fill="none" stroke="#000000" points="386,-391.2 386,-410.2 444,-410.2 444,-391.2 386,-391.2"/>
<text text-anchor="start" x="434.8862" y="-397.3" font-family="Helvetica,sans-Serif" font-size="11.00" fill="#000000"> &#160;</text>
<polygon fill="#ffffff" stroke="transparent" points="444,-391.2 444,-410.2 502,-410.2 502,-391.2 444,-391.2"/>
<polygon fill="none" stroke="#000000" points="444,-391.2 444,-410.2 502,-410.2 502,-391.2 444,-391.2"/>
<text text-anchor="start" x="492.8862" y="-397.3" font-family="Helvetica,sans-Serif" font-size="11.00" fill="#000000"> &#160;</text>
</a>
</g>
</g>
<!-- wms_rec_order_pos_product&#45;&gt;wms_rec_order -->
<g id="edge2" class="edge">
<title>wms_rec_order_pos_product:w&#45;&gt;wms_rec_order:e</title>
<path fill="none" stroke="#000000" d="M259.4533,-419.2C231.667,-419.2 219.7639,-419.2 186,-419.2"/>
<polygon fill="#000000" stroke="#000000" points="266,-419.2001 274,-422.8 270,-419.2 274,-419.2 274,-419.2 274,-419.2 270,-419.2 274,-415.6 266,-419.2001 266,-419.2001"/>
<ellipse fill="none" stroke="#000000" cx="262.8" cy="-419.2001" rx="3.2" ry="3.2"/>
</g>
<!-- wms_rec_order_pos_tu -->
<g id="node4" class="node">
<title>wms_rec_order_pos_tu</title>
<g id="a_node4"><a xlink:href="../../tables/wms_rec_order_pos_tu.html" xlink:title="wms_rec_order_pos_tu" target="_top">
<polygon fill="#ffffff" stroke="transparent" points="235,-38.2 235,-370.2 541,-370.2 541,-38.2 235,-38.2"/>
<polygon fill="#f5f5f5" stroke="transparent" points="237,-345.2 237,-368.2 539,-368.2 539,-345.2 237,-345.2"/>
<polygon fill="none" stroke="#000000" points="237,-345.2 237,-368.2 539,-368.2 539,-345.2 237,-345.2"/>
<text text-anchor="start" x="242" y="-353.8" font-family="Helvetica,sans-Serif" font-weight="bold" font-size="11.00" fill="#000000">wms_rec_order_pos_tu</text>
<text text-anchor="start" x="504.0437" y="-353.3" font-family="Helvetica,sans-Serif" font-size="11.00" fill="#000000">[table]</text>
<polygon fill="#ffffff" stroke="transparent" points="237,-323.2 237,-345.2 447,-345.2 447,-323.2 237,-323.2"/>
<polygon fill="none" stroke="#000000" points="237,-323.2 237,-345.2 447,-345.2 447,-323.2 237,-323.2"/>
<text text-anchor="start" x="257" y="-330.3" font-family="Helvetica,sans-Serif" font-size="11.00" fill="#000000">c_pos_no</text>
<polygon fill="none" stroke="#000000" points="447,-323.2 447,-345.2 539,-345.2 539,-323.2 447,-323.2"/>
<text text-anchor="start" x="450" y="-330.9" font-family="Helvetica,sans-Serif" font-size="11.00" fill="#000000">int4[10]</text>
<polygon fill="none" stroke="#000000" points="237,-301.2 237,-323.2 447,-323.2 447,-301.2 237,-301.2"/>
<text text-anchor="start" x="257" y="-308.3" font-family="Helvetica,sans-Serif" font-size="11.00" fill="#000000">c_created</text>
<polygon fill="none" stroke="#000000" points="447,-301.2 447,-323.2 539,-323.2 539,-301.2 447,-301.2"/>
<text text-anchor="start" x="450" y="-308.9" font-family="Helvetica,sans-Serif" font-size="11.00" fill="#000000">timestamp[29,6]</text>
<polygon fill="none" stroke="#000000" points="237,-279.2 237,-301.2 447,-301.2 447,-279.2 237,-279.2"/>
<text text-anchor="start" x="257" y="-286.3" font-family="Helvetica,sans-Serif" font-size="11.00" fill="#000000">c_latest_due</text>
<polygon fill="none" stroke="#000000" points="447,-279.2 447,-301.2 539,-301.2 539,-279.2 447,-279.2"/>
<text text-anchor="start" x="449.6023" y="-286.9" font-family="Helvetica,sans-Serif" font-size="11.00" fill="#000000">timestamptz[35,6]</text>
<polygon fill="none" stroke="#000000" points="237,-257.2 237,-279.2 447,-279.2 447,-257.2 237,-257.2"/>
<text text-anchor="start" x="257" y="-264.3" font-family="Helvetica,sans-Serif" font-size="11.00" fill="#000000">c_ol</text>
<polygon fill="none" stroke="#000000" points="447,-257.2 447,-279.2 539,-279.2 539,-257.2 447,-257.2"/>
<text text-anchor="start" x="450" y="-264.9" font-family="Helvetica,sans-Serif" font-size="11.00" fill="#000000">int8[19]</text>
<polygon fill="none" stroke="#000000" points="237,-235.2 237,-257.2 447,-257.2 447,-235.2 237,-235.2"/>
<image xlink:href="../../images/primaryKeys.png" width="11px" height="12px" preserveAspectRatio="xMinYMin meet" x="242" y="-252.2"/>
<text text-anchor="start" x="257" y="-242.3" font-family="Helvetica,sans-Serif" font-size="11.00" fill="#000000">c_pk</text>
<polygon fill="none" stroke="#000000" points="447,-235.2 447,-257.2 539,-257.2 539,-235.2 447,-235.2"/>
<text text-anchor="start" x="450" y="-242.9" font-family="Helvetica,sans-Serif" font-size="11.00" fill="#000000">int8[19]</text>
<polygon fill="none" stroke="#000000" points="237,-213.2 237,-235.2 447,-235.2 447,-213.2 237,-213.2"/>
<text text-anchor="start" x="257" y="-220.3" font-family="Helvetica,sans-Serif" font-size="11.00" fill="#000000">c_updated</text>
<polygon fill="none" stroke="#000000" points="447,-213.2 447,-235.2 539,-235.2 539,-213.2 447,-213.2"/>
<text text-anchor="start" x="450" y="-220.9" font-family="Helvetica,sans-Serif" font-size="11.00" fill="#000000">timestamp[29,6]</text>
<polygon fill="none" stroke="#000000" points="237,-191.2 237,-213.2 447,-213.2 447,-191.2 237,-191.2"/>
<text text-anchor="start" x="257" y="-198.3" font-family="Helvetica,sans-Serif" font-size="11.00" fill="#000000">c_created_by</text>
<polygon fill="none" stroke="#000000" points="447,-191.2 447,-213.2 539,-213.2 539,-191.2 447,-191.2"/>
<text text-anchor="start" x="450" y="-198.9" font-family="Helvetica,sans-Serif" font-size="11.00" fill="#000000">varchar[255]</text>
<polygon fill="none" stroke="#000000" points="237,-169.2 237,-191.2 447,-191.2 447,-169.2 237,-169.2"/>
<text text-anchor="start" x="257" y="-176.3" font-family="Helvetica,sans-Serif" font-size="11.00" fill="#000000">c_expected_receipt_at</text>
<polygon fill="none" stroke="#000000" points="447,-169.2 447,-191.2 539,-191.2 539,-169.2 447,-169.2"/>
<text text-anchor="start" x="450" y="-176.9" font-family="Helvetica,sans-Serif" font-size="11.00" fill="#000000">varchar[255]</text>
<polygon fill="#ffffff" stroke="transparent" points="237,-147.2 237,-169.2 447,-169.2 447,-147.2 237,-147.2"/>
<polygon fill="none" stroke="#000000" points="237,-147.2 237,-169.2 447,-169.2 447,-147.2 237,-147.2"/>
<image xlink:href="../../images/foreignKeys.png" width="11px" height="12px" preserveAspectRatio="xMinYMin meet" x="242" y="-164.2"/>
<text text-anchor="start" x="257" y="-154.3" font-family="Helvetica,sans-Serif" font-size="11.00" fill="#000000">c_order_id</text>
<polygon fill="none" stroke="#000000" points="447,-147.2 447,-169.2 539,-169.2 539,-147.2 447,-147.2"/>
<text text-anchor="start" x="450" y="-154.9" font-family="Helvetica,sans-Serif" font-size="11.00" fill="#000000">varchar[255]</text>
<polygon fill="none" stroke="#000000" points="237,-125.2 237,-147.2 447,-147.2 447,-125.2 237,-125.2"/>
<text text-anchor="start" x="257" y="-132.3" font-family="Helvetica,sans-Serif" font-size="11.00" fill="#000000">c_state</text>
<polygon fill="none" stroke="#000000" points="447,-125.2 447,-147.2 539,-147.2 539,-125.2 447,-125.2"/>
<text text-anchor="start" x="450" y="-132.9" font-family="Helvetica,sans-Serif" font-size="11.00" fill="#000000">varchar[255]</text>
<polygon fill="none" stroke="#000000" points="237,-103.2 237,-125.2 447,-125.2 447,-103.2 237,-103.2"/>
<text text-anchor="start" x="257" y="-110.3" font-family="Helvetica,sans-Serif" font-size="11.00" fill="#000000">c_transport_unit_bk</text>
<polygon fill="none" stroke="#000000" points="447,-103.2 447,-125.2 539,-125.2 539,-103.2 447,-103.2"/>
<text text-anchor="start" x="450" y="-110.9" font-family="Helvetica,sans-Serif" font-size="11.00" fill="#000000">varchar[255]</text>
<polygon fill="none" stroke="#000000" points="237,-81.2 237,-103.2 447,-103.2 447,-81.2 237,-81.2"/>
<text text-anchor="start" x="257" y="-88.3" font-family="Helvetica,sans-Serif" font-size="11.00" fill="#000000">c_transport_unit_type_name</text>
<polygon fill="none" stroke="#000000" points="447,-81.2 447,-103.2 539,-103.2 539,-81.2 447,-81.2"/>
<text text-anchor="start" x="450" y="-88.9" font-family="Helvetica,sans-Serif" font-size="11.00" fill="#000000">varchar[255]</text>
<polygon fill="none" stroke="#000000" points="237,-59.2 237,-81.2 447,-81.2 447,-59.2 237,-59.2"/>
<text text-anchor="start" x="257" y="-66.3" font-family="Helvetica,sans-Serif" font-size="11.00" fill="#000000">c_updated_by</text>
<polygon fill="none" stroke="#000000" points="447,-59.2 447,-81.2 539,-81.2 539,-59.2 447,-59.2"/>
<text text-anchor="start" x="450" y="-66.9" font-family="Helvetica,sans-Serif" font-size="11.00" fill="#000000">varchar[255]</text>
<polygon fill="#ffffff" stroke="transparent" points="237,-40.2 237,-59.2 346,-59.2 346,-40.2 237,-40.2"/>
<polygon fill="none" stroke="#000000" points="237,-40.2 237,-59.2 346,-59.2 346,-40.2 237,-40.2"/>
<text text-anchor="start" x="240" y="-46.3" font-family="Helvetica,sans-Serif" font-size="11.00" fill="#000000">&lt; 1</text>
<polygon fill="#ffffff" stroke="transparent" points="346,-40.2 346,-59.2 447,-59.2 447,-40.2 346,-40.2"/>
<polygon fill="none" stroke="#000000" points="346,-40.2 346,-59.2 447,-59.2 447,-40.2 346,-40.2"/>
<text text-anchor="start" x="437.8862" y="-46.3" font-family="Helvetica,sans-Serif" font-size="11.00" fill="#000000"> &#160;</text>
<polygon fill="#ffffff" stroke="transparent" points="447,-40.2 447,-59.2 539,-59.2 539,-40.2 447,-40.2"/>
<polygon fill="none" stroke="#000000" points="447,-40.2 447,-59.2 539,-59.2 539,-40.2 447,-40.2"/>
<text text-anchor="start" x="520.4053" y="-46.3" font-family="Helvetica,sans-Serif" font-size="11.00" fill="#000000">0 &gt;</text>
<polygon fill="none" stroke="#000000" stroke-width="2" points="236,-39.2 236,-369.2 540,-369.2 540,-39.2 236,-39.2"/>
</a>
</g>
</g>
<!-- wms_rec_order_pos_tu&#45;&gt;wms_rec_order -->
<g id="edge3" class="edge">
<title>wms_rec_order_pos_tu:w&#45;&gt;wms_rec_order:e</title>
<path fill="none" stroke="#000000" d="M223.5008,-164.6517C189.392,-204.8436 239.5566,-419.2 186,-419.2"/>
<polygon fill="#000000" stroke="#000000" points="229.782,-161.6498 238.5524,-161.4481 233.391,-159.9249 237,-158.2 237,-158.2 237,-158.2 233.391,-159.9249 235.4476,-154.9519 229.782,-161.6498 229.782,-161.6498"/>
<ellipse fill="none" stroke="#000000" cx="226.8948" cy="-163.0297" rx="3.2" ry="3.2"/>
</g>
</g>
</svg>
