<?xml version="1.0" encoding="UTF-8" standalone="no"?>
<!DOCTYPE svg PUBLIC "-//W3C//DTD SVG 1.1//EN"
 "http://www.w3.org/Graphics/SVG/1.1/DTD/svg11.dtd">
<!-- Generated by graphviz version 2.40.1 (20161225.0304)
 -->
<!-- Title: twoDegreesRelationshipsDiagram Pages: 1 -->
<svg width="488pt" height="327pt"
 viewBox="0.00 0.00 488.00 326.70" xmlns="http://www.w3.org/2000/svg" xmlns:xlink="http://www.w3.org/1999/xlink">
<g id="graph0" class="graph" transform="scale(1 1) rotate(0) translate(4 322.7)">
<title>twoDegreesRelationshipsDiagram</title>
<polygon fill="#ffffff" stroke="transparent" points="-4,4 -4,-322.7 484,-322.7 484,4 -4,4"/>
<text text-anchor="middle" x="72.4936" y="-7.3" font-family="Helvetica,sans-Serif" font-size="11.00" fill="#000000">Generated by SchemaSpy</text>
<!-- wms_rec_order_detail -->
<g id="node1" class="node">
<title>wms_rec_order_detail</title>
<g id="a_node1"><a xlink:href="../../tables/wms_rec_order_detail.html" xlink:title="wms_rec_order_detail" target="_top">
<polygon fill="#ffffff" stroke="transparent" points="235,-202.7 235,-314.7 472,-314.7 472,-202.7 235,-202.7"/>
<polygon fill="#f5f5f5" stroke="transparent" points="237.5,-289.7 237.5,-312.7 470.5,-312.7 470.5,-289.7 237.5,-289.7"/>
<polygon fill="none" stroke="#000000" points="237.5,-289.7 237.5,-312.7 470.5,-312.7 470.5,-289.7 237.5,-289.7"/>
<text text-anchor="start" x="242.5" y="-298.3" font-family="Helvetica,sans-Serif" font-weight="bold" font-size="11.00" fill="#000000">wms_rec_order_detail</text>
<text text-anchor="start" x="435.5437" y="-297.8" font-family="Helvetica,sans-Serif" font-size="11.00" fill="#000000">[table]</text>
<polygon fill="none" stroke="#000000" points="237.5,-267.7 237.5,-289.7 403.5,-289.7 403.5,-267.7 237.5,-267.7"/>
<image xlink:href="../../images/primaryKeys.png" width="11px" height="12px" preserveAspectRatio="xMinYMin meet" x="242.5" y="-284.7"/>
<text text-anchor="start" x="257.5" y="-274.8" font-family="Helvetica,sans-Serif" font-size="11.00" fill="#000000">c_order_pk</text>
<polygon fill="none" stroke="#000000" points="403.5,-267.7 403.5,-289.7 470.5,-289.7 470.5,-267.7 403.5,-267.7"/>
<text text-anchor="start" x="406.5" y="-275.4" font-family="Helvetica,sans-Serif" font-size="11.00" fill="#000000">int8[19]</text>
<polygon fill="none" stroke="#000000" points="237.5,-245.7 237.5,-267.7 403.5,-267.7 403.5,-245.7 237.5,-245.7"/>
<image xlink:href="../../images/primaryKeys.png" width="11px" height="12px" preserveAspectRatio="xMinYMin meet" x="242.5" y="-262.7"/>
<text text-anchor="start" x="257.5" y="-252.8" font-family="Helvetica,sans-Serif" font-size="11.00" fill="#000000">c_key</text>
<polygon fill="none" stroke="#000000" points="403.5,-245.7 403.5,-267.7 470.5,-267.7 470.5,-245.7 403.5,-245.7"/>
<text text-anchor="start" x="406.4365" y="-253.4" font-family="Helvetica,sans-Serif" font-size="11.00" fill="#000000">varchar[255]</text>
<polygon fill="none" stroke="#000000" points="237.5,-223.7 237.5,-245.7 403.5,-245.7 403.5,-223.7 237.5,-223.7"/>
<text text-anchor="start" x="257.5" y="-230.8" font-family="Helvetica,sans-Serif" font-size="11.00" fill="#000000">c_value</text>
<polygon fill="none" stroke="#000000" points="403.5,-223.7 403.5,-245.7 470.5,-245.7 470.5,-223.7 403.5,-223.7"/>
<text text-anchor="start" x="406.4365" y="-231.4" font-family="Helvetica,sans-Serif" font-size="11.00" fill="#000000">varchar[255]</text>
<polygon fill="#ffffff" stroke="transparent" points="237.5,-204.7 237.5,-223.7 324.5,-223.7 324.5,-204.7 237.5,-204.7"/>
<polygon fill="none" stroke="#000000" points="237.5,-204.7 237.5,-223.7 324.5,-223.7 324.5,-204.7 237.5,-204.7"/>
<text text-anchor="start" x="240.5" y="-210.8" font-family="Helvetica,sans-Serif" font-size="11.00" fill="#000000">&lt; 1</text>
<polygon fill="#ffffff" stroke="transparent" points="324.5,-204.7 324.5,-223.7 403.5,-223.7 403.5,-204.7 324.5,-204.7"/>
<polygon fill="none" stroke="#000000" points="324.5,-204.7 324.5,-223.7 403.5,-223.7 403.5,-204.7 324.5,-204.7"/>
<text text-anchor="start" x="394.3862" y="-210.8" font-family="Helvetica,sans-Serif" font-size="11.00" fill="#000000"> &#160;</text>
<polygon fill="#ffffff" stroke="transparent" points="403.5,-204.7 403.5,-223.7 470.5,-223.7 470.5,-204.7 403.5,-204.7"/>
<polygon fill="none" stroke="#000000" points="403.5,-204.7 403.5,-223.7 470.5,-223.7 470.5,-204.7 403.5,-204.7"/>
<text text-anchor="start" x="451.9053" y="-210.8" font-family="Helvetica,sans-Serif" font-size="11.00" fill="#000000">0 &gt;</text>
<polygon fill="none" stroke="#000000" stroke-width="2" points="236,-203.7 236,-313.7 471,-313.7 471,-203.7 236,-203.7"/>
</a>
</g>
</g>
<!-- wms_rec_order -->
<g id="node2" class="node">
<title>wms_rec_order</title>
<g id="a_node2"><a xlink:href="../../tables/wms_rec_order.html" xlink:title="wms_rec_order" target="_top">
<polygon fill="#ffffff" stroke="transparent" points="8,-77.2 8,-204.2 186,-204.2 186,-77.2 8,-77.2"/>
<polygon fill="#f5f5f5" stroke="transparent" points="8,-180.7 8,-203.7 186,-203.7 186,-180.7 8,-180.7"/>
<polygon fill="none" stroke="#000000" points="8,-180.7 8,-203.7 186,-203.7 186,-180.7 8,-180.7"/>
<text text-anchor="start" x="13" y="-189.3" font-family="Helvetica,sans-Serif" font-weight="bold" font-size="11.00" fill="#000000">wms_rec_order</text>
<text text-anchor="start" x="151.0437" y="-188.8" font-family="Helvetica,sans-Serif" font-size="11.00" fill="#000000">[table]</text>
<polygon fill="none" stroke="#000000" points="8,-158.7 8,-180.7 186,-180.7 186,-158.7 8,-158.7"/>
<image xlink:href="../../images/primaryKeys.png" width="11px" height="12px" preserveAspectRatio="xMinYMin meet" x="13" y="-175.7"/>
<text text-anchor="start" x="28" y="-165.8" font-family="Helvetica,sans-Serif" font-size="11.00" fill="#000000">c_pk</text>
<polygon fill="#ffffff" stroke="transparent" points="8,-136.7 8,-158.7 186,-158.7 186,-136.7 8,-136.7"/>
<polygon fill="none" stroke="#000000" points="8,-136.7 8,-158.7 186,-158.7 186,-136.7 8,-136.7"/>
<text text-anchor="start" x="28" y="-143.8" font-family="Helvetica,sans-Serif" font-size="11.00" fill="#000000">c_order_id</text>
<polygon fill="#ffffff" stroke="transparent" points="8,-114.7 8,-136.7 186,-136.7 186,-114.7 8,-114.7"/>
<polygon fill="none" stroke="#000000" points="8,-114.7 8,-136.7 186,-136.7 186,-114.7 8,-114.7"/>
<text text-anchor="start" x="28" y="-121.8" font-family="Helvetica,sans-Serif" font-size="11.00" fill="#000000">c_pid</text>
<polygon fill="none" stroke="#000000" points="8,-95.7 8,-114.7 186,-114.7 186,-95.7 8,-95.7"/>
<text text-anchor="start" x="11" y="-101.8" font-family="Helvetica,sans-Serif" font-size="11.00" fill="#000000">...</text>
<polygon fill="#ffffff" stroke="transparent" points="8,-76.7 8,-95.7 86,-95.7 86,-76.7 8,-76.7"/>
<polygon fill="none" stroke="#000000" points="8,-76.7 8,-95.7 86,-95.7 86,-76.7 8,-76.7"/>
<text text-anchor="start" x="11" y="-82.8" font-family="Helvetica,sans-Serif" font-size="11.00" fill="#000000"> &#160;</text>
<polygon fill="#ffffff" stroke="transparent" points="86,-76.7 86,-95.7 131,-95.7 131,-76.7 86,-76.7"/>
<polygon fill="none" stroke="#000000" points="86,-76.7 86,-95.7 131,-95.7 131,-76.7 86,-76.7"/>
<text text-anchor="start" x="121.8862" y="-82.8" font-family="Helvetica,sans-Serif" font-size="11.00" fill="#000000"> &#160;</text>
<polygon fill="#ffffff" stroke="transparent" points="131,-76.7 131,-95.7 186,-95.7 186,-76.7 131,-76.7"/>
<polygon fill="none" stroke="#000000" points="131,-76.7 131,-95.7 186,-95.7 186,-76.7 131,-76.7"/>
<text text-anchor="start" x="167.4053" y="-82.8" font-family="Helvetica,sans-Serif" font-size="11.00" fill="#000000">3 &gt;</text>
</a>
</g>
</g>
<!-- wms_rec_order_detail&#45;&gt;wms_rec_order -->
<g id="edge1" class="edge">
<title>wms_rec_order_detail:w&#45;&gt;wms_rec_order:e</title>
<path fill="none" stroke="#000000" d="M223.5538,-275.0734C194.7891,-256.1602 233.7193,-169.7 186,-169.7"/>
<polygon fill="#000000" stroke="#000000" points="229.7575,-276.6866 236.594,-282.1841 233.6288,-277.6933 237.5,-278.7 237.5,-278.7 237.5,-278.7 233.6288,-277.6933 238.406,-275.2159 229.7575,-276.6866 229.7575,-276.6866"/>
<ellipse fill="none" stroke="#000000" cx="226.6605" cy="-275.8812" rx="3.2" ry="3.2"/>
</g>
<!-- wms_rec_order_pos_product -->
<g id="node3" class="node">
<title>wms_rec_order_pos_product</title>
<g id="a_node3"><a xlink:href="../../tables/wms_rec_order_pos_product.html" xlink:title="wms_rec_order_pos_product" target="_top">
<polygon fill="#ffffff" stroke="transparent" points="239.5,-120.2 239.5,-181.2 467.5,-181.2 467.5,-120.2 239.5,-120.2"/>
<polygon fill="#f5f5f5" stroke="transparent" points="239.5,-157.7 239.5,-180.7 467.5,-180.7 467.5,-157.7 239.5,-157.7"/>
<polygon fill="none" stroke="#000000" points="239.5,-157.7 239.5,-180.7 467.5,-180.7 467.5,-157.7 239.5,-157.7"/>
<text text-anchor="start" x="244.5" y="-166.3" font-family="Helvetica,sans-Serif" font-weight="bold" font-size="11.00" fill="#000000">wms_rec_order_pos_product</text>
<text text-anchor="start" x="433.0219" y="-165.8" font-family="Helvetica,sans-Serif" font-size="11.00" fill="#000000">[table]</text>
<polygon fill="none" stroke="#000000" points="239.5,-138.7 239.5,-157.7 467.5,-157.7 467.5,-138.7 239.5,-138.7"/>
<text text-anchor="start" x="242.5" y="-144.8" font-family="Helvetica,sans-Serif" font-size="11.00" fill="#000000">...</text>
<polygon fill="#ffffff" stroke="transparent" points="239.5,-119.7 239.5,-138.7 351.5,-138.7 351.5,-119.7 239.5,-119.7"/>
<polygon fill="none" stroke="#000000" points="239.5,-119.7 239.5,-138.7 351.5,-138.7 351.5,-119.7 239.5,-119.7"/>
<text text-anchor="start" x="242.5" y="-125.8" font-family="Helvetica,sans-Serif" font-size="11.00" fill="#000000">&lt; 2</text>
<polygon fill="#ffffff" stroke="transparent" points="351.5,-119.7 351.5,-138.7 409.5,-138.7 409.5,-119.7 351.5,-119.7"/>
<polygon fill="none" stroke="#000000" points="351.5,-119.7 351.5,-138.7 409.5,-138.7 409.5,-119.7 351.5,-119.7"/>
<text text-anchor="start" x="400.3862" y="-125.8" font-family="Helvetica,sans-Serif" font-size="11.00" fill="#000000"> &#160;</text>
<polygon fill="#ffffff" stroke="transparent" points="409.5,-119.7 409.5,-138.7 467.5,-138.7 467.5,-119.7 409.5,-119.7"/>
<polygon fill="none" stroke="#000000" points="409.5,-119.7 409.5,-138.7 467.5,-138.7 467.5,-119.7 409.5,-119.7"/>
<text text-anchor="start" x="458.3862" y="-125.8" font-family="Helvetica,sans-Serif" font-size="11.00" fill="#000000"> &#160;</text>
</a>
</g>
</g>
<!-- wms_rec_order_pos_product&#45;&gt;wms_rec_order -->
<g id="edge2" class="edge">
<title>wms_rec_order_pos_product:w&#45;&gt;wms_rec_order:e</title>
<path fill="none" stroke="#000000" d="M224.8553,-147.7C211.7969,-147.7 204.0191,-147.7 186,-147.7"/>
<polygon fill="#000000" stroke="#000000" points="231.5,-147.7001 239.5,-151.3 235.5,-147.7 239.5,-147.7 239.5,-147.7 239.5,-147.7 235.5,-147.7 239.5,-144.1 231.5,-147.7001 231.5,-147.7001"/>
<ellipse fill="none" stroke="#000000" cx="228.3" cy="-147.7001" rx="3.2" ry="3.2"/>
</g>
<!-- wms_rec_order_pos_tu -->
<g id="node4" class="node">
<title>wms_rec_order_pos_tu</title>
<g id="a_node4"><a xlink:href="../../tables/wms_rec_order_pos_tu.html" xlink:title="wms_rec_order_pos_tu" target="_top">
<polygon fill="#ffffff" stroke="transparent" points="259,-38.2 259,-99.2 448,-99.2 448,-38.2 259,-38.2"/>
<polygon fill="#f5f5f5" stroke="transparent" points="259.5,-75.7 259.5,-98.7 448.5,-98.7 448.5,-75.7 259.5,-75.7"/>
<polygon fill="none" stroke="#000000" points="259.5,-75.7 259.5,-98.7 448.5,-98.7 448.5,-75.7 259.5,-75.7"/>
<text text-anchor="start" x="264.5" y="-84.3" font-family="Helvetica,sans-Serif" font-weight="bold" font-size="11.00" fill="#000000">wms_rec_order_pos_tu</text>
<text text-anchor="start" x="414.0219" y="-83.8" font-family="Helvetica,sans-Serif" font-size="11.00" fill="#000000">[table]</text>
<polygon fill="none" stroke="#000000" points="259.5,-56.7 259.5,-75.7 448.5,-75.7 448.5,-56.7 259.5,-56.7"/>
<text text-anchor="start" x="262.5" y="-62.8" font-family="Helvetica,sans-Serif" font-size="11.00" fill="#000000">...</text>
<polygon fill="#ffffff" stroke="transparent" points="259.5,-37.7 259.5,-56.7 352.5,-56.7 352.5,-37.7 259.5,-37.7"/>
<polygon fill="none" stroke="#000000" points="259.5,-37.7 259.5,-56.7 352.5,-56.7 352.5,-37.7 259.5,-37.7"/>
<text text-anchor="start" x="262.5" y="-43.8" font-family="Helvetica,sans-Serif" font-size="11.00" fill="#000000">&lt; 1</text>
<polygon fill="#ffffff" stroke="transparent" points="352.5,-37.7 352.5,-56.7 400.5,-56.7 400.5,-37.7 352.5,-37.7"/>
<polygon fill="none" stroke="#000000" points="352.5,-37.7 352.5,-56.7 400.5,-56.7 400.5,-37.7 352.5,-37.7"/>
<text text-anchor="start" x="391.3862" y="-43.8" font-family="Helvetica,sans-Serif" font-size="11.00" fill="#000000"> &#160;</text>
<polygon fill="#ffffff" stroke="transparent" points="400.5,-37.7 400.5,-56.7 448.5,-56.7 448.5,-37.7 400.5,-37.7"/>
<polygon fill="none" stroke="#000000" points="400.5,-37.7 400.5,-56.7 448.5,-56.7 448.5,-37.7 400.5,-37.7"/>
<text text-anchor="start" x="439.3862" y="-43.8" font-family="Helvetica,sans-Serif" font-size="11.00" fill="#000000"> &#160;</text>
</a>
</g>
</g>
<!-- wms_rec_order_pos_tu&#45;&gt;wms_rec_order -->
<g id="edge3" class="edge">
<title>wms_rec_order_pos_tu:w&#45;&gt;wms_rec_order:e</title>
<path fill="none" stroke="#000000" d="M245.0788,-68.8144C215.2661,-83.7927 229.2065,-147.7 186,-147.7"/>
<polygon fill="#000000" stroke="#000000" points="251.6803,-67.3888 260.2599,-69.2189 255.5901,-66.5444 259.5,-65.7 259.5,-65.7 259.5,-65.7 255.5901,-66.5444 258.7401,-62.1811 251.6803,-67.3888 251.6803,-67.3888"/>
<ellipse fill="none" stroke="#000000" cx="248.5524" cy="-68.0643" rx="3.2" ry="3.2"/>
</g>
</g>
</svg>
