<?xml version="1.0" encoding="UTF-8" standalone="no"?>
<!DOCTYPE svg PUBLIC "-//W3C//DTD SVG 1.1//EN"
 "http://www.w3.org/Graphics/SVG/1.1/DTD/svg11.dtd">
<!-- Generated by graphviz version 2.40.1 (20161225.0304)
 -->
<!-- Title: oneDegreeRelationshipsDiagram Pages: 1 -->
<svg width="567pt" height="635pt"
 viewBox="0.00 0.00 567.00 634.70" xmlns="http://www.w3.org/2000/svg" xmlns:xlink="http://www.w3.org/1999/xlink">
<g id="graph0" class="graph" transform="scale(1 1) rotate(0) translate(4 630.7)">
<title>oneDegreeRelationshipsDiagram</title>
<polygon fill="#ffffff" stroke="transparent" points="-4,4 -4,-630.7 563,-630.7 563,4 -4,4"/>
<text text-anchor="middle" x="72.4936" y="-7.3" font-family="Helvetica,sans-Serif" font-size="11.00" fill="#000000">Generated by SchemaSpy</text>
<!-- wms_rec_order_detail -->
<g id="node1" class="node">
<title>wms_rec_order_detail</title>
<g id="a_node1"><a xlink:href="../../tables/wms_rec_order_detail.html" xlink:title="wms_rec_order_detail" target="_top">
<polygon fill="#ffffff" stroke="transparent" points="345,-356.2 345,-461.2 529,-461.2 529,-356.2 345,-356.2"/>
<polygon fill="#f5f5f5" stroke="transparent" points="345,-437.7 345,-460.7 529,-460.7 529,-437.7 345,-437.7"/>
<polygon fill="none" stroke="#000000" points="345,-437.7 345,-460.7 529,-460.7 529,-437.7 345,-437.7"/>
<text text-anchor="start" x="350" y="-446.3" font-family="Helvetica,sans-Serif" font-weight="bold" font-size="11.00" fill="#000000">wms_rec_order_detail</text>
<text text-anchor="start" x="494.5219" y="-445.8" font-family="Helvetica,sans-Serif" font-size="11.00" fill="#000000">[table]</text>
<polygon fill="none" stroke="#000000" points="345,-415.7 345,-437.7 529,-437.7 529,-415.7 345,-415.7"/>
<image xlink:href="../../images/primaryKeys.png" width="11px" height="12px" preserveAspectRatio="xMinYMin meet" x="350" y="-432.7"/>
<text text-anchor="start" x="374" y="-422.8" font-family="Helvetica,sans-Serif" font-size="11.00" fill="#000000">c_order_pk</text>
<polygon fill="none" stroke="#000000" points="345,-393.7 345,-415.7 529,-415.7 529,-393.7 345,-393.7"/>
<image xlink:href="../../images/primaryKeys.png" width="11px" height="12px" preserveAspectRatio="xMinYMin meet" x="350" y="-410.7"/>
<text text-anchor="start" x="374" y="-400.8" font-family="Helvetica,sans-Serif" font-size="11.00" fill="#000000">c_key</text>
<polygon fill="none" stroke="#000000" points="345,-374.7 345,-393.7 529,-393.7 529,-374.7 345,-374.7"/>
<text text-anchor="start" x="348" y="-380.8" font-family="Helvetica,sans-Serif" font-size="11.00" fill="#000000">...</text>
<polygon fill="#ffffff" stroke="transparent" points="345,-355.7 345,-374.7 435,-374.7 435,-355.7 345,-355.7"/>
<polygon fill="none" stroke="#000000" points="345,-355.7 345,-374.7 435,-374.7 435,-355.7 345,-355.7"/>
<text text-anchor="start" x="348" y="-361.8" font-family="Helvetica,sans-Serif" font-size="11.00" fill="#000000">&lt; 1</text>
<polygon fill="#ffffff" stroke="transparent" points="435,-355.7 435,-374.7 482,-374.7 482,-355.7 435,-355.7"/>
<polygon fill="none" stroke="#000000" points="435,-355.7 435,-374.7 482,-374.7 482,-355.7 435,-355.7"/>
<text text-anchor="start" x="472.8862" y="-361.8" font-family="Helvetica,sans-Serif" font-size="11.00" fill="#000000"> &#160;</text>
<polygon fill="#ffffff" stroke="transparent" points="482,-355.7 482,-374.7 529,-374.7 529,-355.7 482,-355.7"/>
<polygon fill="none" stroke="#000000" points="482,-355.7 482,-374.7 529,-374.7 529,-355.7 482,-355.7"/>
<text text-anchor="start" x="519.8862" y="-361.8" font-family="Helvetica,sans-Serif" font-size="11.00" fill="#000000"> &#160;</text>
</a>
</g>
</g>
<!-- wms_rec_order -->
<g id="node2" class="node">
<title>wms_rec_order</title>
<g id="a_node2"><a xlink:href="../../tables/wms_rec_order.html" xlink:title="wms_rec_order" target="_top">
<polygon fill="#ffffff" stroke="transparent" points="8,-136.7 8,-622.7 274,-622.7 274,-136.7 8,-136.7"/>
<polygon fill="#f5f5f5" stroke="transparent" points="10,-597.7 10,-620.7 272,-620.7 272,-597.7 10,-597.7"/>
<polygon fill="none" stroke="#000000" points="10,-597.7 10,-620.7 272,-620.7 272,-597.7 10,-597.7"/>
<text text-anchor="start" x="15" y="-606.3" font-family="Helvetica,sans-Serif" font-weight="bold" font-size="11.00" fill="#000000">wms_rec_order</text>
<text text-anchor="start" x="237.0437" y="-605.8" font-family="Helvetica,sans-Serif" font-size="11.00" fill="#000000">[table]</text>
<polygon fill="none" stroke="#000000" points="10,-575.7 10,-597.7 188,-597.7 188,-575.7 10,-575.7"/>
<text text-anchor="start" x="30" y="-582.8" font-family="Helvetica,sans-Serif" font-size="11.00" fill="#000000">c_locked</text>
<polygon fill="none" stroke="#000000" points="188,-575.7 188,-597.7 272,-597.7 272,-575.7 188,-575.7"/>
<text text-anchor="start" x="191" y="-583.4" font-family="Helvetica,sans-Serif" font-size="11.00" fill="#000000">bool[1]</text>
<polygon fill="none" stroke="#000000" points="10,-553.7 10,-575.7 188,-575.7 188,-553.7 10,-553.7"/>
<text text-anchor="start" x="30" y="-560.8" font-family="Helvetica,sans-Serif" font-size="11.00" fill="#000000">c_priority</text>
<polygon fill="none" stroke="#000000" points="188,-553.7 188,-575.7 272,-575.7 272,-553.7 188,-553.7"/>
<text text-anchor="start" x="191" y="-561.4" font-family="Helvetica,sans-Serif" font-size="11.00" fill="#000000">int4[10]</text>
<polygon fill="none" stroke="#000000" points="10,-531.7 10,-553.7 188,-553.7 188,-531.7 10,-531.7"/>
<text text-anchor="start" x="30" y="-538.8" font-family="Helvetica,sans-Serif" font-size="11.00" fill="#000000">c_problem_message_no</text>
<polygon fill="none" stroke="#000000" points="188,-531.7 188,-553.7 272,-553.7 272,-531.7 188,-531.7"/>
<text text-anchor="start" x="191" y="-539.4" font-family="Helvetica,sans-Serif" font-size="11.00" fill="#000000">int4[10]</text>
<polygon fill="none" stroke="#000000" points="10,-509.7 10,-531.7 188,-531.7 188,-509.7 10,-509.7"/>
<text text-anchor="start" x="30" y="-516.8" font-family="Helvetica,sans-Serif" font-size="11.00" fill="#000000">c_created</text>
<polygon fill="none" stroke="#000000" points="188,-509.7 188,-531.7 272,-531.7 272,-509.7 188,-509.7"/>
<text text-anchor="start" x="190.8807" y="-517.4" font-family="Helvetica,sans-Serif" font-size="11.00" fill="#000000">timestamp[29,6]</text>
<polygon fill="none" stroke="#000000" points="10,-487.7 10,-509.7 188,-509.7 188,-487.7 10,-487.7"/>
<text text-anchor="start" x="30" y="-494.8" font-family="Helvetica,sans-Serif" font-size="11.00" fill="#000000">c_ended_at</text>
<polygon fill="none" stroke="#000000" points="188,-487.7 188,-509.7 272,-509.7 272,-487.7 188,-487.7"/>
<text text-anchor="start" x="191" y="-495.4" font-family="Helvetica,sans-Serif" font-size="11.00" fill="#000000">timestamp[22]</text>
<polygon fill="none" stroke="#000000" points="10,-465.7 10,-487.7 188,-487.7 188,-465.7 10,-465.7"/>
<text text-anchor="start" x="30" y="-472.8" font-family="Helvetica,sans-Serif" font-size="11.00" fill="#000000">c_expected_receipt</text>
<polygon fill="none" stroke="#000000" points="188,-465.7 188,-487.7 272,-487.7 272,-465.7 188,-465.7"/>
<text text-anchor="start" x="191" y="-473.4" font-family="Helvetica,sans-Serif" font-size="11.00" fill="#000000">timestamp[22]</text>
<polygon fill="none" stroke="#000000" points="10,-443.7 10,-465.7 188,-465.7 188,-443.7 10,-443.7"/>
<text text-anchor="start" x="30" y="-450.8" font-family="Helvetica,sans-Serif" font-size="11.00" fill="#000000">c_latest_due_at</text>
<polygon fill="none" stroke="#000000" points="188,-443.7 188,-465.7 272,-465.7 272,-443.7 188,-443.7"/>
<text text-anchor="start" x="191" y="-451.4" font-family="Helvetica,sans-Serif" font-size="11.00" fill="#000000">timestamp[22]</text>
<polygon fill="none" stroke="#000000" points="10,-421.7 10,-443.7 188,-443.7 188,-421.7 10,-421.7"/>
<text text-anchor="start" x="30" y="-428.8" font-family="Helvetica,sans-Serif" font-size="11.00" fill="#000000">c_next_alloc_at</text>
<polygon fill="none" stroke="#000000" points="188,-421.7 188,-443.7 272,-443.7 272,-421.7 188,-421.7"/>
<text text-anchor="start" x="191" y="-429.4" font-family="Helvetica,sans-Serif" font-size="11.00" fill="#000000">timestamp[22]</text>
<polygon fill="none" stroke="#000000" points="10,-399.7 10,-421.7 188,-421.7 188,-399.7 10,-399.7"/>
<text text-anchor="start" x="30" y="-406.8" font-family="Helvetica,sans-Serif" font-size="11.00" fill="#000000">c_ol</text>
<polygon fill="none" stroke="#000000" points="188,-399.7 188,-421.7 272,-421.7 272,-399.7 188,-399.7"/>
<text text-anchor="start" x="191" y="-407.4" font-family="Helvetica,sans-Serif" font-size="11.00" fill="#000000">int8[19]</text>
<polygon fill="none" stroke="#000000" points="10,-377.7 10,-399.7 188,-399.7 188,-377.7 10,-377.7"/>
<image xlink:href="../../images/primaryKeys.png" width="11px" height="12px" preserveAspectRatio="xMinYMin meet" x="15" y="-394.7"/>
<text text-anchor="start" x="30" y="-384.8" font-family="Helvetica,sans-Serif" font-size="11.00" fill="#000000">c_pk</text>
<polygon fill="none" stroke="#000000" points="188,-377.7 188,-399.7 272,-399.7 272,-377.7 188,-377.7"/>
<text text-anchor="start" x="191" y="-385.4" font-family="Helvetica,sans-Serif" font-size="11.00" fill="#000000">int8[19]</text>
<polygon fill="none" stroke="#000000" points="10,-355.7 10,-377.7 188,-377.7 188,-355.7 10,-355.7"/>
<text text-anchor="start" x="30" y="-362.8" font-family="Helvetica,sans-Serif" font-size="11.00" fill="#000000">c_problem_occurred</text>
<polygon fill="none" stroke="#000000" points="188,-355.7 188,-377.7 272,-377.7 272,-355.7 188,-355.7"/>
<text text-anchor="start" x="190.8807" y="-363.4" font-family="Helvetica,sans-Serif" font-size="11.00" fill="#000000">timestamp[29,6]</text>
<polygon fill="none" stroke="#000000" points="10,-333.7 10,-355.7 188,-355.7 188,-333.7 10,-333.7"/>
<text text-anchor="start" x="30" y="-340.8" font-family="Helvetica,sans-Serif" font-size="11.00" fill="#000000">c_start_earliest_at</text>
<polygon fill="none" stroke="#000000" points="188,-333.7 188,-355.7 272,-355.7 272,-333.7 188,-333.7"/>
<text text-anchor="start" x="191" y="-341.4" font-family="Helvetica,sans-Serif" font-size="11.00" fill="#000000">timestamp[22]</text>
<polygon fill="none" stroke="#000000" points="10,-311.7 10,-333.7 188,-333.7 188,-311.7 10,-311.7"/>
<text text-anchor="start" x="30" y="-318.8" font-family="Helvetica,sans-Serif" font-size="11.00" fill="#000000">c_started_at</text>
<polygon fill="none" stroke="#000000" points="188,-311.7 188,-333.7 272,-333.7 272,-311.7 188,-311.7"/>
<text text-anchor="start" x="191" y="-319.4" font-family="Helvetica,sans-Serif" font-size="11.00" fill="#000000">timestamp[22]</text>
<polygon fill="none" stroke="#000000" points="10,-289.7 10,-311.7 188,-311.7 188,-289.7 10,-289.7"/>
<text text-anchor="start" x="30" y="-296.8" font-family="Helvetica,sans-Serif" font-size="11.00" fill="#000000">c_updated</text>
<polygon fill="none" stroke="#000000" points="188,-289.7 188,-311.7 272,-311.7 272,-289.7 188,-289.7"/>
<text text-anchor="start" x="190.8807" y="-297.4" font-family="Helvetica,sans-Serif" font-size="11.00" fill="#000000">timestamp[29,6]</text>
<polygon fill="none" stroke="#000000" points="10,-267.7 10,-289.7 188,-289.7 188,-267.7 10,-267.7"/>
<text text-anchor="start" x="30" y="-274.8" font-family="Helvetica,sans-Serif" font-size="11.00" fill="#000000">c_created_by</text>
<polygon fill="none" stroke="#000000" points="188,-267.7 188,-289.7 272,-289.7 272,-267.7 188,-267.7"/>
<text text-anchor="start" x="191" y="-275.4" font-family="Helvetica,sans-Serif" font-size="11.00" fill="#000000">varchar[255]</text>
<polygon fill="#ffffff" stroke="transparent" points="10,-245.7 10,-267.7 188,-267.7 188,-245.7 10,-245.7"/>
<polygon fill="none" stroke="#000000" points="10,-245.7 10,-267.7 188,-267.7 188,-245.7 10,-245.7"/>
<text text-anchor="start" x="30" y="-252.8" font-family="Helvetica,sans-Serif" font-size="11.00" fill="#000000">c_order_id</text>
<polygon fill="none" stroke="#000000" points="188,-245.7 188,-267.7 272,-267.7 272,-245.7 188,-245.7"/>
<text text-anchor="start" x="191" y="-253.4" font-family="Helvetica,sans-Serif" font-size="11.00" fill="#000000">varchar[255]</text>
<polygon fill="none" stroke="#000000" points="10,-223.7 10,-245.7 188,-245.7 188,-223.7 10,-223.7"/>
<text text-anchor="start" x="30" y="-230.8" font-family="Helvetica,sans-Serif" font-size="11.00" fill="#000000">c_order_state</text>
<polygon fill="none" stroke="#000000" points="188,-223.7 188,-245.7 272,-245.7 272,-223.7 188,-223.7"/>
<text text-anchor="start" x="191" y="-231.4" font-family="Helvetica,sans-Serif" font-size="11.00" fill="#000000">varchar[255]</text>
<polygon fill="#ffffff" stroke="transparent" points="10,-201.7 10,-223.7 188,-223.7 188,-201.7 10,-201.7"/>
<polygon fill="none" stroke="#000000" points="10,-201.7 10,-223.7 188,-223.7 188,-201.7 10,-201.7"/>
<text text-anchor="start" x="30" y="-208.8" font-family="Helvetica,sans-Serif" font-size="11.00" fill="#000000">c_pid</text>
<polygon fill="none" stroke="#000000" points="188,-201.7 188,-223.7 272,-223.7 272,-201.7 188,-201.7"/>
<text text-anchor="start" x="191" y="-209.4" font-family="Helvetica,sans-Serif" font-size="11.00" fill="#000000">varchar[255]</text>
<polygon fill="none" stroke="#000000" points="10,-179.7 10,-201.7 188,-201.7 188,-179.7 10,-179.7"/>
<text text-anchor="start" x="30" y="-186.8" font-family="Helvetica,sans-Serif" font-size="11.00" fill="#000000">c_problem_message</text>
<polygon fill="none" stroke="#000000" points="188,-179.7 188,-201.7 272,-201.7 272,-179.7 188,-179.7"/>
<text text-anchor="start" x="191" y="-187.4" font-family="Helvetica,sans-Serif" font-size="11.00" fill="#000000">varchar[255]</text>
<polygon fill="none" stroke="#000000" points="10,-157.7 10,-179.7 188,-179.7 188,-157.7 10,-157.7"/>
<text text-anchor="start" x="30" y="-164.8" font-family="Helvetica,sans-Serif" font-size="11.00" fill="#000000">c_updated_by</text>
<polygon fill="none" stroke="#000000" points="188,-157.7 188,-179.7 272,-179.7 272,-157.7 188,-157.7"/>
<text text-anchor="start" x="191" y="-165.4" font-family="Helvetica,sans-Serif" font-size="11.00" fill="#000000">varchar[255]</text>
<polygon fill="#ffffff" stroke="transparent" points="10,-138.7 10,-157.7 103,-157.7 103,-138.7 10,-138.7"/>
<polygon fill="none" stroke="#000000" points="10,-138.7 10,-157.7 103,-157.7 103,-138.7 10,-138.7"/>
<text text-anchor="start" x="13" y="-144.8" font-family="Helvetica,sans-Serif" font-size="11.00" fill="#000000">&lt; 0</text>
<polygon fill="#ffffff" stroke="transparent" points="103,-138.7 103,-157.7 188,-157.7 188,-138.7 103,-138.7"/>
<polygon fill="none" stroke="#000000" points="103,-138.7 103,-157.7 188,-157.7 188,-138.7 103,-138.7"/>
<text text-anchor="start" x="178.8862" y="-144.8" font-family="Helvetica,sans-Serif" font-size="11.00" fill="#000000"> &#160;</text>
<polygon fill="#ffffff" stroke="transparent" points="188,-138.7 188,-157.7 272,-157.7 272,-138.7 188,-138.7"/>
<polygon fill="none" stroke="#000000" points="188,-138.7 188,-157.7 272,-157.7 272,-138.7 188,-138.7"/>
<text text-anchor="start" x="253.4053" y="-144.8" font-family="Helvetica,sans-Serif" font-size="11.00" fill="#000000">3 &gt;</text>
<polygon fill="none" stroke="#000000" stroke-width="2" points="9,-137.7 9,-621.7 273,-621.7 273,-137.7 9,-137.7"/>
</a>
</g>
</g>
<!-- wms_rec_order_detail&#45;&gt;wms_rec_order -->
<g id="edge1" class="edge">
<title>wms_rec_order_detail:w&#45;&gt;wms_rec_order:e</title>
<path fill="none" stroke="#000000" d="M330.5809,-424.3229C307.6174,-416.0038 303.0047,-388.7 272,-388.7"/>
<polygon fill="#000000" stroke="#000000" points="337.1065,-425.3987 344.4144,-430.2521 341.0533,-426.0493 345,-426.7 345,-426.7 345,-426.7 341.0533,-426.0493 345.5856,-423.1479 337.1065,-425.3987 337.1065,-425.3987"/>
<ellipse fill="none" stroke="#000000" cx="333.9492" cy="-424.8781" rx="3.2" ry="3.2"/>
</g>
<!-- wms_rec_order_pos_product -->
<g id="node3" class="node">
<title>wms_rec_order_pos_product</title>
<g id="a_node3"><a xlink:href="../../tables/wms_rec_order_pos_product.html" xlink:title="wms_rec_order_pos_product" target="_top">
<polygon fill="#ffffff" stroke="transparent" points="323,-186.2 323,-335.2 551,-335.2 551,-186.2 323,-186.2"/>
<polygon fill="#f5f5f5" stroke="transparent" points="323,-311.7 323,-334.7 551,-334.7 551,-311.7 323,-311.7"/>
<polygon fill="none" stroke="#000000" points="323,-311.7 323,-334.7 551,-334.7 551,-311.7 323,-311.7"/>
<text text-anchor="start" x="328" y="-320.3" font-family="Helvetica,sans-Serif" font-weight="bold" font-size="11.00" fill="#000000">wms_rec_order_pos_product</text>
<text text-anchor="start" x="516.5219" y="-319.8" font-family="Helvetica,sans-Serif" font-size="11.00" fill="#000000">[table]</text>
<polygon fill="#ffffff" stroke="transparent" points="323,-289.7 323,-311.7 551,-311.7 551,-289.7 323,-289.7"/>
<polygon fill="none" stroke="#000000" points="323,-289.7 323,-311.7 551,-311.7 551,-289.7 323,-289.7"/>
<text text-anchor="start" x="352" y="-296.8" font-family="Helvetica,sans-Serif" font-size="11.00" fill="#000000">c_pos_no</text>
<polygon fill="none" stroke="#000000" points="323,-267.7 323,-289.7 551,-289.7 551,-267.7 323,-267.7"/>
<image xlink:href="../../images/primaryKeys.png" width="11px" height="12px" preserveAspectRatio="xMinYMin meet" x="328" y="-284.7"/>
<text text-anchor="start" x="352" y="-274.8" font-family="Helvetica,sans-Serif" font-size="11.00" fill="#000000">c_pk</text>
<polygon fill="#ffffff" stroke="transparent" points="323,-245.7 323,-267.7 551,-267.7 551,-245.7 323,-245.7"/>
<polygon fill="none" stroke="#000000" points="323,-245.7 323,-267.7 551,-267.7 551,-245.7 323,-245.7"/>
<image xlink:href="../../images/foreignKeys.png" width="11px" height="12px" preserveAspectRatio="xMinYMin meet" x="328" y="-262.7"/>
<text text-anchor="start" x="352" y="-252.8" font-family="Helvetica,sans-Serif" font-size="11.00" fill="#000000">c_order_id</text>
<polygon fill="none" stroke="#000000" points="323,-223.7 323,-245.7 551,-245.7 551,-223.7 323,-223.7"/>
<image xlink:href="../../images/foreignKeys.png" width="11px" height="12px" preserveAspectRatio="xMinYMin meet" x="328" y="-240.7"/>
<text text-anchor="start" x="352" y="-230.8" font-family="Helvetica,sans-Serif" font-size="11.00" fill="#000000">c_sku</text>
<polygon fill="none" stroke="#000000" points="323,-204.7 323,-223.7 551,-223.7 551,-204.7 323,-204.7"/>
<text text-anchor="start" x="326" y="-210.8" font-family="Helvetica,sans-Serif" font-size="11.00" fill="#000000">...</text>
<polygon fill="#ffffff" stroke="transparent" points="323,-185.7 323,-204.7 435,-204.7 435,-185.7 323,-185.7"/>
<polygon fill="none" stroke="#000000" points="323,-185.7 323,-204.7 435,-204.7 435,-185.7 323,-185.7"/>
<text text-anchor="start" x="326" y="-191.8" font-family="Helvetica,sans-Serif" font-size="11.00" fill="#000000">&lt; 2</text>
<polygon fill="#ffffff" stroke="transparent" points="435,-185.7 435,-204.7 493,-204.7 493,-185.7 435,-185.7"/>
<polygon fill="none" stroke="#000000" points="435,-185.7 435,-204.7 493,-204.7 493,-185.7 435,-185.7"/>
<text text-anchor="start" x="483.8862" y="-191.8" font-family="Helvetica,sans-Serif" font-size="11.00" fill="#000000"> &#160;</text>
<polygon fill="#ffffff" stroke="transparent" points="493,-185.7 493,-204.7 551,-204.7 551,-185.7 493,-185.7"/>
<polygon fill="none" stroke="#000000" points="493,-185.7 493,-204.7 551,-204.7 551,-185.7 493,-185.7"/>
<text text-anchor="start" x="541.8862" y="-191.8" font-family="Helvetica,sans-Serif" font-size="11.00" fill="#000000"> &#160;</text>
</a>
</g>
</g>
<!-- wms_rec_order_pos_product&#45;&gt;wms_rec_order -->
<g id="edge2" class="edge">
<title>wms_rec_order_pos_product:w&#45;&gt;wms_rec_order:e</title>
<path fill="none" stroke="#000000" d="M308.276,-256.7C296.2815,-256.7 288.8229,-256.7 272,-256.7"/>
<polygon fill="#000000" stroke="#000000" points="315,-256.7001 323,-260.3 319,-256.7 323,-256.7 323,-256.7 323,-256.7 319,-256.7 323,-253.1 315,-256.7001 315,-256.7001"/>
<ellipse fill="none" stroke="#000000" cx="311.8" cy="-256.7001" rx="3.2" ry="3.2"/>
</g>
<!-- wms_rec_order_pos_tu -->
<g id="node4" class="node">
<title>wms_rec_order_pos_tu</title>
<g id="a_node4"><a xlink:href="../../tables/wms_rec_order_pos_tu.html" xlink:title="wms_rec_order_pos_tu" target="_top">
<polygon fill="#ffffff" stroke="transparent" points="332,-38.2 332,-165.2 542,-165.2 542,-38.2 332,-38.2"/>
<polygon fill="#f5f5f5" stroke="transparent" points="332,-141.7 332,-164.7 542,-164.7 542,-141.7 332,-141.7"/>
<polygon fill="none" stroke="#000000" points="332,-141.7 332,-164.7 542,-164.7 542,-141.7 332,-141.7"/>
<text text-anchor="start" x="337" y="-150.3" font-family="Helvetica,sans-Serif" font-weight="bold" font-size="11.00" fill="#000000">wms_rec_order_pos_tu</text>
<text text-anchor="start" x="507.0437" y="-149.8" font-family="Helvetica,sans-Serif" font-size="11.00" fill="#000000">[table]</text>
<polygon fill="#ffffff" stroke="transparent" points="332,-119.7 332,-141.7 542,-141.7 542,-119.7 332,-119.7"/>
<polygon fill="none" stroke="#000000" points="332,-119.7 332,-141.7 542,-141.7 542,-119.7 332,-119.7"/>
<text text-anchor="start" x="352" y="-126.8" font-family="Helvetica,sans-Serif" font-size="11.00" fill="#000000">c_pos_no</text>
<polygon fill="none" stroke="#000000" points="332,-97.7 332,-119.7 542,-119.7 542,-97.7 332,-97.7"/>
<image xlink:href="../../images/primaryKeys.png" width="11px" height="12px" preserveAspectRatio="xMinYMin meet" x="337" y="-114.7"/>
<text text-anchor="start" x="352" y="-104.8" font-family="Helvetica,sans-Serif" font-size="11.00" fill="#000000">c_pk</text>
<polygon fill="#ffffff" stroke="transparent" points="332,-75.7 332,-97.7 542,-97.7 542,-75.7 332,-75.7"/>
<polygon fill="none" stroke="#000000" points="332,-75.7 332,-97.7 542,-97.7 542,-75.7 332,-75.7"/>
<image xlink:href="../../images/foreignKeys.png" width="11px" height="12px" preserveAspectRatio="xMinYMin meet" x="337" y="-92.7"/>
<text text-anchor="start" x="352" y="-82.8" font-family="Helvetica,sans-Serif" font-size="11.00" fill="#000000">c_order_id</text>
<polygon fill="none" stroke="#000000" points="332,-56.7 332,-75.7 542,-75.7 542,-56.7 332,-56.7"/>
<text text-anchor="start" x="335" y="-62.8" font-family="Helvetica,sans-Serif" font-size="11.00" fill="#000000">...</text>
<polygon fill="#ffffff" stroke="transparent" points="332,-37.7 332,-56.7 435,-56.7 435,-37.7 332,-37.7"/>
<polygon fill="none" stroke="#000000" points="332,-37.7 332,-56.7 435,-56.7 435,-37.7 332,-37.7"/>
<text text-anchor="start" x="335" y="-43.8" font-family="Helvetica,sans-Serif" font-size="11.00" fill="#000000">&lt; 1</text>
<polygon fill="#ffffff" stroke="transparent" points="435,-37.7 435,-56.7 488,-56.7 488,-37.7 435,-37.7"/>
<polygon fill="none" stroke="#000000" points="435,-37.7 435,-56.7 488,-56.7 488,-37.7 435,-37.7"/>
<text text-anchor="start" x="478.8862" y="-43.8" font-family="Helvetica,sans-Serif" font-size="11.00" fill="#000000"> &#160;</text>
<polygon fill="#ffffff" stroke="transparent" points="488,-37.7 488,-56.7 542,-56.7 542,-37.7 488,-37.7"/>
<polygon fill="none" stroke="#000000" points="488,-37.7 488,-56.7 542,-56.7 542,-37.7 488,-37.7"/>
<text text-anchor="start" x="532.8862" y="-43.8" font-family="Helvetica,sans-Serif" font-size="11.00" fill="#000000"> &#160;</text>
</a>
</g>
</g>
<!-- wms_rec_order_pos_tu&#45;&gt;wms_rec_order -->
<g id="edge3" class="edge">
<title>wms_rec_order_pos_tu:w&#45;&gt;wms_rec_order:e</title>
<path fill="none" stroke="#000000" d="M317.6487,-89.1032C265.0821,-109.7658 346.4897,-256.7 272,-256.7"/>
<polygon fill="#000000" stroke="#000000" points="324.1099,-88.0213 332.5946,-90.2506 328.0549,-87.3606 332,-86.7 332,-86.7 332,-86.7 328.0549,-87.3606 331.4054,-83.1494 324.1099,-88.0213 324.1099,-88.0213"/>
<ellipse fill="none" stroke="#000000" cx="320.9538" cy="-88.5498" rx="3.2" ry="3.2"/>
</g>
</g>
</svg>
