<?xml version="1.0" encoding="UTF-8" standalone="no"?>
<!DOCTYPE svg PUBLIC "-//W3C//DTD SVG 1.1//EN"
 "http://www.w3.org/Graphics/SVG/1.1/DTD/svg11.dtd">
<!-- Generated by graphviz version 2.40.1 (20161225.0304)
 -->
<!-- Title: oneDegreeRelationshipsDiagram Pages: 1 -->
<svg width="488pt" height="179pt"
 viewBox="0.00 0.00 488.00 178.70" xmlns="http://www.w3.org/2000/svg" xmlns:xlink="http://www.w3.org/1999/xlink">
<g id="graph0" class="graph" transform="scale(1 1) rotate(0) translate(4 174.7)">
<title>oneDegreeRelationshipsDiagram</title>
<polygon fill="#ffffff" stroke="transparent" points="-4,4 -4,-174.7 484,-174.7 484,4 -4,4"/>
<text text-anchor="middle" x="72.4936" y="-7.3" font-family="Helvetica,sans-Serif" font-size="11.00" fill="#000000">Generated by SchemaSpy</text>
<!-- wms_rec_order_detail -->
<g id="node1" class="node">
<title>wms_rec_order_detail</title>
<g id="a_node1"><a xlink:href="../../tables/wms_rec_order_detail.html" xlink:title="wms_rec_order_detail" target="_top">
<polygon fill="#ffffff" stroke="transparent" points="235,-54.7 235,-166.7 472,-166.7 472,-54.7 235,-54.7"/>
<polygon fill="#f5f5f5" stroke="transparent" points="237.5,-141.7 237.5,-164.7 470.5,-164.7 470.5,-141.7 237.5,-141.7"/>
<polygon fill="none" stroke="#000000" points="237.5,-141.7 237.5,-164.7 470.5,-164.7 470.5,-141.7 237.5,-141.7"/>
<text text-anchor="start" x="242.5" y="-150.3" font-family="Helvetica,sans-Serif" font-weight="bold" font-size="11.00" fill="#000000">wms_rec_order_detail</text>
<text text-anchor="start" x="435.5437" y="-149.8" font-family="Helvetica,sans-Serif" font-size="11.00" fill="#000000">[table]</text>
<polygon fill="none" stroke="#000000" points="237.5,-119.7 237.5,-141.7 403.5,-141.7 403.5,-119.7 237.5,-119.7"/>
<image xlink:href="../../images/primaryKeys.png" width="11px" height="12px" preserveAspectRatio="xMinYMin meet" x="242.5" y="-136.7"/>
<text text-anchor="start" x="257.5" y="-126.8" font-family="Helvetica,sans-Serif" font-size="11.00" fill="#000000">c_order_pk</text>
<polygon fill="none" stroke="#000000" points="403.5,-119.7 403.5,-141.7 470.5,-141.7 470.5,-119.7 403.5,-119.7"/>
<text text-anchor="start" x="406.5" y="-127.4" font-family="Helvetica,sans-Serif" font-size="11.00" fill="#000000">int8[19]</text>
<polygon fill="none" stroke="#000000" points="237.5,-97.7 237.5,-119.7 403.5,-119.7 403.5,-97.7 237.5,-97.7"/>
<image xlink:href="../../images/primaryKeys.png" width="11px" height="12px" preserveAspectRatio="xMinYMin meet" x="242.5" y="-114.7"/>
<text text-anchor="start" x="257.5" y="-104.8" font-family="Helvetica,sans-Serif" font-size="11.00" fill="#000000">c_key</text>
<polygon fill="none" stroke="#000000" points="403.5,-97.7 403.5,-119.7 470.5,-119.7 470.5,-97.7 403.5,-97.7"/>
<text text-anchor="start" x="406.4365" y="-105.4" font-family="Helvetica,sans-Serif" font-size="11.00" fill="#000000">varchar[255]</text>
<polygon fill="none" stroke="#000000" points="237.5,-75.7 237.5,-97.7 403.5,-97.7 403.5,-75.7 237.5,-75.7"/>
<text text-anchor="start" x="257.5" y="-82.8" font-family="Helvetica,sans-Serif" font-size="11.00" fill="#000000">c_value</text>
<polygon fill="none" stroke="#000000" points="403.5,-75.7 403.5,-97.7 470.5,-97.7 470.5,-75.7 403.5,-75.7"/>
<text text-anchor="start" x="406.4365" y="-83.4" font-family="Helvetica,sans-Serif" font-size="11.00" fill="#000000">varchar[255]</text>
<polygon fill="#ffffff" stroke="transparent" points="237.5,-56.7 237.5,-75.7 324.5,-75.7 324.5,-56.7 237.5,-56.7"/>
<polygon fill="none" stroke="#000000" points="237.5,-56.7 237.5,-75.7 324.5,-75.7 324.5,-56.7 237.5,-56.7"/>
<text text-anchor="start" x="240.5" y="-62.8" font-family="Helvetica,sans-Serif" font-size="11.00" fill="#000000">&lt; 1</text>
<polygon fill="#ffffff" stroke="transparent" points="324.5,-56.7 324.5,-75.7 403.5,-75.7 403.5,-56.7 324.5,-56.7"/>
<polygon fill="none" stroke="#000000" points="324.5,-56.7 324.5,-75.7 403.5,-75.7 403.5,-56.7 324.5,-56.7"/>
<text text-anchor="start" x="394.3862" y="-62.8" font-family="Helvetica,sans-Serif" font-size="11.00" fill="#000000"> &#160;</text>
<polygon fill="#ffffff" stroke="transparent" points="403.5,-56.7 403.5,-75.7 470.5,-75.7 470.5,-56.7 403.5,-56.7"/>
<polygon fill="none" stroke="#000000" points="403.5,-56.7 403.5,-75.7 470.5,-75.7 470.5,-56.7 403.5,-56.7"/>
<text text-anchor="start" x="451.9053" y="-62.8" font-family="Helvetica,sans-Serif" font-size="11.00" fill="#000000">0 &gt;</text>
<polygon fill="none" stroke="#000000" stroke-width="2" points="236,-55.7 236,-165.7 471,-165.7 471,-55.7 236,-55.7"/>
</a>
</g>
</g>
<!-- wms_rec_order -->
<g id="node2" class="node">
<title>wms_rec_order</title>
<g id="a_node2"><a xlink:href="../../tables/wms_rec_order.html" xlink:title="wms_rec_order" target="_top">
<polygon fill="#ffffff" stroke="transparent" points="8,-38.2 8,-165.2 186,-165.2 186,-38.2 8,-38.2"/>
<polygon fill="#f5f5f5" stroke="transparent" points="8,-141.7 8,-164.7 186,-164.7 186,-141.7 8,-141.7"/>
<polygon fill="none" stroke="#000000" points="8,-141.7 8,-164.7 186,-164.7 186,-141.7 8,-141.7"/>
<text text-anchor="start" x="13" y="-150.3" font-family="Helvetica,sans-Serif" font-weight="bold" font-size="11.00" fill="#000000">wms_rec_order</text>
<text text-anchor="start" x="151.0437" y="-149.8" font-family="Helvetica,sans-Serif" font-size="11.00" fill="#000000">[table]</text>
<polygon fill="none" stroke="#000000" points="8,-119.7 8,-141.7 186,-141.7 186,-119.7 8,-119.7"/>
<image xlink:href="../../images/primaryKeys.png" width="11px" height="12px" preserveAspectRatio="xMinYMin meet" x="13" y="-136.7"/>
<text text-anchor="start" x="28" y="-126.8" font-family="Helvetica,sans-Serif" font-size="11.00" fill="#000000">c_pk</text>
<polygon fill="#ffffff" stroke="transparent" points="8,-97.7 8,-119.7 186,-119.7 186,-97.7 8,-97.7"/>
<polygon fill="none" stroke="#000000" points="8,-97.7 8,-119.7 186,-119.7 186,-97.7 8,-97.7"/>
<text text-anchor="start" x="28" y="-104.8" font-family="Helvetica,sans-Serif" font-size="11.00" fill="#000000">c_order_id</text>
<polygon fill="#ffffff" stroke="transparent" points="8,-75.7 8,-97.7 186,-97.7 186,-75.7 8,-75.7"/>
<polygon fill="none" stroke="#000000" points="8,-75.7 8,-97.7 186,-97.7 186,-75.7 8,-75.7"/>
<text text-anchor="start" x="28" y="-82.8" font-family="Helvetica,sans-Serif" font-size="11.00" fill="#000000">c_pid</text>
<polygon fill="none" stroke="#000000" points="8,-56.7 8,-75.7 186,-75.7 186,-56.7 8,-56.7"/>
<text text-anchor="start" x="11" y="-62.8" font-family="Helvetica,sans-Serif" font-size="11.00" fill="#000000">...</text>
<polygon fill="#ffffff" stroke="transparent" points="8,-37.7 8,-56.7 86,-56.7 86,-37.7 8,-37.7"/>
<polygon fill="none" stroke="#000000" points="8,-37.7 8,-56.7 86,-56.7 86,-37.7 8,-37.7"/>
<text text-anchor="start" x="11" y="-43.8" font-family="Helvetica,sans-Serif" font-size="11.00" fill="#000000"> &#160;</text>
<polygon fill="#ffffff" stroke="transparent" points="86,-37.7 86,-56.7 131,-56.7 131,-37.7 86,-37.7"/>
<polygon fill="none" stroke="#000000" points="86,-37.7 86,-56.7 131,-56.7 131,-37.7 86,-37.7"/>
<text text-anchor="start" x="121.8862" y="-43.8" font-family="Helvetica,sans-Serif" font-size="11.00" fill="#000000"> &#160;</text>
<polygon fill="#ffffff" stroke="transparent" points="131,-37.7 131,-56.7 186,-56.7 186,-37.7 131,-37.7"/>
<polygon fill="none" stroke="#000000" points="131,-37.7 131,-56.7 186,-56.7 186,-37.7 131,-37.7"/>
<text text-anchor="start" x="167.4053" y="-43.8" font-family="Helvetica,sans-Serif" font-size="11.00" fill="#000000">3 &gt;</text>
</a>
</g>
</g>
<!-- wms_rec_order_detail&#45;&gt;wms_rec_order -->
<g id="edge1" class="edge">
<title>wms_rec_order_detail:w&#45;&gt;wms_rec_order:e</title>
<path fill="none" stroke="#000000" d="M223.0156,-130.7C210.6771,-130.7 203.1667,-130.7 186,-130.7"/>
<polygon fill="#000000" stroke="#000000" points="229.5,-130.7001 237.5,-134.3 233.5,-130.7 237.5,-130.7 237.5,-130.7 237.5,-130.7 233.5,-130.7 237.5,-127.1 229.5,-130.7001 229.5,-130.7001"/>
<ellipse fill="none" stroke="#000000" cx="226.3" cy="-130.7001" rx="3.2" ry="3.2"/>
</g>
</g>
</svg>
