<?xml version="1.0" encoding="UTF-8" standalone="no"?>
<!DOCTYPE svg PUBLIC "-//W3C//DTD SVG 1.1//EN"
 "http://www.w3.org/Graphics/SVG/1.1/DTD/svg11.dtd">
<!-- Generated by graphviz version 2.40.1 (20161225.0304)
 -->
<!-- Title: twoDegreesRelationshipsDiagram Pages: 1 -->
<svg width="557pt" height="613pt"
 viewBox="0.00 0.00 557.00 612.70" xmlns="http://www.w3.org/2000/svg" xmlns:xlink="http://www.w3.org/1999/xlink">
<g id="graph0" class="graph" transform="scale(1 1) rotate(0) translate(4 608.7)">
<title>twoDegreesRelationshipsDiagram</title>
<polygon fill="#ffffff" stroke="transparent" points="-4,4 -4,-608.7 553,-608.7 553,4 -4,4"/>
<text text-anchor="middle" x="72.4936" y="-7.3" font-family="Helvetica,sans-Serif" font-size="11.00" fill="#000000">Generated by SchemaSpy</text>
<!-- wms_rec_order_detail -->
<g id="node1" class="node">
<title>wms_rec_order_detail</title>
<g id="a_node1"><a xlink:href="../../tables/wms_rec_order_detail.html" xlink:title="wms_rec_order_detail" target="_top">
<polygon fill="#ffffff" stroke="transparent" points="296,-539.7 296,-600.7 480,-600.7 480,-539.7 296,-539.7"/>
<polygon fill="#f5f5f5" stroke="transparent" points="296,-577.2 296,-600.2 480,-600.2 480,-577.2 296,-577.2"/>
<polygon fill="none" stroke="#000000" points="296,-577.2 296,-600.2 480,-600.2 480,-577.2 296,-577.2"/>
<text text-anchor="start" x="301" y="-585.8" font-family="Helvetica,sans-Serif" font-weight="bold" font-size="11.00" fill="#000000">wms_rec_order_detail</text>
<text text-anchor="start" x="445.5219" y="-585.3" font-family="Helvetica,sans-Serif" font-size="11.00" fill="#000000">[table]</text>
<polygon fill="none" stroke="#000000" points="296,-558.2 296,-577.2 480,-577.2 480,-558.2 296,-558.2"/>
<text text-anchor="start" x="299" y="-564.3" font-family="Helvetica,sans-Serif" font-size="11.00" fill="#000000">...</text>
<polygon fill="#ffffff" stroke="transparent" points="296,-539.2 296,-558.2 386,-558.2 386,-539.2 296,-539.2"/>
<polygon fill="none" stroke="#000000" points="296,-539.2 296,-558.2 386,-558.2 386,-539.2 296,-539.2"/>
<text text-anchor="start" x="299" y="-545.3" font-family="Helvetica,sans-Serif" font-size="11.00" fill="#000000">&lt; 1</text>
<polygon fill="#ffffff" stroke="transparent" points="386,-539.2 386,-558.2 433,-558.2 433,-539.2 386,-539.2"/>
<polygon fill="none" stroke="#000000" points="386,-539.2 386,-558.2 433,-558.2 433,-539.2 386,-539.2"/>
<text text-anchor="start" x="423.8862" y="-545.3" font-family="Helvetica,sans-Serif" font-size="11.00" fill="#000000"> &#160;</text>
<polygon fill="#ffffff" stroke="transparent" points="433,-539.2 433,-558.2 480,-558.2 480,-539.2 433,-539.2"/>
<polygon fill="none" stroke="#000000" points="433,-539.2 433,-558.2 480,-558.2 480,-539.2 433,-539.2"/>
<text text-anchor="start" x="470.8862" y="-545.3" font-family="Helvetica,sans-Serif" font-size="11.00" fill="#000000"> &#160;</text>
</a>
</g>
</g>
<!-- wms_rec_order -->
<g id="node2" class="node">
<title>wms_rec_order</title>
<g id="a_node2"><a xlink:href="../../tables/wms_rec_order.html" xlink:title="wms_rec_order" target="_top">
<polygon fill="#ffffff" stroke="transparent" points="8,-414.7 8,-541.7 186,-541.7 186,-414.7 8,-414.7"/>
<polygon fill="#f5f5f5" stroke="transparent" points="8,-518.2 8,-541.2 186,-541.2 186,-518.2 8,-518.2"/>
<polygon fill="none" stroke="#000000" points="8,-518.2 8,-541.2 186,-541.2 186,-518.2 8,-518.2"/>
<text text-anchor="start" x="13" y="-526.8" font-family="Helvetica,sans-Serif" font-weight="bold" font-size="11.00" fill="#000000">wms_rec_order</text>
<text text-anchor="start" x="151.0437" y="-526.3" font-family="Helvetica,sans-Serif" font-size="11.00" fill="#000000">[table]</text>
<polygon fill="none" stroke="#000000" points="8,-496.2 8,-518.2 186,-518.2 186,-496.2 8,-496.2"/>
<image xlink:href="../../images/primaryKeys.png" width="11px" height="12px" preserveAspectRatio="xMinYMin meet" x="13" y="-513.2"/>
<text text-anchor="start" x="28" y="-503.3" font-family="Helvetica,sans-Serif" font-size="11.00" fill="#000000">c_pk</text>
<polygon fill="#ffffff" stroke="transparent" points="8,-474.2 8,-496.2 186,-496.2 186,-474.2 8,-474.2"/>
<polygon fill="none" stroke="#000000" points="8,-474.2 8,-496.2 186,-496.2 186,-474.2 8,-474.2"/>
<text text-anchor="start" x="28" y="-481.3" font-family="Helvetica,sans-Serif" font-size="11.00" fill="#000000">c_order_id</text>
<polygon fill="#ffffff" stroke="transparent" points="8,-452.2 8,-474.2 186,-474.2 186,-452.2 8,-452.2"/>
<polygon fill="none" stroke="#000000" points="8,-452.2 8,-474.2 186,-474.2 186,-452.2 8,-452.2"/>
<text text-anchor="start" x="28" y="-459.3" font-family="Helvetica,sans-Serif" font-size="11.00" fill="#000000">c_pid</text>
<polygon fill="none" stroke="#000000" points="8,-433.2 8,-452.2 186,-452.2 186,-433.2 8,-433.2"/>
<text text-anchor="start" x="11" y="-439.3" font-family="Helvetica,sans-Serif" font-size="11.00" fill="#000000">...</text>
<polygon fill="#ffffff" stroke="transparent" points="8,-414.2 8,-433.2 86,-433.2 86,-414.2 8,-414.2"/>
<polygon fill="none" stroke="#000000" points="8,-414.2 8,-433.2 86,-433.2 86,-414.2 8,-414.2"/>
<text text-anchor="start" x="11" y="-420.3" font-family="Helvetica,sans-Serif" font-size="11.00" fill="#000000"> &#160;</text>
<polygon fill="#ffffff" stroke="transparent" points="86,-414.2 86,-433.2 131,-433.2 131,-414.2 86,-414.2"/>
<polygon fill="none" stroke="#000000" points="86,-414.2 86,-433.2 131,-433.2 131,-414.2 86,-414.2"/>
<text text-anchor="start" x="121.8862" y="-420.3" font-family="Helvetica,sans-Serif" font-size="11.00" fill="#000000"> &#160;</text>
<polygon fill="#ffffff" stroke="transparent" points="131,-414.2 131,-433.2 186,-433.2 186,-414.2 131,-414.2"/>
<polygon fill="none" stroke="#000000" points="131,-414.2 131,-433.2 186,-433.2 186,-414.2 131,-414.2"/>
<text text-anchor="start" x="167.4053" y="-420.3" font-family="Helvetica,sans-Serif" font-size="11.00" fill="#000000">3 &gt;</text>
</a>
</g>
</g>
<!-- wms_rec_order_detail&#45;&gt;wms_rec_order -->
<g id="edge1" class="edge">
<title>wms_rec_order_detail:w&#45;&gt;wms_rec_order:e</title>
<path fill="none" stroke="#000000" d="M282.8034,-560.5497C254.1222,-544.928 188.76,-507.2 186,-507.2"/>
<polygon fill="#000000" stroke="#000000" points="288.8559,-563.5998 294.3799,-570.4149 292.4279,-565.3999 296,-567.2 296,-567.2 296,-567.2 292.4279,-565.3999 297.6201,-563.9851 288.8559,-563.5998 288.8559,-563.5998"/>
<ellipse fill="none" stroke="#000000" cx="285.9982" cy="-562.1597" rx="3.2" ry="3.2"/>
</g>
<!-- wms_rec_order_pos_product -->
<g id="node3" class="node">
<title>wms_rec_order_pos_product</title>
<g id="a_node3"><a xlink:href="../../tables/wms_rec_order_pos_product.html" xlink:title="wms_rec_order_pos_product" target="_top">
<polygon fill="#ffffff" stroke="transparent" points="235,-38.2 235,-436.2 541,-436.2 541,-38.2 235,-38.2"/>
<polygon fill="#f5f5f5" stroke="transparent" points="237,-411.2 237,-434.2 539,-434.2 539,-411.2 237,-411.2"/>
<polygon fill="none" stroke="#000000" points="237,-411.2 237,-434.2 539,-434.2 539,-411.2 237,-411.2"/>
<text text-anchor="start" x="242" y="-419.8" font-family="Helvetica,sans-Serif" font-weight="bold" font-size="11.00" fill="#000000">wms_rec_order_pos_product</text>
<text text-anchor="start" x="504.0437" y="-419.3" font-family="Helvetica,sans-Serif" font-size="11.00" fill="#000000">[table]</text>
<polygon fill="#ffffff" stroke="transparent" points="237,-389.2 237,-411.2 447,-411.2 447,-389.2 237,-389.2"/>
<polygon fill="none" stroke="#000000" points="237,-389.2 237,-411.2 447,-411.2 447,-389.2 237,-389.2"/>
<text text-anchor="start" x="257" y="-396.3" font-family="Helvetica,sans-Serif" font-size="11.00" fill="#000000">c_pos_no</text>
<polygon fill="none" stroke="#000000" points="447,-389.2 447,-411.2 539,-411.2 539,-389.2 447,-389.2"/>
<text text-anchor="start" x="450" y="-396.9" font-family="Helvetica,sans-Serif" font-size="11.00" fill="#000000">int4[10]</text>
<polygon fill="none" stroke="#000000" points="237,-367.2 237,-389.2 447,-389.2 447,-367.2 237,-367.2"/>
<text text-anchor="start" x="257" y="-374.3" font-family="Helvetica,sans-Serif" font-size="11.00" fill="#000000">c_created</text>
<polygon fill="none" stroke="#000000" points="447,-367.2 447,-389.2 539,-389.2 539,-367.2 447,-367.2"/>
<text text-anchor="start" x="450" y="-374.9" font-family="Helvetica,sans-Serif" font-size="11.00" fill="#000000">timestamp[29,6]</text>
<polygon fill="none" stroke="#000000" points="237,-345.2 237,-367.2 447,-367.2 447,-345.2 237,-345.2"/>
<text text-anchor="start" x="257" y="-352.3" font-family="Helvetica,sans-Serif" font-size="11.00" fill="#000000">c_latest_due</text>
<polygon fill="none" stroke="#000000" points="447,-345.2 447,-367.2 539,-367.2 539,-345.2 447,-345.2"/>
<text text-anchor="start" x="449.6023" y="-352.9" font-family="Helvetica,sans-Serif" font-size="11.00" fill="#000000">timestamptz[35,6]</text>
<polygon fill="none" stroke="#000000" points="237,-323.2 237,-345.2 447,-345.2 447,-323.2 237,-323.2"/>
<text text-anchor="start" x="257" y="-330.3" font-family="Helvetica,sans-Serif" font-size="11.00" fill="#000000">c_ol</text>
<polygon fill="none" stroke="#000000" points="447,-323.2 447,-345.2 539,-345.2 539,-323.2 447,-323.2"/>
<text text-anchor="start" x="450" y="-330.9" font-family="Helvetica,sans-Serif" font-size="11.00" fill="#000000">int8[19]</text>
<polygon fill="none" stroke="#000000" points="237,-301.2 237,-323.2 447,-323.2 447,-301.2 237,-301.2"/>
<image xlink:href="../../images/primaryKeys.png" width="11px" height="12px" preserveAspectRatio="xMinYMin meet" x="242" y="-318.2"/>
<text text-anchor="start" x="257" y="-308.3" font-family="Helvetica,sans-Serif" font-size="11.00" fill="#000000">c_pk</text>
<polygon fill="none" stroke="#000000" points="447,-301.2 447,-323.2 539,-323.2 539,-301.2 447,-301.2"/>
<text text-anchor="start" x="450" y="-308.9" font-family="Helvetica,sans-Serif" font-size="11.00" fill="#000000">int8[19]</text>
<polygon fill="none" stroke="#000000" points="237,-279.2 237,-301.2 447,-301.2 447,-279.2 237,-279.2"/>
<text text-anchor="start" x="257" y="-286.3" font-family="Helvetica,sans-Serif" font-size="11.00" fill="#000000">c_updated</text>
<polygon fill="none" stroke="#000000" points="447,-279.2 447,-301.2 539,-301.2 539,-279.2 447,-279.2"/>
<text text-anchor="start" x="450" y="-286.9" font-family="Helvetica,sans-Serif" font-size="11.00" fill="#000000">timestamp[29,6]</text>
<polygon fill="none" stroke="#000000" points="237,-257.2 237,-279.2 447,-279.2 447,-257.2 237,-257.2"/>
<text text-anchor="start" x="257" y="-264.3" font-family="Helvetica,sans-Serif" font-size="11.00" fill="#000000">c_qty_expected</text>
<polygon fill="none" stroke="#000000" points="447,-257.2 447,-279.2 539,-279.2 539,-257.2 447,-257.2"/>
<text text-anchor="start" x="450" y="-264.9" font-family="Helvetica,sans-Serif" font-size="11.00" fill="#000000">varchar[16]</text>
<polygon fill="none" stroke="#000000" points="237,-235.2 237,-257.2 447,-257.2 447,-235.2 237,-235.2"/>
<text text-anchor="start" x="257" y="-242.3" font-family="Helvetica,sans-Serif" font-size="11.00" fill="#000000">c_qty_received</text>
<polygon fill="none" stroke="#000000" points="447,-235.2 447,-257.2 539,-257.2 539,-235.2 447,-235.2"/>
<text text-anchor="start" x="450" y="-242.9" font-family="Helvetica,sans-Serif" font-size="11.00" fill="#000000">varchar[16]</text>
<polygon fill="none" stroke="#000000" points="237,-213.2 237,-235.2 447,-235.2 447,-213.2 237,-213.2"/>
<text text-anchor="start" x="257" y="-220.3" font-family="Helvetica,sans-Serif" font-size="11.00" fill="#000000">c_created_by</text>
<polygon fill="none" stroke="#000000" points="447,-213.2 447,-235.2 539,-235.2 539,-213.2 447,-213.2"/>
<text text-anchor="start" x="450" y="-220.9" font-family="Helvetica,sans-Serif" font-size="11.00" fill="#000000">varchar[255]</text>
<polygon fill="none" stroke="#000000" points="237,-191.2 237,-213.2 447,-213.2 447,-191.2 237,-191.2"/>
<text text-anchor="start" x="257" y="-198.3" font-family="Helvetica,sans-Serif" font-size="11.00" fill="#000000">c_expected_receipt_at</text>
<polygon fill="none" stroke="#000000" points="447,-191.2 447,-213.2 539,-213.2 539,-191.2 447,-191.2"/>
<text text-anchor="start" x="450" y="-198.9" font-family="Helvetica,sans-Serif" font-size="11.00" fill="#000000">varchar[255]</text>
<polygon fill="#ffffff" stroke="transparent" points="237,-169.2 237,-191.2 447,-191.2 447,-169.2 237,-169.2"/>
<polygon fill="none" stroke="#000000" points="237,-169.2 237,-191.2 447,-191.2 447,-169.2 237,-169.2"/>
<image xlink:href="../../images/foreignKeys.png" width="11px" height="12px" preserveAspectRatio="xMinYMin meet" x="242" y="-186.2"/>
<text text-anchor="start" x="257" y="-176.3" font-family="Helvetica,sans-Serif" font-size="11.00" fill="#000000">c_order_id</text>
<polygon fill="none" stroke="#000000" points="447,-169.2 447,-191.2 539,-191.2 539,-169.2 447,-169.2"/>
<text text-anchor="start" x="450" y="-176.9" font-family="Helvetica,sans-Serif" font-size="11.00" fill="#000000">varchar[255]</text>
<polygon fill="none" stroke="#000000" points="237,-147.2 237,-169.2 447,-169.2 447,-147.2 237,-147.2"/>
<text text-anchor="start" x="257" y="-154.3" font-family="Helvetica,sans-Serif" font-size="11.00" fill="#000000">c_qty_expected_type</text>
<polygon fill="none" stroke="#000000" points="447,-147.2 447,-169.2 539,-169.2 539,-147.2 447,-147.2"/>
<text text-anchor="start" x="450" y="-154.9" font-family="Helvetica,sans-Serif" font-size="11.00" fill="#000000">varchar[255]</text>
<polygon fill="none" stroke="#000000" points="237,-125.2 237,-147.2 447,-147.2 447,-125.2 237,-125.2"/>
<text text-anchor="start" x="257" y="-132.3" font-family="Helvetica,sans-Serif" font-size="11.00" fill="#000000">c_qty_received_type</text>
<polygon fill="none" stroke="#000000" points="447,-125.2 447,-147.2 539,-147.2 539,-125.2 447,-125.2"/>
<text text-anchor="start" x="450" y="-132.9" font-family="Helvetica,sans-Serif" font-size="11.00" fill="#000000">varchar[255]</text>
<polygon fill="none" stroke="#000000" points="237,-103.2 237,-125.2 447,-125.2 447,-103.2 237,-103.2"/>
<image xlink:href="../../images/foreignKeys.png" width="11px" height="12px" preserveAspectRatio="xMinYMin meet" x="242" y="-120.2"/>
<text text-anchor="start" x="257" y="-110.3" font-family="Helvetica,sans-Serif" font-size="11.00" fill="#000000">c_sku</text>
<polygon fill="none" stroke="#000000" points="447,-103.2 447,-125.2 539,-125.2 539,-103.2 447,-103.2"/>
<text text-anchor="start" x="450" y="-110.9" font-family="Helvetica,sans-Serif" font-size="11.00" fill="#000000">varchar[255]</text>
<polygon fill="none" stroke="#000000" points="237,-81.2 237,-103.2 447,-103.2 447,-81.2 237,-81.2"/>
<text text-anchor="start" x="257" y="-88.3" font-family="Helvetica,sans-Serif" font-size="11.00" fill="#000000">c_state</text>
<polygon fill="none" stroke="#000000" points="447,-81.2 447,-103.2 539,-103.2 539,-81.2 447,-81.2"/>
<text text-anchor="start" x="450" y="-88.9" font-family="Helvetica,sans-Serif" font-size="11.00" fill="#000000">varchar[255]</text>
<polygon fill="none" stroke="#000000" points="237,-59.2 237,-81.2 447,-81.2 447,-59.2 237,-59.2"/>
<text text-anchor="start" x="257" y="-66.3" font-family="Helvetica,sans-Serif" font-size="11.00" fill="#000000">c_updated_by</text>
<polygon fill="none" stroke="#000000" points="447,-59.2 447,-81.2 539,-81.2 539,-59.2 447,-59.2"/>
<text text-anchor="start" x="450" y="-66.9" font-family="Helvetica,sans-Serif" font-size="11.00" fill="#000000">varchar[255]</text>
<polygon fill="#ffffff" stroke="transparent" points="237,-40.2 237,-59.2 346,-59.2 346,-40.2 237,-40.2"/>
<polygon fill="none" stroke="#000000" points="237,-40.2 237,-59.2 346,-59.2 346,-40.2 237,-40.2"/>
<text text-anchor="start" x="240" y="-46.3" font-family="Helvetica,sans-Serif" font-size="11.00" fill="#000000">&lt; 2</text>
<polygon fill="#ffffff" stroke="transparent" points="346,-40.2 346,-59.2 447,-59.2 447,-40.2 346,-40.2"/>
<polygon fill="none" stroke="#000000" points="346,-40.2 346,-59.2 447,-59.2 447,-40.2 346,-40.2"/>
<text text-anchor="start" x="437.8862" y="-46.3" font-family="Helvetica,sans-Serif" font-size="11.00" fill="#000000"> &#160;</text>
<polygon fill="#ffffff" stroke="transparent" points="447,-40.2 447,-59.2 539,-59.2 539,-40.2 447,-40.2"/>
<polygon fill="none" stroke="#000000" points="447,-40.2 447,-59.2 539,-59.2 539,-40.2 447,-40.2"/>
<text text-anchor="start" x="520.4053" y="-46.3" font-family="Helvetica,sans-Serif" font-size="11.00" fill="#000000">0 &gt;</text>
<polygon fill="none" stroke="#000000" stroke-width="2" points="236,-39.2 236,-435.2 540,-435.2 540,-39.2 236,-39.2"/>
</a>
</g>
</g>
<!-- wms_rec_order_pos_product&#45;&gt;wms_rec_order -->
<g id="edge2" class="edge">
<title>wms_rec_order_pos_product:w&#45;&gt;wms_rec_order:e</title>
<path fill="none" stroke="#000000" d="M223.5871,-185.4938C180.8401,-225.9947 249.3501,-485.2 186,-485.2"/>
<polygon fill="#000000" stroke="#000000" points="229.5586,-183.137 238.3217,-183.5486 233.2793,-181.6685 237,-180.2 237,-180.2 237,-180.2 233.2793,-181.6685 235.6783,-176.8514 229.5586,-183.137 229.5586,-183.137"/>
<ellipse fill="none" stroke="#000000" cx="226.5821" cy="-184.3118" rx="3.2" ry="3.2"/>
</g>
<!-- wms_rec_product -->
<g id="node4" class="node">
<title>wms_rec_product</title>
<g id="a_node4"><a xlink:href="../../tables/wms_rec_product.html" xlink:title="wms_rec_product" target="_top">
<polygon fill="#ffffff" stroke="transparent" points="9,-65.7 9,-214.7 185,-214.7 185,-65.7 9,-65.7"/>
<polygon fill="#f5f5f5" stroke="transparent" points="9,-191.2 9,-214.2 185,-214.2 185,-191.2 9,-191.2"/>
<polygon fill="none" stroke="#000000" points="9,-191.2 9,-214.2 185,-214.2 185,-191.2 9,-191.2"/>
<text text-anchor="start" x="14" y="-199.8" font-family="Helvetica,sans-Serif" font-weight="bold" font-size="11.00" fill="#000000">wms_rec_product</text>
<text text-anchor="start" x="150.0437" y="-199.3" font-family="Helvetica,sans-Serif" font-size="11.00" fill="#000000">[table]</text>
<polygon fill="none" stroke="#000000" points="9,-169.2 9,-191.2 185,-191.2 185,-169.2 9,-169.2"/>
<image xlink:href="../../images/primaryKeys.png" width="11px" height="12px" preserveAspectRatio="xMinYMin meet" x="14" y="-186.2"/>
<text text-anchor="start" x="29" y="-176.3" font-family="Helvetica,sans-Serif" font-size="11.00" fill="#000000">c_pk</text>
<polygon fill="#ffffff" stroke="transparent" points="9,-147.2 9,-169.2 185,-169.2 185,-147.2 9,-147.2"/>
<polygon fill="none" stroke="#000000" points="9,-147.2 9,-169.2 185,-169.2 185,-147.2 9,-147.2"/>
<text text-anchor="start" x="29" y="-154.3" font-family="Helvetica,sans-Serif" font-size="11.00" fill="#000000">c_foreign_pid</text>
<polygon fill="#ffffff" stroke="transparent" points="9,-125.2 9,-147.2 185,-147.2 185,-125.2 9,-125.2"/>
<polygon fill="none" stroke="#000000" points="9,-125.2 9,-147.2 185,-147.2 185,-125.2 9,-125.2"/>
<text text-anchor="start" x="29" y="-132.3" font-family="Helvetica,sans-Serif" font-size="11.00" fill="#000000">c_pid</text>
<polygon fill="#ffffff" stroke="transparent" points="9,-103.2 9,-125.2 185,-125.2 185,-103.2 9,-103.2"/>
<polygon fill="none" stroke="#000000" points="9,-103.2 9,-125.2 185,-125.2 185,-103.2 9,-103.2"/>
<text text-anchor="start" x="29" y="-110.3" font-family="Helvetica,sans-Serif" font-size="11.00" fill="#000000">c_sku</text>
<polygon fill="none" stroke="#000000" points="9,-84.2 9,-103.2 185,-103.2 185,-84.2 9,-84.2"/>
<text text-anchor="start" x="12" y="-90.3" font-family="Helvetica,sans-Serif" font-size="11.00" fill="#000000">...</text>
<polygon fill="#ffffff" stroke="transparent" points="9,-65.2 9,-84.2 86,-84.2 86,-65.2 9,-65.2"/>
<polygon fill="none" stroke="#000000" points="9,-65.2 9,-84.2 86,-84.2 86,-65.2 9,-65.2"/>
<text text-anchor="start" x="12" y="-71.3" font-family="Helvetica,sans-Serif" font-size="11.00" fill="#000000"> &#160;</text>
<polygon fill="#ffffff" stroke="transparent" points="86,-65.2 86,-84.2 131,-84.2 131,-65.2 86,-65.2"/>
<polygon fill="none" stroke="#000000" points="86,-65.2 86,-84.2 131,-84.2 131,-65.2 86,-65.2"/>
<text text-anchor="start" x="121.8862" y="-71.3" font-family="Helvetica,sans-Serif" font-size="11.00" fill="#000000"> &#160;</text>
<polygon fill="#ffffff" stroke="transparent" points="131,-65.2 131,-84.2 185,-84.2 185,-65.2 131,-65.2"/>
<polygon fill="none" stroke="#000000" points="131,-65.2 131,-84.2 185,-84.2 185,-65.2 131,-65.2"/>
<text text-anchor="start" x="166.4053" y="-71.3" font-family="Helvetica,sans-Serif" font-size="11.00" fill="#000000">1 &gt;</text>
</a>
</g>
</g>
<!-- wms_rec_order_pos_product&#45;&gt;wms_rec_product -->
<g id="edge3" class="edge">
<title>wms_rec_order_pos_product:w&#45;&gt;wms_rec_product:e</title>
<path fill="none" stroke="#000000" d="M222.375,-114.2C209.9167,-114.2 202.3333,-114.2 185,-114.2"/>
<polygon fill="#000000" stroke="#000000" points="229,-114.2001 237,-117.8 233,-114.2 237,-114.2 237,-114.2 237,-114.2 233,-114.2 237,-110.6 229,-114.2001 229,-114.2001"/>
<ellipse fill="none" stroke="#000000" cx="225.8" cy="-114.2001" rx="3.2" ry="3.2"/>
</g>
<!-- wms_rec_order_pos_tu -->
<g id="node5" class="node">
<title>wms_rec_order_pos_tu</title>
<g id="a_node5"><a xlink:href="../../tables/wms_rec_order_pos_tu.html" xlink:title="wms_rec_order_pos_tu" target="_top">
<polygon fill="#ffffff" stroke="transparent" points="293.5,-457.7 293.5,-518.7 482.5,-518.7 482.5,-457.7 293.5,-457.7"/>
<polygon fill="#f5f5f5" stroke="transparent" points="294,-495.2 294,-518.2 483,-518.2 483,-495.2 294,-495.2"/>
<polygon fill="none" stroke="#000000" points="294,-495.2 294,-518.2 483,-518.2 483,-495.2 294,-495.2"/>
<text text-anchor="start" x="299" y="-503.8" font-family="Helvetica,sans-Serif" font-weight="bold" font-size="11.00" fill="#000000">wms_rec_order_pos_tu</text>
<text text-anchor="start" x="448.5219" y="-503.3" font-family="Helvetica,sans-Serif" font-size="11.00" fill="#000000">[table]</text>
<polygon fill="none" stroke="#000000" points="294,-476.2 294,-495.2 483,-495.2 483,-476.2 294,-476.2"/>
<text text-anchor="start" x="297" y="-482.3" font-family="Helvetica,sans-Serif" font-size="11.00" fill="#000000">...</text>
<polygon fill="#ffffff" stroke="transparent" points="294,-457.2 294,-476.2 387,-476.2 387,-457.2 294,-457.2"/>
<polygon fill="none" stroke="#000000" points="294,-457.2 294,-476.2 387,-476.2 387,-457.2 294,-457.2"/>
<text text-anchor="start" x="297" y="-463.3" font-family="Helvetica,sans-Serif" font-size="11.00" fill="#000000">&lt; 1</text>
<polygon fill="#ffffff" stroke="transparent" points="387,-457.2 387,-476.2 435,-476.2 435,-457.2 387,-457.2"/>
<polygon fill="none" stroke="#000000" points="387,-457.2 387,-476.2 435,-476.2 435,-457.2 387,-457.2"/>
<text text-anchor="start" x="425.8862" y="-463.3" font-family="Helvetica,sans-Serif" font-size="11.00" fill="#000000"> &#160;</text>
<polygon fill="#ffffff" stroke="transparent" points="435,-457.2 435,-476.2 483,-476.2 483,-457.2 435,-457.2"/>
<polygon fill="none" stroke="#000000" points="435,-457.2 435,-476.2 483,-476.2 483,-457.2 435,-457.2"/>
<text text-anchor="start" x="473.8862" y="-463.3" font-family="Helvetica,sans-Serif" font-size="11.00" fill="#000000"> &#160;</text>
</a>
</g>
</g>
<!-- wms_rec_order_pos_tu&#45;&gt;wms_rec_order -->
<g id="edge4" class="edge">
<title>wms_rec_order_pos_tu:w&#45;&gt;wms_rec_order:e</title>
<path fill="none" stroke="#000000" d="M279.4478,-485.2C242.9443,-485.2 228.75,-485.2 186,-485.2"/>
<polygon fill="#000000" stroke="#000000" points="286,-485.2001 294,-488.8 290,-485.2 294,-485.2 294,-485.2 294,-485.2 290,-485.2 294,-481.6 286,-485.2001 286,-485.2001"/>
<ellipse fill="none" stroke="#000000" cx="282.8" cy="-485.2001" rx="3.2" ry="3.2"/>
</g>
</g>
</svg>
