<?xml version="1.0" encoding="UTF-8" standalone="no"?>
<!DOCTYPE svg PUBLIC "-//W3C//DTD SVG 1.1//EN"
 "http://www.w3.org/Graphics/SVG/1.1/DTD/svg11.dtd">
<!-- Generated by graphviz version 2.40.1 (20161225.0304)
 -->
<!-- Title: oneDegreeRelationshipsDiagram Pages: 1 -->
<svg width="565pt" height="404pt"
 viewBox="0.00 0.00 565.00 404.20" xmlns="http://www.w3.org/2000/svg" xmlns:xlink="http://www.w3.org/1999/xlink">
<g id="graph0" class="graph" transform="scale(1 1) rotate(0) translate(4 400.2)">
<title>oneDegreeRelationshipsDiagram</title>
<polygon fill="#ffffff" stroke="transparent" points="-4,4 -4,-400.2 561,-400.2 561,4 -4,4"/>
<text text-anchor="middle" x="72.4936" y="-7.3" font-family="Helvetica,sans-Serif" font-size="11.00" fill="#000000">Generated by SchemaSpy</text>
<!-- wms_rec_order_pos_product -->
<g id="node1" class="node">
<title>wms_rec_order_pos_product</title>
<g id="a_node1"><a xlink:href="../../tables/wms_rec_order_pos_product.html" xlink:title="wms_rec_order_pos_product" target="_top">
<polygon fill="#ffffff" stroke="transparent" points="321,-43.7 321,-192.7 549,-192.7 549,-43.7 321,-43.7"/>
<polygon fill="#f5f5f5" stroke="transparent" points="321,-169.2 321,-192.2 549,-192.2 549,-169.2 321,-169.2"/>
<polygon fill="none" stroke="#000000" points="321,-169.2 321,-192.2 549,-192.2 549,-169.2 321,-169.2"/>
<text text-anchor="start" x="326" y="-177.8" font-family="Helvetica,sans-Serif" font-weight="bold" font-size="11.00" fill="#000000">wms_rec_order_pos_product</text>
<text text-anchor="start" x="514.5219" y="-177.3" font-family="Helvetica,sans-Serif" font-size="11.00" fill="#000000">[table]</text>
<polygon fill="#ffffff" stroke="transparent" points="321,-147.2 321,-169.2 549,-169.2 549,-147.2 321,-147.2"/>
<polygon fill="none" stroke="#000000" points="321,-147.2 321,-169.2 549,-169.2 549,-147.2 321,-147.2"/>
<text text-anchor="start" x="350" y="-154.3" font-family="Helvetica,sans-Serif" font-size="11.00" fill="#000000">c_pos_no</text>
<polygon fill="none" stroke="#000000" points="321,-125.2 321,-147.2 549,-147.2 549,-125.2 321,-125.2"/>
<image xlink:href="../../images/primaryKeys.png" width="11px" height="12px" preserveAspectRatio="xMinYMin meet" x="326" y="-142.2"/>
<text text-anchor="start" x="350" y="-132.3" font-family="Helvetica,sans-Serif" font-size="11.00" fill="#000000">c_pk</text>
<polygon fill="#ffffff" stroke="transparent" points="321,-103.2 321,-125.2 549,-125.2 549,-103.2 321,-103.2"/>
<polygon fill="none" stroke="#000000" points="321,-103.2 321,-125.2 549,-125.2 549,-103.2 321,-103.2"/>
<image xlink:href="../../images/foreignKeys.png" width="11px" height="12px" preserveAspectRatio="xMinYMin meet" x="326" y="-120.2"/>
<text text-anchor="start" x="350" y="-110.3" font-family="Helvetica,sans-Serif" font-size="11.00" fill="#000000">c_order_id</text>
<polygon fill="none" stroke="#000000" points="321,-81.2 321,-103.2 549,-103.2 549,-81.2 321,-81.2"/>
<image xlink:href="../../images/foreignKeys.png" width="11px" height="12px" preserveAspectRatio="xMinYMin meet" x="326" y="-98.2"/>
<text text-anchor="start" x="350" y="-88.3" font-family="Helvetica,sans-Serif" font-size="11.00" fill="#000000">c_sku</text>
<polygon fill="none" stroke="#000000" points="321,-62.2 321,-81.2 549,-81.2 549,-62.2 321,-62.2"/>
<text text-anchor="start" x="324" y="-68.3" font-family="Helvetica,sans-Serif" font-size="11.00" fill="#000000">...</text>
<polygon fill="#ffffff" stroke="transparent" points="321,-43.2 321,-62.2 433,-62.2 433,-43.2 321,-43.2"/>
<polygon fill="none" stroke="#000000" points="321,-43.2 321,-62.2 433,-62.2 433,-43.2 321,-43.2"/>
<text text-anchor="start" x="324" y="-49.3" font-family="Helvetica,sans-Serif" font-size="11.00" fill="#000000">&lt; 2</text>
<polygon fill="#ffffff" stroke="transparent" points="433,-43.2 433,-62.2 491,-62.2 491,-43.2 433,-43.2"/>
<polygon fill="none" stroke="#000000" points="433,-43.2 433,-62.2 491,-62.2 491,-43.2 433,-43.2"/>
<text text-anchor="start" x="481.8862" y="-49.3" font-family="Helvetica,sans-Serif" font-size="11.00" fill="#000000"> &#160;</text>
<polygon fill="#ffffff" stroke="transparent" points="491,-43.2 491,-62.2 549,-62.2 549,-43.2 491,-43.2"/>
<polygon fill="none" stroke="#000000" points="491,-43.2 491,-62.2 549,-62.2 549,-43.2 491,-43.2"/>
<text text-anchor="start" x="539.8862" y="-49.3" font-family="Helvetica,sans-Serif" font-size="11.00" fill="#000000"> &#160;</text>
</a>
</g>
</g>
<!-- wms_rec_product -->
<g id="node2" class="node">
<title>wms_rec_product</title>
<g id="a_node2"><a xlink:href="../../tables/wms_rec_product.html" xlink:title="wms_rec_product" target="_top">
<polygon fill="#ffffff" stroke="transparent" points="8,-38.2 8,-392.2 272,-392.2 272,-38.2 8,-38.2"/>
<polygon fill="#f5f5f5" stroke="transparent" points="10,-367.2 10,-390.2 270,-390.2 270,-367.2 10,-367.2"/>
<polygon fill="none" stroke="#000000" points="10,-367.2 10,-390.2 270,-390.2 270,-367.2 10,-367.2"/>
<text text-anchor="start" x="15" y="-375.8" font-family="Helvetica,sans-Serif" font-weight="bold" font-size="11.00" fill="#000000">wms_rec_product</text>
<text text-anchor="start" x="235.0437" y="-375.3" font-family="Helvetica,sans-Serif" font-size="11.00" fill="#000000">[table]</text>
<polygon fill="none" stroke="#000000" points="10,-345.2 10,-367.2 186,-367.2 186,-345.2 10,-345.2"/>
<text text-anchor="start" x="30" y="-352.3" font-family="Helvetica,sans-Serif" font-size="11.00" fill="#000000">c_overbooking_allowed</text>
<polygon fill="none" stroke="#000000" points="186,-345.2 186,-367.2 270,-367.2 270,-345.2 186,-345.2"/>
<text text-anchor="start" x="189" y="-352.9" font-family="Helvetica,sans-Serif" font-size="11.00" fill="#000000">bool[1]</text>
<polygon fill="none" stroke="#000000" points="10,-323.2 10,-345.2 186,-345.2 186,-323.2 10,-323.2"/>
<text text-anchor="start" x="30" y="-330.3" font-family="Helvetica,sans-Serif" font-size="11.00" fill="#000000">c_created</text>
<polygon fill="none" stroke="#000000" points="186,-323.2 186,-345.2 270,-345.2 270,-323.2 186,-323.2"/>
<text text-anchor="start" x="188.8807" y="-330.9" font-family="Helvetica,sans-Serif" font-size="11.00" fill="#000000">timestamp[29,6]</text>
<polygon fill="none" stroke="#000000" points="10,-301.2 10,-323.2 186,-323.2 186,-301.2 10,-301.2"/>
<text text-anchor="start" x="30" y="-308.3" font-family="Helvetica,sans-Serif" font-size="11.00" fill="#000000">c_ol</text>
<polygon fill="none" stroke="#000000" points="186,-301.2 186,-323.2 270,-323.2 270,-301.2 186,-301.2"/>
<text text-anchor="start" x="189" y="-308.9" font-family="Helvetica,sans-Serif" font-size="11.00" fill="#000000">int8[19]</text>
<polygon fill="none" stroke="#000000" points="10,-279.2 10,-301.2 186,-301.2 186,-279.2 10,-279.2"/>
<image xlink:href="../../images/primaryKeys.png" width="11px" height="12px" preserveAspectRatio="xMinYMin meet" x="15" y="-296.2"/>
<text text-anchor="start" x="30" y="-286.3" font-family="Helvetica,sans-Serif" font-size="11.00" fill="#000000">c_pk</text>
<polygon fill="none" stroke="#000000" points="186,-279.2 186,-301.2 270,-301.2 270,-279.2 186,-279.2"/>
<text text-anchor="start" x="189" y="-286.9" font-family="Helvetica,sans-Serif" font-size="11.00" fill="#000000">int8[19]</text>
<polygon fill="none" stroke="#000000" points="10,-257.2 10,-279.2 186,-279.2 186,-257.2 10,-257.2"/>
<text text-anchor="start" x="30" y="-264.3" font-family="Helvetica,sans-Serif" font-size="11.00" fill="#000000">c_updated</text>
<polygon fill="none" stroke="#000000" points="186,-257.2 186,-279.2 270,-279.2 270,-257.2 186,-257.2"/>
<text text-anchor="start" x="188.8807" y="-264.9" font-family="Helvetica,sans-Serif" font-size="11.00" fill="#000000">timestamp[29,6]</text>
<polygon fill="none" stroke="#000000" points="10,-235.2 10,-257.2 186,-257.2 186,-235.2 10,-235.2"/>
<text text-anchor="start" x="30" y="-242.3" font-family="Helvetica,sans-Serif" font-size="11.00" fill="#000000">c_base_unit_qty</text>
<polygon fill="none" stroke="#000000" points="186,-235.2 186,-257.2 270,-257.2 270,-235.2 186,-235.2"/>
<text text-anchor="start" x="189" y="-242.9" font-family="Helvetica,sans-Serif" font-size="11.00" fill="#000000">varchar[16]</text>
<polygon fill="none" stroke="#000000" points="10,-213.2 10,-235.2 186,-235.2 186,-213.2 10,-213.2"/>
<text text-anchor="start" x="30" y="-220.3" font-family="Helvetica,sans-Serif" font-size="11.00" fill="#000000">c_base_unit_type</text>
<polygon fill="none" stroke="#000000" points="186,-213.2 186,-235.2 270,-235.2 270,-213.2 186,-213.2"/>
<text text-anchor="start" x="189" y="-220.9" font-family="Helvetica,sans-Serif" font-size="11.00" fill="#000000">varchar[255]</text>
<polygon fill="none" stroke="#000000" points="10,-191.2 10,-213.2 186,-213.2 186,-191.2 10,-191.2"/>
<text text-anchor="start" x="30" y="-198.3" font-family="Helvetica,sans-Serif" font-size="11.00" fill="#000000">c_created_by</text>
<polygon fill="none" stroke="#000000" points="186,-191.2 186,-213.2 270,-213.2 270,-191.2 186,-191.2"/>
<text text-anchor="start" x="189" y="-198.9" font-family="Helvetica,sans-Serif" font-size="11.00" fill="#000000">varchar[255]</text>
<polygon fill="none" stroke="#000000" points="10,-169.2 10,-191.2 186,-191.2 186,-169.2 10,-169.2"/>
<text text-anchor="start" x="30" y="-176.3" font-family="Helvetica,sans-Serif" font-size="11.00" fill="#000000">c_description</text>
<polygon fill="none" stroke="#000000" points="186,-169.2 186,-191.2 270,-191.2 270,-169.2 186,-169.2"/>
<text text-anchor="start" x="189" y="-176.9" font-family="Helvetica,sans-Serif" font-size="11.00" fill="#000000">varchar[255]</text>
<polygon fill="#ffffff" stroke="transparent" points="10,-147.2 10,-169.2 186,-169.2 186,-147.2 10,-147.2"/>
<polygon fill="none" stroke="#000000" points="10,-147.2 10,-169.2 186,-169.2 186,-147.2 10,-147.2"/>
<text text-anchor="start" x="30" y="-154.3" font-family="Helvetica,sans-Serif" font-size="11.00" fill="#000000">c_foreign_pid</text>
<polygon fill="none" stroke="#000000" points="186,-147.2 186,-169.2 270,-169.2 270,-147.2 186,-147.2"/>
<text text-anchor="start" x="189" y="-154.9" font-family="Helvetica,sans-Serif" font-size="11.00" fill="#000000">varchar[255]</text>
<polygon fill="none" stroke="#000000" points="10,-125.2 10,-147.2 186,-147.2 186,-125.2 10,-125.2"/>
<text text-anchor="start" x="30" y="-132.3" font-family="Helvetica,sans-Serif" font-size="11.00" fill="#000000">c_label</text>
<polygon fill="none" stroke="#000000" points="186,-125.2 186,-147.2 270,-147.2 270,-125.2 186,-125.2"/>
<text text-anchor="start" x="189" y="-132.9" font-family="Helvetica,sans-Serif" font-size="11.00" fill="#000000">varchar[255]</text>
<polygon fill="#ffffff" stroke="transparent" points="10,-103.2 10,-125.2 186,-125.2 186,-103.2 10,-103.2"/>
<polygon fill="none" stroke="#000000" points="10,-103.2 10,-125.2 186,-125.2 186,-103.2 10,-103.2"/>
<text text-anchor="start" x="30" y="-110.3" font-family="Helvetica,sans-Serif" font-size="11.00" fill="#000000">c_pid</text>
<polygon fill="none" stroke="#000000" points="186,-103.2 186,-125.2 270,-125.2 270,-103.2 186,-103.2"/>
<text text-anchor="start" x="189" y="-110.9" font-family="Helvetica,sans-Serif" font-size="11.00" fill="#000000">varchar[255]</text>
<polygon fill="#ffffff" stroke="transparent" points="10,-81.2 10,-103.2 186,-103.2 186,-81.2 10,-81.2"/>
<polygon fill="none" stroke="#000000" points="10,-81.2 10,-103.2 186,-103.2 186,-81.2 10,-81.2"/>
<text text-anchor="start" x="30" y="-88.3" font-family="Helvetica,sans-Serif" font-size="11.00" fill="#000000">c_sku</text>
<polygon fill="none" stroke="#000000" points="186,-81.2 186,-103.2 270,-103.2 270,-81.2 186,-81.2"/>
<text text-anchor="start" x="189" y="-88.9" font-family="Helvetica,sans-Serif" font-size="11.00" fill="#000000">varchar[255]</text>
<polygon fill="none" stroke="#000000" points="10,-59.2 10,-81.2 186,-81.2 186,-59.2 10,-59.2"/>
<text text-anchor="start" x="30" y="-66.3" font-family="Helvetica,sans-Serif" font-size="11.00" fill="#000000">c_updated_by</text>
<polygon fill="none" stroke="#000000" points="186,-59.2 186,-81.2 270,-81.2 270,-59.2 186,-59.2"/>
<text text-anchor="start" x="189" y="-66.9" font-family="Helvetica,sans-Serif" font-size="11.00" fill="#000000">varchar[255]</text>
<polygon fill="#ffffff" stroke="transparent" points="10,-40.2 10,-59.2 102,-59.2 102,-40.2 10,-40.2"/>
<polygon fill="none" stroke="#000000" points="10,-40.2 10,-59.2 102,-59.2 102,-40.2 10,-40.2"/>
<text text-anchor="start" x="13" y="-46.3" font-family="Helvetica,sans-Serif" font-size="11.00" fill="#000000">&lt; 0</text>
<polygon fill="#ffffff" stroke="transparent" points="102,-40.2 102,-59.2 186,-59.2 186,-40.2 102,-40.2"/>
<polygon fill="none" stroke="#000000" points="102,-40.2 102,-59.2 186,-59.2 186,-40.2 102,-40.2"/>
<text text-anchor="start" x="176.8862" y="-46.3" font-family="Helvetica,sans-Serif" font-size="11.00" fill="#000000"> &#160;</text>
<polygon fill="#ffffff" stroke="transparent" points="186,-40.2 186,-59.2 270,-59.2 270,-40.2 186,-40.2"/>
<polygon fill="none" stroke="#000000" points="186,-40.2 186,-59.2 270,-59.2 270,-40.2 186,-40.2"/>
<text text-anchor="start" x="251.4053" y="-46.3" font-family="Helvetica,sans-Serif" font-size="11.00" fill="#000000">1 &gt;</text>
<polygon fill="none" stroke="#000000" stroke-width="2" points="9,-39.2 9,-391.2 271,-391.2 271,-39.2 9,-39.2"/>
</a>
</g>
</g>
<!-- wms_rec_order_pos_product&#45;&gt;wms_rec_product -->
<g id="edge1" class="edge">
<title>wms_rec_order_pos_product:w&#45;&gt;wms_rec_product:e</title>
<path fill="none" stroke="#000000" d="M306.276,-92.2C294.2815,-92.2 286.8229,-92.2 270,-92.2"/>
<polygon fill="#000000" stroke="#000000" points="313,-92.2001 321,-95.8 317,-92.2 321,-92.2 321,-92.2 321,-92.2 317,-92.2 321,-88.6 313,-92.2001 313,-92.2001"/>
<ellipse fill="none" stroke="#000000" cx="309.8" cy="-92.2001" rx="3.2" ry="3.2"/>
</g>
</g>
</svg>
